SplineFontDB: 3.2
FontName: EggRollCondensed
FullName: Egg Roll Condensed
FamilyName: Egg Roll
Weight: Condensed
Copyright: 2019 Iconian Fonts - www.iconian.com
Version: 1.1; 2019
ItalicAngle: 0
UnderlinePosition: -175
UnderlineWidth: 50
Ascent: 800
Descent: 200
InvalidEm: 0
sfntRevision: 0x00010001
LayerCount: 2
Layer: 0 0 "Back" 1
Layer: 1 0 "Fore" 0
XUID: [1021 544 -9480482 10367434]
StyleMap: 0x0040
FSType: 0
OS2Version: 3
OS2_WeightWidthSlopeOnly: 0
OS2_UseTypoMetrics: 0
CreationTime: 1562334064
ModificationTime: 1759104347
PfmFamily: 81
TTFWeight: 600
TTFWidth: 3
LineGap: 30
VLineGap: 0
Panose: 0 0 0 0 0 0 0 0 0 0
OS2TypoAscent: 750
OS2TypoAOffset: 0
OS2TypoDescent: -170
OS2TypoDOffset: 0
OS2TypoLinegap: 30
OS2WinAscent: 882
OS2WinAOffset: 0
OS2WinDescent: 143
OS2WinDOffset: 0
HheadAscent: 882
HheadAOffset: 0
HheadDescent: -143
HheadDOffset: 0
OS2SubXSize: 100
OS2SubYSize: 100
OS2SubXOff: 0
OS2SubYOff: 140
OS2SupXSize: 100
OS2SupYSize: 100
OS2SupXOff: 0
OS2SupYOff: 140
OS2StrikeYSize: 50
OS2StrikeYPos: 250
OS2CapHeight: 706
OS2XHeight: 693
OS2Vendor: 'pyrs'
OS2CodePages: 00000001.00000000
OS2UnicodeRanges: 80000007.00000000.00000000.00000000
Lookup: 258 0 0 "'kern' Horizontal Kerning in Latin lookup 0" { "'kern' Horizontal Kerning in Latin lookup 0 subtable"  } ['kern' ('DFLT' <'dflt' > 'latn' <'dflt' > ) ]
MarkAttachClasses: 1
DEI: 91125
LangName: 1033 "" "" "" "" "" "Version 1.1; 2019" "" "" "" "Daniel Zadorozny" "" "" "http://www.iconian.com"
Encoding: UnicodeBmp
UnicodeInterp: none
NameList: AGL For New Fonts
DisplaySize: -48
AntiAlias: 1
FitToEm: 0
WinInfo: 64 16 4
BeginPrivate: 3
BlueValues 15 [-12 5 697 723]
BlueScale 6 0.0375
BlueShift 2 17
EndPrivate
BeginChars: 65540 223

StartChar: exclam
Encoding: 33 33 3
Width: 172
GlyphClass: 2
Flags: W
LayerCount: 2
Fore
SplineSet
156 80 m 2
 155.997070312 93.0048828125 l 1
 148.997070312 112.004882812 l 1
 116.997070312 120.004882812 l 1
 116.997070312 146.004882812 l 2
 114.330078125 176.004882812 112.163085938 205.004882812 110.49609375 233.004882812 c 0
 108.829101562 261.004882812 107.99609375 290.004882812 107.99609375 320.004882812 c 0
 107.99609375 336.004882812 108.329101562 352.004882812 108.99609375 368.004882812 c 0
 109.663085938 384.004882812 110.663085938 400.004882812 111.99609375 416.004882812 c 0
 115.99609375 441.337890625 119.49609375 463.170898438 122.49609375 481.50390625 c 0
 125.49609375 499.836914062 128.329101562 516.669921875 130.99609375 532.002929688 c 0
 133.663085938 547.3359375 136.330078125 562.502929688 138.997070312 577.502929688 c 0
 141.6640625 592.502929688 144.331054688 609.3359375 146.998046875 628.002929688 c 2
 151.998046875 663.002929688 l 1
 49.998046875 700.002929688 l 1
 45.998046875 700.002929688 l 2
 43.3310546875 700.002929688 40.6640625 697.169921875 37.9970703125 691.502929688 c 0
 35.330078125 685.8359375 32.9970703125 679.502929688 30.9970703125 672.502929688 c 0
 28.9970703125 665.502929688 27.4970703125 659.002929688 26.4970703125 653.002929688 c 2
 24.9970703125 644.002929688 l 1
 24.9970703125 582.002929688 l 1
 23.9970703125 582.002929688 l 1
 23.9970703125 565.002929688 l 2
 23.9970703125 531.002929688 24.330078125 493.502929688 24.9970703125 452.502929688 c 0
 25.6640625 411.502929688 28.3310546875 370.669921875 32.998046875 330.002929688 c 0
 37.6650390625 289.3359375 44.83203125 251.002929688 54.4990234375 215.002929688 c 0
 64.166015625 179.002929688 77.9990234375 148.669921875 95.9990234375 124.002929688 c 1
 72.9990234375 131.002929688 l 1
 66.33203125 126.3359375 62.33203125 122.668945312 60.9990234375 120.001953125 c 0
 59.666015625 117.334960938 58.3330078125 111.66796875 57 103.000976562 c 2
 48 48.0009765625 l 1
 48 35.0009765625 l 1
 59 10.0009765625 l 1
 69 6.66796875 79.6669921875 2.66796875 91 -1.9990234375 c 0
 102.333007812 -6.666015625 112 -9.666015625 120 -10.9990234375 c 2
 123 -11.4990234375 l 2
 125 -11.83203125 126.666992188 -11.9990234375 128 -11.9990234375 c 0
 132 -11.9990234375 135 -9.666015625 137 -4.9990234375 c 0
 139 -0.33203125 140.666992188 4.66796875 142 10.0009765625 c 2
 144 15.0009765625 l 2
 145.333007812 19.0009765625 146 22.0009765625 146 24.0009765625 c 0
 146 26.0009765625 146.666992188 28.333984375 148 31.0009765625 c 0
 151.333007812 40.333984375 153.333007812 46.6669921875 154 50 c 0
 154.666992188 53.3330078125 155 56.3330078125 155 59 c 0
 155 61.6669921875 155.166992188 64 155.5 66 c 0
 155.833007812 68 156 72.6669921875 156 80 c 2
EndSplineSet
EndChar

StartChar: quotedbl
Encoding: 34 34 4
Width: 207
GlyphClass: 2
Flags: W
LayerCount: 2
Fore
SplineSet
37 590 m 1
 19.9970703125 520 l 1
 32.6640625 526.666992188 43.4970703125 533.166992188 52.4970703125 539.5 c 0
 61.4970703125 545.833007812 68.830078125 553.166015625 74.4970703125 561.499023438 c 0
 80.1640625 569.83203125 84.6640625 579.665039062 87.9970703125 590.998046875 c 0
 91.330078125 602.331054688 93.9970703125 616.6640625 95.9970703125 633.997070312 c 2
 95.9970703125 673.997070312 l 2
 95.9970703125 674.6640625 95.6640625 676.831054688 94.9970703125 680.498046875 c 0
 94.330078125 684.165039062 93.330078125 687.83203125 91.9970703125 691.499023438 c 0
 90.6640625 695.166015625 89.3310546875 698.499023438 87.998046875 701.499023438 c 0
 86.6650390625 704.499023438 85.33203125 705.999023438 83.9990234375 705.999023438 c 2
 57.9990234375 709.999023438 l 1
 55.9990234375 708.999023438 l 1
 52.9990234375 708.999023438 l 2
 46.9990234375 708.999023438 39.4990234375 708.33203125 30.4990234375 706.999023438 c 0
 21.4990234375 705.666015625 16.33203125 702.333007812 14.9990234375 697 c 2
 14.9990234375 662 l 1
 19.666015625 650 24.3330078125 640.833007812 29 634.5 c 0
 33.6669921875 628.166992188 36 618.666992188 36 606 c 2
 37 590 l 1
131.997070312 590 m 1
 115.995117188 520 l 1
 128.662109375 526.666992188 139.329101562 533.166992188 147.99609375 539.5 c 0
 156.663085938 545.833007812 163.830078125 553.166015625 169.497070312 561.499023438 c 0
 175.1640625 569.83203125 179.6640625 579.665039062 182.997070312 590.998046875 c 0
 186.330078125 602.331054688 188.997070312 616.6640625 190.997070312 633.997070312 c 2
 190.997070312 673.997070312 l 2
 190.997070312 674.6640625 190.6640625 676.831054688 189.997070312 680.498046875 c 0
 189.330078125 684.165039062 188.497070312 687.83203125 187.497070312 691.499023438 c 0
 186.497070312 695.166015625 185.330078125 698.499023438 183.997070312 701.499023438 c 0
 182.6640625 704.499023438 181.331054688 705.999023438 179.998046875 705.999023438 c 2
 152.998046875 709.999023438 l 1
 151.998046875 708.999023438 l 1
 147.998046875 708.999023438 l 2
 141.998046875 708.999023438 134.498046875 708.33203125 125.498046875 706.999023438 c 0
 116.498046875 705.666015625 111.331054688 702.333007812 109.998046875 697 c 2
 109.998046875 662 l 1
 115.331054688 650 120.1640625 640.833007812 124.497070312 634.5 c 0
 128.830078125 628.166992188 130.997070312 618.666992188 130.997070312 606 c 2
 131.997070312 590 l 1
EndSplineSet
EndChar

StartChar: numbersign
Encoding: 35 35 5
Width: 450
GlyphClass: 2
Flags: W
LayerCount: 2
Fore
SplineSet
104 414 m 1
 107.998046875 414.001953125 l 1
 107.998046875 331.001953125 l 1
 14.998046875 338.001953125 l 1
 11.998046875 336.001953125 l 1
 21.998046875 326.001953125 l 1
 25.998046875 320.501953125 l 2
 28.6650390625 316.834960938 30.6650390625 314.001953125 31.998046875 312.001953125 c 0
 33.998046875 308.668945312 37.998046875 305.001953125 43.998046875 301.001953125 c 0
 49.998046875 297.001953125 56.6650390625 292.834960938 63.998046875 288.501953125 c 0
 71.3310546875 284.168945312 78.8310546875 280.001953125 86.498046875 276.001953125 c 0
 94.1650390625 272.001953125 100.665039062 268.334960938 105.998046875 265.001953125 c 2
 107.998046875 264.001953125 l 1
 107.998046875 220.001953125 l 2
 107.998046875 218.001953125 108.331054688 210.834960938 108.998046875 198.501953125 c 0
 109.665039062 186.168945312 110.665039062 172.501953125 111.998046875 157.501953125 c 0
 113.331054688 142.501953125 114.6640625 127.668945312 115.997070312 113.001953125 c 0
 117.330078125 98.3349609375 118.663085938 87.3349609375 119.99609375 80.001953125 c 0
 123.99609375 52.001953125 132.829101562 34.001953125 146.49609375 26.001953125 c 0
 160.163085938 18.001953125 175.663085938 14.001953125 192.99609375 14.001953125 c 0
 214.329101562 15.3349609375 227.49609375 16.8349609375 232.49609375 18.501953125 c 0
 237.49609375 20.1689453125 240.663085938 23.001953125 241.99609375 27.001953125 c 0
 232.663085938 61.6689453125 225.330078125 96.501953125 219.997070312 131.501953125 c 0
 214.6640625 166.501953125 210.331054688 200.001953125 206.998046875 232.001953125 c 1
 270.998046875 212.001953125 l 1
 268.998046875 177.001953125 l 2
 268.998046875 175.001953125 269.331054688 169.501953125 269.998046875 160.501953125 c 0
 270.665039062 151.501953125 271.665039062 141.001953125 272.998046875 129.001953125 c 0
 274.331054688 117.001953125 275.6640625 104.834960938 276.997070312 92.501953125 c 0
 278.330078125 80.1689453125 279.663085938 69.6689453125 280.99609375 61.001953125 c 0
 280.99609375 59.6689453125 281.163085938 58.3359375 281.49609375 57.0029296875 c 0
 281.829101562 55.669921875 281.99609375 54.3369140625 281.99609375 53.00390625 c 0
 285.329101562 25.00390625 292.662109375 6.6708984375 303.995117188 -1.99609375 c 0
 315.328125 -10.6630859375 329.661132812 -14.99609375 346.994140625 -14.99609375 c 2
 369.994140625 -14.99609375 l 2
 387.327148438 -14.99609375 397.994140625 -14.3291015625 401.994140625 -12.99609375 c 0
 405.994140625 -11.6630859375 408.661132812 -9.330078125 409.994140625 -5.9970703125 c 0
 400.661132812 28.0029296875 391.994140625 62.169921875 383.994140625 96.5029296875 c 0
 375.994140625 130.8359375 367.994140625 166.002929688 359.994140625 202.002929688 c 1
 431.994140625 179.002929688 l 1
 429.994140625 184.3359375 428.827148438 190.3359375 428.494140625 197.002929688 c 0
 428.161132812 203.669921875 427.994140625 210.336914062 427.994140625 217.00390625 c 0
 427.327148438 225.670898438 426.827148438 232.50390625 426.494140625 237.50390625 c 0
 426.161132812 242.50390625 425.994140625 246.670898438 425.994140625 250.00390625 c 0
 425.994140625 254.00390625 425.827148438 257.836914062 425.494140625 261.50390625 c 0
 425.161132812 265.170898438 424.994140625 270.337890625 424.994140625 277.004882812 c 2
 429.994140625 307.004882812 l 1
 349.994140625 298.004882812 l 2
 349.327148438 297.337890625 348.327148438 297.004882812 346.994140625 297.004882812 c 0
 344.994140625 297.004882812 343.994140625 296.671875 343.994140625 296.004882812 c 1
 340.661132812 310.004882812 338.328125 323.837890625 336.995117188 337.504882812 c 0
 335.662109375 351.171875 333.995117188 365.004882812 331.995117188 379.004882812 c 1
 428.995117188 372.004882812 l 1
 431.995117188 374.004882812 l 1
 421.995117188 384.004882812 l 1
 417.995117188 389.504882812 l 2
 415.328125 393.171875 413.328125 396.004882812 411.995117188 398.004882812 c 0
 406.662109375 404.671875 396.829101562 412.338867188 382.49609375 421.005859375 c 0
 368.163085938 429.672851562 355.330078125 437.672851562 343.997070312 445.005859375 c 2
 331.997070312 449.005859375 l 1
 330.6640625 468.338867188 329.831054688 487.671875 329.498046875 507.004882812 c 0
 329.165039062 526.337890625 328.998046875 545.670898438 328.998046875 565.00390625 c 2
 335.998046875 683.00390625 l 1
 331.998046875 679.00390625 328.331054688 672.836914062 324.998046875 664.50390625 c 0
 321.665039062 656.170898438 318.665039062 647.337890625 315.998046875 638.004882812 c 0
 313.331054688 628.671875 310.998046875 619.504882812 308.998046875 610.504882812 c 0
 306.998046875 601.504882812 305.331054688 594.337890625 303.998046875 589.004882812 c 0
 301.998046875 584.337890625 299.831054688 576.670898438 297.498046875 566.00390625 c 0
 295.165039062 555.336914062 292.83203125 544.169921875 290.499023438 532.502929688 c 0
 288.166015625 520.8359375 286.333007812 510.3359375 285 501.002929688 c 0
 283.666992188 491.669921875 283 486.002929688 283 484.002929688 c 0
 281.666992188 481.3359375 280.833984375 477.502929688 280.500976562 472.502929688 c 0
 280.16796875 467.502929688 279.334960938 461.3359375 278.001953125 454.002929688 c 1
 188.001953125 485.002929688 l 1
 178.001953125 479.002929688 l 1
 176.668945312 498.3359375 175.668945312 517.668945312 175.001953125 537.001953125 c 0
 174.334960938 556.334960938 174.001953125 575.66796875 174.001953125 595.000976562 c 2
 174.001953125 713.000976562 l 1
 170.001953125 709.000976562 166.334960938 702.833984375 163.001953125 694.500976562 c 0
 159.668945312 686.16796875 156.668945312 677.334960938 154.001953125 668.001953125 c 0
 151.334960938 658.668945312 149.001953125 649.501953125 147.001953125 640.501953125 c 0
 145.001953125 631.501953125 143.334960938 624.334960938 142.001953125 619.001953125 c 0
 140.668945312 614.334960938 139.001953125 607.334960938 137.001953125 598.001953125 c 0
 135.001953125 588.668945312 132.834960938 579.001953125 130.501953125 569.001953125 c 0
 128.168945312 559.001953125 126.168945312 550.001953125 124.501953125 542.001953125 c 0
 122.834960938 534.001953125 121.66796875 529.001953125 121.000976562 527.001953125 c 0
 120.333984375 524.334960938 119.666992188 520.501953125 119 515.501953125 c 0
 118.333007812 510.501953125 117.333007812 504.334960938 116 497.001953125 c 1
 12 531.001953125 l 1
 14 525.668945312 15.1669921875 519.668945312 15.5 513.001953125 c 0
 15.8330078125 506.334960938 16 499.66796875 16 493.000976562 c 0
 16.6669921875 484.333984375 17.1669921875 477.500976562 17.5 472.500976562 c 0
 17.8330078125 467.500976562 18 463.333984375 18 460.000976562 c 0
 18 456.000976562 18.1669921875 452.16796875 18.5 448.500976562 c 0
 18.8330078125 444.833984375 19 439.666992188 19 433 c 2
 14 403 l 1
 94 412 l 1
 104 414 l 1
261.998046875 313.001953125 m 1
 195.997070312 328.002929688 l 1
 195.997070312 327.3359375 194.997070312 327.002929688 192.997070312 327.002929688 c 0
 191.6640625 327.002929688 190.6640625 326.669921875 189.997070312 326.002929688 c 1
 186.6640625 340.002929688 184.331054688 353.669921875 182.998046875 367.002929688 c 0
 181.665039062 380.3359375 180.33203125 394.002929688 178.999023438 408.002929688 c 1
 193.999023438 407.002929688 l 1
 239.999023438 396.002929688 l 2
 240.666015625 395.3359375 242.666015625 394.502929688 245.999023438 393.502929688 c 0
 249.33203125 392.502929688 252.665039062 391.669921875 255.998046875 391.002929688 c 0
 259.331054688 390.3359375 262.331054688 389.668945312 264.998046875 389.001953125 c 2
 268.998046875 388.001953125 l 1
 261.998046875 313.001953125 l 1
EndSplineSet
EndChar

StartChar: dollar
Encoding: 36 36 6
Width: 362
GlyphClass: 2
Flags: W
LayerCount: 2
Fore
SplineSet
231 658 m 1
 238.999023438 702.994140625 l 1
 240.999023438 727.994140625 l 1
 187.999023438 708.994140625 l 2
 183.999023438 706.994140625 180.666015625 705.994140625 177.999023438 705.994140625 c 0
 174.666015625 705.994140625 170.499023438 706.494140625 165.499023438 707.494140625 c 0
 160.499023438 708.494140625 154.999023438 708.994140625 148.999023438 708.994140625 c 2
 138.999023438 707.994140625 l 2
 138.33203125 708.661132812 138.999023438 704.328125 140.999023438 694.995117188 c 0
 142.999023438 685.662109375 145.33203125 675.329101562 147.999023438 663.99609375 c 0
 150.666015625 652.663085938 153.166015625 642.163085938 155.499023438 632.49609375 c 0
 157.83203125 622.829101562 158.665039062 618.329101562 157.998046875 618.99609375 c 1
 157.998046875 614.99609375 158.331054688 611.329101562 158.998046875 607.99609375 c 0
 159.665039062 604.663085938 159.998046875 601.330078125 159.998046875 597.997070312 c 0
 131.331054688 584.6640625 105.331054688 565.1640625 81.998046875 539.497070312 c 0
 58.6650390625 513.830078125 38.6650390625 480.997070312 21.998046875 440.997070312 c 0
 15.3310546875 426.997070312 11.998046875 411.997070312 11.998046875 395.997070312 c 1
 30.6650390625 395.997070312 49.6650390625 394.330078125 68.998046875 390.997070312 c 0
 88.3310546875 387.6640625 106.998046875 380.6640625 124.998046875 369.997070312 c 0
 140.998046875 360.6640625 156.665039062 348.831054688 171.998046875 334.498046875 c 0
 187.331054688 320.165039062 200.831054688 303.498046875 212.498046875 284.498046875 c 0
 224.165039062 265.498046875 233.665039062 244.165039062 240.998046875 220.498046875 c 0
 248.331054688 196.831054688 251.998046875 171.331054688 251.998046875 143.998046875 c 0
 251.998046875 140.665039062 250.665039062 138.998046875 247.998046875 138.998046875 c 0
 234.665039062 138.998046875 220.998046875 141.498046875 206.998046875 146.498046875 c 0
 192.998046875 151.498046875 179.165039062 158.331054688 165.498046875 166.998046875 c 0
 151.831054688 175.665039062 138.998046875 185.665039062 126.998046875 196.998046875 c 0
 114.998046875 208.331054688 104.665039062 220.331054688 95.998046875 232.998046875 c 0
 89.998046875 240.331054688 83.998046875 249.998046875 77.998046875 261.998046875 c 0
 71.998046875 273.998046875 65.998046875 282.998046875 59.998046875 288.998046875 c 1
 56.998046875 288.998046875 l 1
 50.998046875 281.665039062 45.3310546875 271.83203125 39.998046875 259.499023438 c 0
 34.6650390625 247.166015625 29.998046875 233.833007812 25.998046875 219.5 c 0
 21.998046875 205.166992188 18.8310546875 190.666992188 16.498046875 176 c 0
 14.1650390625 161.333007812 12.998046875 148.666015625 12.998046875 137.999023438 c 0
 12.998046875 131.999023438 15.498046875 127.166015625 20.498046875 123.499023438 c 0
 25.498046875 119.83203125 30.3310546875 115.665039062 34.998046875 110.998046875 c 2
 41.998046875 106.998046875 l 2
 45.3310546875 105.665039062 48.8310546875 103.665039062 52.498046875 100.998046875 c 0
 56.1650390625 98.3310546875 58.6650390625 96.3310546875 59.998046875 94.998046875 c 0
 61.3310546875 94.3310546875 64.3310546875 93.1640625 68.998046875 91.4970703125 c 0
 73.6650390625 89.830078125 76.6650390625 88.9970703125 77.998046875 88.9970703125 c 0
 79.3310546875 87.6640625 80.8310546875 86.8310546875 82.498046875 86.498046875 c 0
 84.1650390625 86.1650390625 86.6650390625 85.33203125 89.998046875 83.9990234375 c 0
 96.6650390625 81.9990234375 100.498046875 80.666015625 101.498046875 79.9990234375 c 0
 102.498046875 79.33203125 104.665039062 78.9990234375 107.998046875 78.9990234375 c 0
 112.665039062 77.666015625 117.665039062 76.666015625 122.998046875 75.9990234375 c 0
 128.331054688 75.33203125 131.6640625 74.9990234375 132.997070312 74.9990234375 c 2
 136.997070312 74.9990234375 l 2
 138.330078125 74.9990234375 139.997070312 74.83203125 141.997070312 74.4990234375 c 0
 143.997070312 74.166015625 145.997070312 73.9990234375 147.997070312 73.9990234375 c 2
 171.997070312 64.9990234375 l 1
 175.330078125 43.666015625 177.997070312 26.666015625 179.997070312 13.9990234375 c 0
 181.997070312 1.33203125 183.6640625 -10.0009765625 184.997070312 -20.0009765625 c 0
 186.330078125 -30.0009765625 187.330078125 -39.5009765625 187.997070312 -48.5009765625 c 0
 188.6640625 -57.5009765625 189.331054688 -68.66796875 189.998046875 -82.0009765625 c 1
 194.665039062 -72.0009765625 198.83203125 -63.5009765625 202.499023438 -56.5009765625 c 0
 206.166015625 -49.5009765625 209.499023438 -42.5009765625 212.499023438 -35.5009765625 c 0
 215.499023438 -28.5009765625 218.166015625 -20.5009765625 220.499023438 -11.5009765625 c 0
 222.83203125 -2.5009765625 224.999023438 8.9990234375 226.999023438 22.9990234375 c 2
 228.999023438 47.9990234375 l 1
 235.999023438 82.9990234375 l 1
 262.666015625 90.9990234375 286.333007812 105.999023438 307 127.999023438 c 0
 327.666992188 149.999023438 341.666992188 183.666015625 349 228.999023438 c 2
 350.5 236.499023438 l 2
 350.833007812 238.166015625 351 239.333007812 351 240 c 0
 351 244 349 250.666992188 345 260 c 0
 345 261.333007812 343.333007812 264.833007812 340 270.5 c 0
 336.666992188 276.166992188 334.333984375 280 333.000976562 282 c 0
 317.66796875 310 301.66796875 333.666992188 285.000976562 353 c 0
 268.333984375 372.333007812 248.666992188 388.333007812 226 401 c 0
 216.666992188 406.333007812 207.833984375 410.333007812 199.500976562 413 c 0
 191.16796875 415.666992188 182.66796875 420 174.000976562 426 c 0
 172.000976562 426.666992188 168.833984375 427.5 164.500976562 428.5 c 0
 160.16796875 429.5 155.834960938 430.333007812 151.501953125 431 c 0
 147.168945312 431.666992188 143.001953125 432.166992188 139.001953125 432.5 c 0
 135.001953125 432.833007812 132.001953125 433 130.001953125 433 c 0
 116.668945312 433.666992188 105.668945312 434.5 97.001953125 435.5 c 0
 88.3349609375 436.5 81.3349609375 439 76.001953125 443 c 0
 75.3349609375 443 75.001953125 443.666992188 75.001953125 445 c 2
 76.001953125 452 l 1
 95.3349609375 469.333007812 113.001953125 481 129.001953125 487 c 0
 145.001953125 493 164.334960938 496 187.001953125 496 c 0
 209.668945312 496 230.501953125 491.333007812 249.501953125 482 c 0
 268.501953125 472.666992188 288.001953125 460.666992188 308.001953125 446 c 1
 310.001953125 445 l 1
 310.001953125 453 308.668945312 466.5 306.001953125 485.5 c 0
 303.334960938 504.5 299.66796875 524 295.000976562 544 c 0
 290.333984375 564 285.000976562 581.666992188 279.000976562 597 c 0
 273.000976562 612.333007812 266.66796875 620 260.000976562 620 c 0
 254.66796875 620 249.66796875 619.833007812 245.000976562 619.5 c 0
 240.333984375 619.166992188 235.666992188 618.666992188 231 618 c 1
 231 658 l 1
EndSplineSet
EndChar

StartChar: percent
Encoding: 37 37 7
Width: 370
GlyphClass: 2
Flags: W
LayerCount: 2
Fore
SplineSet
190 308 m 2
 271.997070312 444 l 2
 278.6640625 452.666992188 285.831054688 464 293.498046875 478 c 0
 301.165039062 492 308.165039062 506.666992188 314.498046875 522 c 0
 320.831054688 537.333007812 325.998046875 552.666015625 329.998046875 567.999023438 c 0
 333.998046875 583.33203125 335.998046875 596.665039062 335.998046875 607.998046875 c 2
 334.998046875 623.998046875 l 2
 334.331054688 624.665039062 333.498046875 625.33203125 332.498046875 625.999023438 c 0
 331.498046875 626.666015625 329.998046875 628.333007812 327.998046875 631 c 0
 327.998046875 632.333007812 326.998046875 633.666015625 324.998046875 634.999023438 c 2
 302.498046875 657.499023438 l 2
 294.165039062 665.83203125 285.498046875 673.83203125 276.498046875 681.499023438 c 0
 267.498046875 689.166015625 258.331054688 695.499023438 248.998046875 700.499023438 c 0
 239.665039062 705.499023438 230.665039062 707.999023438 221.998046875 707.999023438 c 2
 215.998046875 706.999023438 l 2
 214.665039062 706.33203125 213.33203125 704.83203125 211.999023438 702.499023438 c 0
 210.666015625 700.166015625 209.333007812 697.999023438 208 695.999023438 c 2
 208 685.999023438 l 1
 208 675.999023438 l 2
 209.333007812 662.666015625 210.333007812 647.666015625 211 630.999023438 c 0
 211.666992188 614.33203125 212 596.665039062 212 577.998046875 c 0
 212 560.665039062 211.166992188 542.83203125 209.5 524.499023438 c 0
 207.833007812 506.166015625 203 484.999023438 195 460.999023438 c 0
 187 436.999023438 174.666992188 409.33203125 158 377.999023438 c 0
 141.333007812 346.666015625 118 309.666015625 88 266.999023438 c 0
 80.6669921875 258.33203125 73.1669921875 246.999023438 65.5 232.999023438 c 0
 57.8330078125 218.999023438 50.8330078125 204.33203125 44.5 188.999023438 c 0
 38.1669921875 173.666015625 33 158.333007812 29 143 c 0
 25 127.666992188 23 114.333984375 23 103.000976562 c 2
 24 87.0009765625 l 1
 28 82.0009765625 l 1
 51.5 58.5009765625 l 2
 60.5 49.5009765625 70 40.833984375 80 32.5009765625 c 0
 90 24.16796875 100 17.16796875 110 11.5009765625 c 0
 120 5.833984375 129.333007812 3.0009765625 138 3.0009765625 c 2
 144 3.0009765625 l 2
 145.333007812 3.66796875 146.666015625 5.16796875 147.999023438 7.5009765625 c 0
 149.33203125 9.833984375 150.665039062 12.0009765625 151.998046875 14.0009765625 c 2
 150.998046875 41.0009765625 l 2
 149.665039062 53.0009765625 148.83203125 66.5009765625 148.499023438 81.5009765625 c 0
 148.166015625 96.5009765625 147.999023438 111.66796875 147.999023438 127.000976562 c 0
 147.999023438 145.000976562 148.499023438 163.16796875 149.499023438 181.500976562 c 0
 150.499023438 199.833984375 152.499023438 217.166992188 155.499023438 233.5 c 0
 158.499023438 249.833007812 162.83203125 264.5 168.499023438 277.5 c 0
 174.166015625 290.5 181.333007812 300.666992188 190 308 c 2
165.997070312 604 m 0
 165.997070312 614.666992188 165.329101562 626.500976562 163.99609375 639.500976562 c 0
 162.663085938 652.500976562 160.49609375 665.500976562 157.49609375 678.500976562 c 0
 154.49609375 691.500976562 150.663085938 703.66796875 145.99609375 715.000976562 c 0
 141.329101562 726.333984375 135.329101562 735.666992188 127.99609375 743 c 1
 127.99609375 739.666992188 128.163085938 737.166992188 128.49609375 735.5 c 0
 128.829101562 733.833007812 128.99609375 732 128.99609375 730 c 0
 128.99609375 724 127.663085938 718.666992188 124.99609375 714 c 2
 120.99609375 709 l 1
 73.99609375 756 l 1
 66.99609375 751 l 2
 45.6630859375 737 31.1630859375 718.5 23.49609375 695.5 c 0
 15.8291015625 672.5 11.99609375 646 11.99609375 616 c 0
 11.99609375 586 15.6630859375 558.166992188 22.99609375 532.5 c 0
 30.3291015625 506.833007812 40.3291015625 481.333007812 52.99609375 456 c 1
 53.49609375 454.5 l 2
 53.8291015625 453.5 53.99609375 452.666992188 53.99609375 452 c 0
 53.99609375 448 52.6630859375 445.333007812 49.99609375 444 c 0
 47.3291015625 442.666992188 45.99609375 440.333984375 45.99609375 437.000976562 c 0
 45.99609375 433.66796875 48.1630859375 429.66796875 52.49609375 425.000976562 c 0
 56.8291015625 420.333984375 61.8291015625 415.666992188 67.49609375 411 c 0
 73.1630859375 406.333007812 78.830078125 402.333007812 84.4970703125 399 c 0
 90.1640625 395.666992188 94.6640625 393.666992188 97.9970703125 393 c 2
 98.4970703125 392.5 l 2
 98.830078125 392.166992188 99.330078125 392 99.9970703125 392 c 2
 100.997070312 393 l 1
 107.997070312 401 l 1
 123.997070312 431.666992188 137.6640625 463.666992188 148.997070312 497 c 0
 160.330078125 530.333007812 165.997070312 566 165.997070312 604 c 0
108.99609375 635.000976562 m 2
 108.99609375 627.66796875 108.329101562 617.66796875 106.99609375 605.000976562 c 0
 105.663085938 592.333984375 103.830078125 579.666992188 101.497070312 567 c 0
 99.1640625 554.333007812 95.9970703125 543.333007812 91.9970703125 534 c 0
 87.9970703125 524.666992188 83.330078125 520 77.9970703125 520 c 0
 74.6640625 520 72.6640625 522.666992188 71.9970703125 528 c 0
 71.330078125 533.333007812 70.9970703125 539 70.9970703125 545 c 2
 70.9970703125 558 l 2
 70.9970703125 566 71.330078125 575.833007812 71.9970703125 587.5 c 0
 72.6640625 599.166992188 73.9970703125 610.5 75.9970703125 621.5 c 0
 77.9970703125 632.5 80.9970703125 641.833007812 84.9970703125 649.5 c 0
 88.9970703125 657.166992188 94.6640625 661 101.997070312 661 c 0
 105.330078125 661 107.163085938 660.333007812 107.49609375 659 c 0
 107.829101562 657.666992188 107.99609375 655.333984375 107.99609375 652.000976562 c 2
 108.99609375 648.000976562 l 1
 108.99609375 635.000976562 l 2
355.99609375 173.000976562 m 0
 355.99609375 183.66796875 355.494140625 195.501953125 354.494140625 208.501953125 c 0
 353.494140625 221.501953125 351.494140625 234.501953125 348.494140625 247.501953125 c 0
 345.494140625 260.501953125 341.661132812 272.668945312 336.994140625 284.001953125 c 0
 332.327148438 295.334960938 326.327148438 304.66796875 318.994140625 312.000976562 c 1
 318.994140625 308.66796875 319.161132812 306.16796875 319.494140625 304.500976562 c 0
 319.827148438 302.833984375 319.994140625 301.000976562 319.994140625 299.000976562 c 0
 319.994140625 294.333984375 318.661132812 289.000976562 315.994140625 283.000976562 c 2
 311.994140625 278.000976562 l 1
 263.994140625 325.000976562 l 1
 256.994140625 320.000976562 l 2
 235.661132812 306.000976562 221.161132812 287.500976562 213.494140625 264.500976562 c 0
 205.827148438 241.500976562 201.994140625 215.000976562 201.994140625 185.000976562 c 0
 201.994140625 155.000976562 205.827148438 127.16796875 213.494140625 101.500976562 c 0
 221.161132812 75.833984375 231.328125 50.333984375 243.995117188 25.0009765625 c 1
 243.995117188 21.0009765625 l 2
 243.995117188 17.0009765625 242.662109375 14.333984375 239.995117188 13.0009765625 c 0
 237.328125 11.66796875 235.995117188 9.3349609375 235.995117188 6.001953125 c 0
 235.995117188 2.6689453125 238.162109375 -1.3310546875 242.495117188 -5.998046875 c 0
 246.828125 -10.6650390625 251.828125 -15.33203125 257.495117188 -19.9990234375 c 0
 263.162109375 -24.666015625 268.829101562 -28.666015625 274.49609375 -31.9990234375 c 0
 280.163085938 -35.33203125 284.663085938 -37.33203125 287.99609375 -37.9990234375 c 2
 288.49609375 -38.4990234375 l 2
 288.829101562 -38.83203125 289.329101562 -38.9990234375 289.99609375 -38.9990234375 c 0
 290.663085938 -38.9990234375 291.163085938 -38.83203125 291.49609375 -38.4990234375 c 2
 291.99609375 -37.9990234375 l 1
 297.99609375 -29.9990234375 l 1
 314.663085938 0.66796875 328.49609375 32.66796875 339.49609375 66.0009765625 c 0
 350.49609375 99.333984375 355.99609375 135.000976562 355.99609375 173.000976562 c 0
299.994140625 204.001953125 m 2
 299.994140625 196.668945312 299.328125 186.668945312 297.995117188 174.001953125 c 0
 296.662109375 161.334960938 294.662109375 148.66796875 291.995117188 136.000976562 c 0
 289.328125 123.333984375 285.995117188 112.333984375 281.995117188 103.000976562 c 0
 277.995117188 93.66796875 273.328125 89.0009765625 267.995117188 89.0009765625 c 0
 264.662109375 89.0009765625 262.662109375 91.66796875 261.995117188 97.0009765625 c 0
 261.328125 102.333984375 260.995117188 108.000976562 260.995117188 114.000976562 c 2
 260.995117188 127.000976562 l 2
 260.995117188 135.000976562 261.328125 144.833984375 261.995117188 156.500976562 c 0
 262.662109375 168.16796875 263.995117188 179.500976562 265.995117188 190.500976562 c 0
 267.995117188 201.500976562 270.995117188 210.833984375 274.995117188 218.500976562 c 0
 278.995117188 226.16796875 284.662109375 230.000976562 291.995117188 230.000976562 c 0
 295.328125 230.000976562 297.161132812 229.333984375 297.494140625 228.000976562 c 0
 297.827148438 226.66796875 298.327148438 224.334960938 298.994140625 221.001953125 c 2
 299.994140625 217.001953125 l 1
 299.994140625 204.001953125 l 2
EndSplineSet
EndChar

StartChar: ampersand
Encoding: 38 38 8
Width: 428
GlyphClass: 2
Flags: W
LayerCount: 2
Fore
SplineSet
324 349 m 1
 296.006835938 351.001953125 l 1
 276.673828125 358.334960938 259.673828125 365.501953125 245.006835938 372.501953125 c 0
 230.33984375 379.501953125 221.672851562 383.668945312 219.005859375 385.001953125 c 0
 209.672851562 391.001953125 200.33984375 398.168945312 191.006835938 406.501953125 c 0
 181.673828125 414.834960938 173.173828125 423.834960938 165.506835938 433.501953125 c 0
 157.83984375 443.168945312 151.672851562 453.501953125 147.005859375 464.501953125 c 0
 142.338867188 475.501953125 140.005859375 487.001953125 140.005859375 499.001953125 c 0
 140.005859375 513.001953125 143.172851562 524.001953125 149.505859375 532.001953125 c 0
 155.838867188 540.001953125 163.838867188 546.168945312 173.505859375 550.501953125 c 0
 183.172851562 554.834960938 193.505859375 557.834960938 204.505859375 559.501953125 c 0
 215.505859375 561.168945312 226.005859375 562.3359375 236.005859375 563.002929688 c 2
 240.005859375 563.002929688 l 1
 231.005859375 512.002929688 l 1
 243.672851562 498.669921875 254.672851562 487.669921875 264.005859375 479.002929688 c 0
 273.338867188 470.3359375 279.671875 462.002929688 283.004882812 454.002929688 c 1
 343.004882812 521.002929688 l 2
 347.004882812 523.669921875 351.671875 525.669921875 357.004882812 527.002929688 c 0
 362.337890625 528.3359375 367.337890625 529.668945312 372.004882812 531.001953125 c 0
 376.671875 532.334960938 380.671875 533.66796875 384.004882812 535.000976562 c 0
 387.337890625 536.333984375 389.004882812 538.666992188 389.004882812 542 c 0
 389.004882812 550.666992188 385.837890625 561.166992188 379.504882812 573.5 c 0
 373.171875 585.833007812 365.171875 598.666015625 355.504882812 611.999023438 c 0
 345.837890625 625.33203125 335.170898438 638.665039062 323.50390625 651.998046875 c 0
 311.836914062 665.331054688 300.669921875 676.998046875 290.002929688 686.998046875 c 1
 277.002929688 692.998046875 l 1
 247.002929688 608.998046875 l 1
 204.002929688 663.998046875 l 1
 179.002929688 660.998046875 l 2
 159.002929688 660.998046875 140.3359375 658.665039062 123.002929688 653.998046875 c 0
 105.669921875 649.331054688 90.669921875 641.498046875 78.0029296875 630.498046875 c 0
 65.3359375 619.498046875 55.3359375 604.998046875 48.0029296875 586.998046875 c 0
 40.669921875 568.998046875 37.0029296875 546.665039062 37.0029296875 519.998046875 c 2
 37.0029296875 516.998046875 l 2
 37.0029296875 486.331054688 42.669921875 460.831054688 54.0029296875 440.498046875 c 0
 65.3359375 420.165039062 79.6689453125 398.665039062 97.001953125 375.998046875 c 1
 74.3349609375 373.331054688 55.3349609375 364.331054688 40.001953125 348.998046875 c 0
 24.6689453125 333.665039062 17.001953125 307.33203125 17.001953125 269.999023438 c 0
 17.001953125 251.999023438 19.1689453125 231.999023438 23.501953125 209.999023438 c 0
 27.8349609375 187.999023438 33.8349609375 166.499023438 41.501953125 145.499023438 c 0
 49.1689453125 124.499023438 58.001953125 104.83203125 68.001953125 86.4990234375 c 0
 78.001953125 68.166015625 88.6689453125 53.3330078125 100.001953125 42 c 0
 120.668945312 18 146.668945312 0 178.001953125 -12 c 1
 203.001953125 63 l 1
 242.001953125 12 l 2
 242.668945312 11.3330078125 244.668945312 11 248.001953125 11 c 2
 255.001953125 11 l 1
 268.001953125 11 l 2
 292.001953125 11 311.168945312 12 325.501953125 14 c 0
 339.834960938 16 350.66796875 22 358.000976562 32 c 0
 365.333984375 42 370.166992188 57.3330078125 372.5 78 c 0
 374.833007812 98.6669921875 376 127.666992188 376 165 c 0
 376 178.333007812 375 192.666015625 373 207.999023438 c 0
 371 223.33203125 368 236.665039062 364 247.998046875 c 1
 412 231.998046875 l 1
 410 237.331054688 408.833007812 243.331054688 408.5 249.998046875 c 0
 408.166992188 256.665039062 408 263.33203125 408 269.999023438 c 0
 407.333007812 278.666015625 406.833007812 285.499023438 406.5 290.499023438 c 0
 406.166992188 295.499023438 406 299.666015625 406 302.999023438 c 0
 406 306.999023438 405.833007812 310.83203125 405.5 314.499023438 c 0
 405.166992188 318.166015625 405 323.333007812 405 330 c 2
 410 360 l 1
 334 351 l 1
 324 349 l 1
247.006835938 106.001953125 m 1
 184.005859375 134.000976562 l 1
 166.672851562 148.66796875 152.005859375 166.16796875 140.005859375 186.500976562 c 0
 128.005859375 206.833984375 122.005859375 229.666992188 122.005859375 255 c 0
 122.005859375 271.666992188 127.505859375 285.833984375 138.505859375 297.500976562 c 0
 149.505859375 309.16796875 160.338867188 317.000976562 171.005859375 321.000976562 c 1
 175.672851562 318.333984375 180.33984375 315.833984375 185.006835938 313.500976562 c 0
 189.673828125 311.16796875 194.673828125 309.000976562 200.006835938 307.000976562 c 0
 218.006835938 293.66796875 234.006835938 277.66796875 248.006835938 259.000976562 c 0
 262.006835938 240.333984375 269.006835938 219.333984375 269.006835938 196.000976562 c 0
 269.006835938 188.000976562 269.506835938 178.333984375 270.506835938 167.000976562 c 0
 271.506835938 155.66796875 272.006835938 146.334960938 272.006835938 139.001953125 c 0
 272.006835938 131.668945312 271.006835938 125.001953125 269.006835938 119.001953125 c 0
 267.006835938 113.001953125 262.673828125 108.001953125 256.006835938 104.001953125 c 1
 247.006835938 106.001953125 l 1
EndSplineSet
EndChar

StartChar: quotesingle
Encoding: 39 39 9
Width: 135
GlyphClass: 2
Flags: W
LayerCount: 2
Fore
SplineSet
47 592 m 1
 26.998046875 523 l 1
 42.998046875 529.666992188 55.998046875 536 65.998046875 542 c 0
 75.998046875 548 84.3310546875 555 90.998046875 563 c 0
 97.6650390625 571 102.83203125 580.666992188 106.499023438 592 c 0
 110.166015625 603.333007812 113.333007812 617.666015625 116 634.999023438 c 0
 116 638.999023438 116.166992188 645.666015625 116.5 654.999023438 c 0
 116.833007812 664.33203125 117 670.665039062 117 673.998046875 c 0
 117 674.665039062 116.5 677.33203125 115.5 681.999023438 c 0
 114.5 686.666015625 113 691.833007812 111 697.5 c 0
 109 703.166992188 106.666992188 706 104 706 c 2
 72 710 l 1
 70 709 l 1
 66 709 l 2
 62.6669921875 709 58.5 708.833007812 53.5 708.5 c 0
 48.5 708.166992188 43.5 707.5 38.5 706.5 c 0
 33.5 705.5 29.1669921875 704.333007812 25.5 703 c 0
 21.8330078125 701.666992188 20 699.666992188 20 697 c 2
 20 663 l 1
 26 651 31.6669921875 641.833007812 37 635.5 c 0
 42.3330078125 629.166992188 45 619.666992188 45 607 c 2
 47 592 l 1
EndSplineSet
EndChar

StartChar: parenleft
Encoding: 40 40 10
Width: 251
GlyphClass: 2
Flags: W
LayerCount: 2
Fore
SplineSet
108 234 m 0
 107.333007812 252.666992188 106.837890625 269.166015625 106.504882812 283.499023438 c 0
 106.171875 297.83203125 106.004882812 310.33203125 106.004882812 320.999023438 c 0
 106.004882812 333.666015625 106.171875 343.833007812 106.504882812 351.5 c 0
 106.837890625 359.166992188 107.337890625 364.666992188 108.004882812 368 c 0
 118.671875 408 130.671875 443 144.004882812 473 c 0
 157.337890625 503 170.170898438 528.333007812 182.50390625 549 c 0
 194.836914062 569.666992188 205.669921875 585.666992188 215.002929688 597 c 0
 224.3359375 608.333007812 230.3359375 615.333007812 233.002929688 618 c 2
 239.002929688 624 l 1
 145.002929688 716 l 1
 131.002929688 707 l 2
 89.0029296875 676.333007812 59.5029296875 638.833007812 42.5029296875 594.5 c 0
 25.5029296875 550.166992188 17.0029296875 497.666992188 17.0029296875 437 c 0
 17.0029296875 393.666992188 20.0029296875 354.5 26.0029296875 319.5 c 0
 32.0029296875 284.5 39.8359375 250.833007812 49.5029296875 218.5 c 0
 59.169921875 186.166992188 70.169921875 153.666992188 82.5029296875 121 c 0
 94.8359375 88.3330078125 107.668945312 53 121.001953125 15 c 0
 122.334960938 9.6669921875 126.66796875 5.333984375 134.000976562 2.0009765625 c 0
 141.333984375 -1.33203125 146.666992188 -2.9990234375 150 -2.9990234375 c 0
 153.333007812 -2.9990234375 156.5 -1.83203125 159.5 0.5009765625 c 0
 162.5 2.833984375 164 5.6669921875 164 9 c 1
 164 8 l 1
 164 10 163.666992188 12 163 14 c 0
 155.666992188 30 148.666992188 49.3330078125 142 72 c 0
 135.333007812 94.6669921875 129.5 117.166992188 124.5 139.5 c 0
 119.5 161.833007812 115.5 181.833007812 112.5 199.5 c 0
 109.5 217.166992188 108 228.666992188 108 234 c 0
EndSplineSet
EndChar

StartChar: parenright
Encoding: 41 41 11
Width: 256
GlyphClass: 2
Flags: W
LayerCount: 2
Fore
SplineSet
146 480 m 0
 146.666992188 470.666992188 147.169921875 461.83203125 147.502929688 453.499023438 c 0
 147.8359375 445.166015625 148.002929688 437.333007812 148.002929688 430 c 2
 148.002929688 393 l 1
 148.002929688 362 l 2
 148.002929688 353.333007812 147.669921875 348 147.002929688 346 c 0
 136.3359375 305.333007812 124.168945312 270 110.501953125 240 c 0
 96.8349609375 210 83.66796875 184.833007812 71.0009765625 164.5 c 0
 58.333984375 144.166992188 47.333984375 128.333984375 38.0009765625 117.000976562 c 0
 28.66796875 105.66796875 23.0009765625 98.66796875 21.0009765625 96.0009765625 c 2
 16.0009765625 90.0009765625 l 1
 109.000976562 -1.9990234375 l 1
 124.000976562 7.0009765625 l 1
 166.000976562 37.66796875 195.333984375 75.16796875 212.000976562 119.500976562 c 0
 228.66796875 163.833984375 237.000976562 216.333984375 237.000976562 277.000976562 c 0
 237.000976562 320.333984375 234.16796875 359.500976562 228.500976562 394.500976562 c 0
 222.833984375 429.500976562 215.166992188 463.16796875 205.5 495.500976562 c 0
 195.833007812 527.833984375 184.666015625 560.333984375 171.999023438 593.000976562 c 0
 159.33203125 625.66796875 146.33203125 661.000976562 132.999023438 699.000976562 c 0
 131.666015625 704.333984375 127.499023438 708.666992188 120.499023438 712 c 0
 113.499023438 715.333007812 107.999023438 717 103.999023438 717 c 0
 101.33203125 717 98.33203125 715.833007812 94.9990234375 713.5 c 0
 91.666015625 711.166992188 89.9990234375 708.333984375 89.9990234375 705.000976562 c 1
 89.9990234375 706.333984375 90.166015625 706.666992188 90.4990234375 706 c 0
 90.83203125 705.333007812 91.33203125 703.333007812 91.9990234375 700 c 0
 98.666015625 684 105.333007812 664.5 112 641.5 c 0
 118.666992188 618.5 124.5 596 129.5 574 c 0
 134.5 552 138.5 532.166992188 141.5 514.5 c 0
 144.5 496.833007812 146 485.333007812 146 480 c 0
EndSplineSet
EndChar

StartChar: asterisk
Encoding: 42 42 12
Width: 221
GlyphClass: 2
Flags: W
LayerCount: 2
Fore
SplineSet
144 617 m 1
 170.999023438 644.002929688 l 1
 170.999023438 647.002929688 l 1
 195.999023438 675.002929688 l 1
 204.999023438 692.002929688 l 1
 166.999023438 721.002929688 l 2
 161.666015625 722.3359375 157.166015625 725.168945312 153.499023438 729.501953125 c 0
 149.83203125 733.834960938 143.999023438 740.334960938 135.999023438 749.001953125 c 1
 111.999023438 691.001953125 l 1
 102.999023438 672.001953125 l 1
 48.9990234375 750.001953125 l 1
 45.9990234375 751.001953125 l 1
 43.9990234375 738.001953125 l 1
 43.9990234375 722.001953125 l 2
 43.9990234375 718.001953125 44.666015625 713.001953125 45.9990234375 707.001953125 c 0
 47.33203125 701.001953125 48.9990234375 694.501953125 50.9990234375 687.501953125 c 2
 56.9990234375 666.501953125 l 2
 58.9990234375 659.501953125 60.666015625 653.334960938 61.9990234375 648.001953125 c 2
 72.9990234375 625.001953125 l 1
 59.9990234375 603.001953125 l 2
 54.666015625 593.668945312 50.3330078125 585.501953125 47 578.501953125 c 0
 43.6669921875 571.501953125 40.5 565.001953125 37.5 559.001953125 c 0
 34.5 553.001953125 31.3330078125 547.168945312 28 541.501953125 c 0
 24.6669921875 535.834960938 20.6669921875 529.66796875 16 523.000976562 c 1
 23.3330078125 525.66796875 29.8330078125 528.000976562 35.5 530.000976562 c 0
 41.1669921875 532.000976562 46.6669921875 534.16796875 52 536.500976562 c 0
 57.3330078125 538.833984375 63 541.833984375 69 545.500976562 c 0
 75 549.16796875 81.6669921875 554.000976562 89 560.000976562 c 2
 103 573.000976562 l 1
 140 492.000976562 l 1
 143.333007812 502.000976562 148 510.000976562 154 516.000976562 c 0
 157.333007812 521.333984375 160 525.666992188 162 529 c 0
 164 532.333007812 165.666992188 535.333007812 167 538 c 2
 179 553 l 1
 196 564 l 1
 144 617 l 1
EndSplineSet
EndChar

StartChar: plus
Encoding: 43 43 13
Width: 303
GlyphClass: 2
Flags: W
LayerCount: 2
Fore
SplineSet
193 407 m 1
 197.00390625 461.000976562 l 1
 196.00390625 464.000976562 l 1
 197.00390625 522.000976562 l 1
 193.00390625 547.000976562 l 1
 142.00390625 529.000976562 l 2
 136.670898438 525.66796875 131.00390625 523.66796875 125.00390625 523.000976562 c 0
 119.00390625 522.333984375 109.670898438 521.333984375 97.00390625 520.000976562 c 0
 96.3369140625 520.66796875 97.169921875 516.66796875 99.5029296875 508.000976562 c 0
 101.8359375 499.333984375 104.168945312 489.666992188 106.501953125 479 c 0
 108.834960938 468.333007812 111.16796875 458.666015625 113.500976562 449.999023438 c 0
 115.833984375 441.33203125 116.666992188 437.33203125 116 437.999023438 c 1
 116.666992188 432.666015625 117.333984375 427.666015625 118.000976562 422.999023438 c 0
 118.66796875 418.33203125 119.66796875 413.665039062 121.000976562 408.998046875 c 1
 15.0009765625 418.998046875 l 1
 12.0009765625 416.998046875 l 1
 22.0009765625 403.998046875 l 1
 26.0009765625 399.998046875 l 2
 28.66796875 397.331054688 30.66796875 394.998046875 32.0009765625 392.998046875 c 0
 34.0009765625 389.665039062 38.0009765625 385.998046875 44.0009765625 381.998046875 c 0
 50.0009765625 377.998046875 56.66796875 373.831054688 64.0009765625 369.498046875 c 0
 71.333984375 365.165039062 78.833984375 360.998046875 86.5009765625 356.998046875 c 0
 94.16796875 352.998046875 100.66796875 349.331054688 106.000976562 345.998046875 c 2
 131.000976562 336.998046875 l 1
 137.000976562 294.998046875 141.000976562 258.831054688 143.000976562 228.498046875 c 0
 145.000976562 198.165039062 146.66796875 169.665039062 148.000976562 142.998046875 c 1
 157.333984375 163.665039062 164.666992188 187.165039062 170 213.498046875 c 0
 175.333007812 239.831054688 180.333007812 266.998046875 185 294.998046875 c 2
 188 319.998046875 l 1
 285 289.998046875 l 1
 283.666992188 295.331054688 282.333984375 301.331054688 281.000976562 307.998046875 c 0
 279.66796875 314.665039062 279.000976562 321.33203125 279.000976562 327.999023438 c 0
 278.333984375 336.666015625 277.833984375 343.499023438 277.500976562 348.499023438 c 0
 277.16796875 353.499023438 277.000976562 357.666015625 277.000976562 360.999023438 c 0
 277.000976562 364.999023438 276.833984375 368.83203125 276.500976562 372.499023438 c 0
 276.16796875 376.166015625 276.000976562 381.333007812 276.000976562 388 c 2
 284.000976562 418 l 1
 204.000976562 409 l 2
 197.333984375 407.666992188 193.666992188 407 193 407 c 1
EndSplineSet
EndChar

StartChar: comma
Encoding: 44 44 14
Width: 142
GlyphClass: 2
Flags: W
LayerCount: 2
Fore
SplineSet
36 -36 m 2
 16.9951171875 -92.998046875 l 1
 36.328125 -79.6650390625 52.4951171875 -68.33203125 65.4951171875 -58.9990234375 c 0
 78.4951171875 -49.666015625 88.9951171875 -40.4990234375 96.9951171875 -31.4990234375 c 0
 104.995117188 -22.4990234375 111.328125 -12.4990234375 115.995117188 -1.4990234375 c 0
 120.662109375 9.5009765625 124.329101562 23.66796875 126.99609375 41.0009765625 c 0
 127.663085938 43.66796875 127.99609375 47.0009765625 127.99609375 51.0009765625 c 2
 127.99609375 61.0009765625 l 1
 127.99609375 66.0009765625 l 1
 127.99609375 68.0009765625 l 2
 127.99609375 71.333984375 127.663085938 73.333984375 126.99609375 74.0009765625 c 2
 126.99609375 75.0009765625 l 2
 126.99609375 75.66796875 126.329101562 76.0009765625 124.99609375 76.0009765625 c 0
 123.663085938 77.333984375 121.830078125 81.5009765625 119.497070312 88.5009765625 c 0
 117.1640625 95.5009765625 114.6640625 99.0009765625 111.997070312 99.0009765625 c 2
 78.9970703125 105.000976562 l 1
 75.9970703125 104.000976562 l 1
 71.9970703125 104.000976562 l 2
 68.6640625 104.000976562 64.1640625 103.66796875 58.4970703125 103.000976562 c 0
 52.830078125 102.333984375 47.330078125 101.333984375 41.9970703125 100.000976562 c 0
 36.6640625 98.66796875 31.8310546875 97.0009765625 27.498046875 95.0009765625 c 0
 23.1650390625 93.0009765625 20.6650390625 90.66796875 19.998046875 88.0009765625 c 2
 13.998046875 72.0009765625 l 1
 17.998046875 64.0009765625 21.8310546875 57.5009765625 25.498046875 52.5009765625 c 0
 29.1650390625 47.5009765625 32.33203125 42.66796875 34.9990234375 38.0009765625 c 0
 37.666015625 33.333984375 39.8330078125 28.333984375 41.5 23.0009765625 c 0
 43.1669921875 17.66796875 44 10.66796875 44 2.0009765625 c 0
 44 -8.666015625 41.3330078125 -21.3330078125 36 -36 c 2
EndSplineSet
EndChar

StartChar: hyphen
Encoding: 45 45 15
Width: 243
GlyphClass: 2
Flags: W
LayerCount: 2
Fore
SplineSet
22 280 m 1
 171.999023438 353.001953125 l 2
 183.33203125 359.668945312 191.999023438 367.001953125 197.999023438 375.001953125 c 0
 203.999023438 383.001953125 209.33203125 390.668945312 213.999023438 398.001953125 c 0
 214.666015625 398.668945312 215.499023438 400.8359375 216.499023438 404.502929688 c 0
 217.499023438 408.169921875 218.499023438 412.169921875 219.499023438 416.502929688 c 0
 220.499023438 420.8359375 221.499023438 424.668945312 222.499023438 428.001953125 c 0
 223.499023438 431.334960938 223.999023438 432.66796875 223.999023438 432.000976562 c 2
 117.999023438 405.000976562 l 2
 106.666015625 405.000976562 98.9990234375 405.16796875 94.9990234375 405.500976562 c 0
 90.9990234375 405.833984375 85.9990234375 406.666992188 79.9990234375 408 c 0
 79.33203125 408 78.33203125 408.333007812 76.9990234375 409 c 0
 75.666015625 409.666992188 74.3330078125 410 73 410 c 2
 20 414 l 1
 30 384 l 1
 30 368 l 2
 30 364.666992188 29.8330078125 361.166992188 29.5 357.5 c 0
 29.1669921875 353.833007812 29 349.333007812 29 344 c 2
 29 324 l 2
 29 316 28.1669921875 308.166992188 26.5 300.5 c 0
 24.8330078125 292.833007812 23.3330078125 286 22 280 c 1
EndSplineSet
EndChar

StartChar: period
Encoding: 46 46 16
Width: 142
GlyphClass: 2
Flags: W
LayerCount: 2
Fore
SplineSet
124 70 m 2
 123.999023438 83.0029296875 l 1
 115.999023438 102.002929688 l 1
 39.9990234375 121.002929688 l 1
 33.9990234375 116.3359375 30.166015625 112.668945312 28.4990234375 110.001953125 c 0
 26.83203125 107.334960938 25.33203125 101.66796875 23.9990234375 93.0009765625 c 2
 15.9990234375 38.0009765625 l 1
 14.9990234375 25.0009765625 l 1
 25.9990234375 0.0009765625 l 1
 35.9990234375 -3.33203125 46.83203125 -7.33203125 58.4990234375 -11.9990234375 c 0
 70.166015625 -16.666015625 79.666015625 -19.666015625 86.9990234375 -20.9990234375 c 0
 87.666015625 -20.9990234375 88.8330078125 -21.166015625 90.5 -21.4990234375 c 0
 92.1669921875 -21.83203125 93.6669921875 -21.9990234375 95 -21.9990234375 c 0
 99.6669921875 -21.9990234375 102.833984375 -19.666015625 104.500976562 -14.9990234375 c 0
 106.16796875 -10.33203125 107.66796875 -5.33203125 109.000976562 0.0009765625 c 2
 111.000976562 5.0009765625 l 2
 112.333984375 8.333984375 113.166992188 11.333984375 113.5 14.0009765625 c 0
 113.833007812 16.66796875 114.666015625 19.0009765625 115.999023438 21.0009765625 c 0
 118.666015625 30.333984375 120.333007812 36.6669921875 121 40 c 0
 121.666992188 43.3330078125 122 46.3330078125 122 49 c 0
 122 51.6669921875 122.333007812 54 123 56 c 0
 123.666992188 58 124 62.6669921875 124 70 c 2
EndSplineSet
EndChar

StartChar: slash
Encoding: 47 47 17
Width: 335
GlyphClass: 2
Flags: W
LayerCount: 2
Fore
SplineSet
179 308 m 2
 259.998046875 444 l 2
 266.665039062 452.666992188 273.83203125 464 281.499023438 478 c 0
 289.166015625 492 296.166015625 506.666992188 302.499023438 522 c 0
 308.83203125 537.333007812 313.999023438 552.666015625 317.999023438 567.999023438 c 0
 321.999023438 583.33203125 323.999023438 596.665039062 323.999023438 607.998046875 c 0
 322.666015625 616.665039062 321.499023438 621.998046875 320.499023438 623.998046875 c 2
 316.999023438 630.998046875 l 2
 316.33203125 631.665039062 315.999023438 632.33203125 315.999023438 632.999023438 c 2
 313.999023438 634.999023438 l 1
 291.499023438 657.499023438 l 2
 283.166015625 665.83203125 274.499023438 673.83203125 265.499023438 681.499023438 c 0
 256.499023438 689.166015625 247.33203125 695.499023438 237.999023438 700.499023438 c 0
 228.666015625 705.499023438 219.666015625 707.999023438 210.999023438 707.999023438 c 2
 203.999023438 706.999023438 l 2
 202.666015625 706.33203125 201.333007812 704.83203125 200 702.499023438 c 0
 198.666992188 700.166015625 197.333984375 697.999023438 196.000976562 695.999023438 c 2
 196.000976562 685.999023438 l 2
 196.000976562 679.999023438 196.333984375 676.666015625 197.000976562 675.999023438 c 0
 198.333984375 662.666015625 199.333984375 647.666015625 200.000976562 630.999023438 c 0
 200.66796875 614.33203125 201.000976562 596.665039062 201.000976562 577.998046875 c 0
 201.000976562 560.665039062 200.16796875 542.83203125 198.500976562 524.499023438 c 0
 196.833984375 506.166015625 191.833984375 484.999023438 183.500976562 460.999023438 c 0
 175.16796875 436.999023438 162.66796875 409.33203125 146.000976562 377.999023438 c 0
 129.333984375 346.666015625 106.000976562 309.666015625 76.0009765625 266.999023438 c 0
 69.333984375 257.666015625 62.1669921875 246.166015625 54.5 232.499023438 c 0
 46.8330078125 218.83203125 39.8330078125 204.33203125 33.5 188.999023438 c 0
 27.1669921875 173.666015625 22 158.333007812 18 143 c 0
 14 127.666992188 12 114.333984375 12 103.000976562 c 2
 13 87.0009765625 l 1
 17 82.0009765625 l 1
 40.5 58.5009765625 l 2
 49.5 49.5009765625 59 40.833984375 69 32.5009765625 c 0
 79 24.16796875 89 17.16796875 99 11.5009765625 c 0
 109 5.833984375 118.333007812 3.0009765625 127 3.0009765625 c 2
 133 3.0009765625 l 2
 134.333007812 3.66796875 135.666015625 5.16796875 136.999023438 7.5009765625 c 0
 138.33203125 9.833984375 139.665039062 12.0009765625 140.998046875 14.0009765625 c 2
 139.998046875 41.0009765625 l 2
 138.665039062 53.0009765625 137.83203125 66.5009765625 137.499023438 81.5009765625 c 0
 137.166015625 96.5009765625 136.999023438 111.66796875 136.999023438 127.000976562 c 0
 136.999023438 145.000976562 137.499023438 163.16796875 138.499023438 181.500976562 c 0
 139.499023438 199.833984375 141.499023438 217.166992188 144.499023438 233.5 c 0
 147.499023438 249.833007812 151.83203125 264.5 157.499023438 277.5 c 0
 163.166015625 290.5 170.333007812 300.666992188 179 308 c 2
EndSplineSet
EndChar

StartChar: zero
Encoding: 48 48 18
Width: 342
GlyphClass: 2
Flags: W
LayerCount: 2
Fore
SplineSet
326 423 m 0
 326 443.666992188 324.834960938 467 322.501953125 493 c 0
 320.168945312 519 316.168945312 544.833007812 310.501953125 570.5 c 0
 304.834960938 596.166992188 297.16796875 620.5 287.500976562 643.5 c 0
 277.833984375 666.5 265.666992188 685.333007812 251 700 c 1
 251.666992188 697.333007812 252 694.666015625 252 691.999023438 c 2
 252 685.999023438 l 1
 252 674.999023438 l 2
 252 668.999023438 251.5 663.499023438 250.5 658.499023438 c 0
 249.5 653.499023438 247.333007812 647.999023438 244 641.999023438 c 0
 242.666992188 639.999023438 241.333984375 637.83203125 240.000976562 635.499023438 c 0
 238.66796875 633.166015625 237.66796875 632.333007812 237.000976562 633 c 2
 142.000976562 726 l 1
 128.000976562 717 l 2
 85.333984375 689 56.333984375 652 41.0009765625 606 c 0
 25.66796875 560 18.0009765625 507 18.0009765625 447 c 0
 18.0009765625 388.333007812 25.66796875 332.833007812 41.0009765625 280.5 c 0
 56.333984375 228.166992188 76.333984375 177 101.000976562 127 c 0
 101.000976562 126.333007812 101.16796875 125 101.500976562 123 c 0
 101.833984375 121 102.000976562 119.333007812 102.000976562 118 c 0
 102.000976562 110.666992188 99.5009765625 105.5 94.5009765625 102.5 c 0
 89.5009765625 99.5 87.0009765625 94.6669921875 87.0009765625 88 c 0
 87.0009765625 82 91.16796875 74.3330078125 99.5009765625 65 c 0
 107.833984375 55.6669921875 117.666992188 46.5 129 37.5 c 0
 140.333007812 28.5 151.833007812 20.5 163.5 13.5 c 0
 175.166992188 6.5 184 2 190 0 c 2
 191 -0.5 l 2
 191.666992188 -0.8330078125 192.333984375 -1 193.000976562 -1 c 0
 194.333984375 -1 195.166992188 -0.8330078125 195.5 -0.5 c 2
 196 0 l 1
 210 17 l 1
 244 79 271.833007812 143 293.5 209 c 0
 315.166992188 275 326 346.333007812 326 423 c 0
246.001953125 516 m 2
 246.001953125 502 245.00390625 483.833984375 243.00390625 461.500976562 c 0
 241.00390625 439.16796875 237.836914062 415.16796875 233.50390625 389.500976562 c 0
 229.170898438 363.833984375 223.837890625 338.000976562 217.504882812 312.000976562 c 0
 211.171875 286.000976562 203.671875 262.500976562 195.004882812 241.500976562 c 0
 186.337890625 220.500976562 176.670898438 203.333984375 166.00390625 190.000976562 c 0
 155.336914062 176.66796875 143.669921875 170.000976562 131.002929688 170.000976562 c 0
 125.002929688 170.000976562 120.3359375 172.333984375 117.002929688 177.000976562 c 0
 113.669921875 181.66796875 111.169921875 187.500976562 109.502929688 194.500976562 c 0
 107.8359375 201.500976562 106.668945312 209.333984375 106.001953125 218.000976562 c 0
 105.334960938 226.66796875 105.001953125 235.334960938 105.001953125 244.001953125 c 0
 105.001953125 253.334960938 105.168945312 261.834960938 105.501953125 269.501953125 c 0
 105.834960938 277.168945312 106.001953125 283.001953125 106.001953125 287.001953125 c 0
 106.001953125 302.334960938 106.501953125 320.66796875 107.501953125 342.000976562 c 0
 108.501953125 363.333984375 110.334960938 385.500976562 113.001953125 408.500976562 c 0
 115.668945312 431.500976562 119.668945312 454.16796875 125.001953125 476.500976562 c 0
 130.334960938 498.833984375 137.334960938 519.000976562 146.001953125 537.000976562 c 0
 154.668945312 555.000976562 165.168945312 569.500976562 177.501953125 580.500976562 c 0
 189.834960938 591.500976562 204.334960938 597.000976562 221.001953125 597.000976562 c 0
 228.334960938 597.000976562 233.501953125 594.66796875 236.501953125 590.000976562 c 0
 239.501953125 585.333984375 242.334960938 578.666992188 245.001953125 570 c 2
 246.001953125 559 l 1
 246.001953125 516 l 2
EndSplineSet
EndChar

StartChar: one
Encoding: 49 49 19
Width: 160
GlyphClass: 2
Flags: W
LayerCount: 2
Fore
SplineSet
138 489 m 2
 138.000976562 560.998046875 l 2
 138.000976562 572.331054688 137.500976562 583.998046875 136.500976562 595.998046875 c 0
 135.500976562 607.998046875 133.66796875 623.998046875 131.000976562 643.998046875 c 2
 129.500976562 652.998046875 l 2
 128.500976562 658.998046875 127.333984375 665.498046875 126.000976562 672.498046875 c 0
 124.66796875 679.498046875 123.16796875 685.831054688 121.500976562 691.498046875 c 0
 119.833984375 697.165039062 117.666992188 699.998046875 115 699.998046875 c 2
 111 699.998046875 l 1
 9 662.998046875 l 1
 17 627.998046875 l 2
 19 609.331054688 21 586.331054688 23 558.998046875 c 0
 25 531.665039062 26.8330078125 503.33203125 28.5 473.999023438 c 0
 30.1669921875 444.666015625 32 415.999023438 34 387.999023438 c 0
 36 359.999023438 38 335.999023438 40 315.999023438 c 2
 41 308.999023438 l 1
 41 73.9990234375 l 1
 36 38.9990234375 l 1
 36 -2.0009765625 l 1
 58 21.9990234375 75.8330078125 54.33203125 89.5 94.9990234375 c 0
 103.166992188 135.666015625 113.5 178.999023438 120.5 224.999023438 c 0
 127.5 270.999023438 132.166992188 317.33203125 134.5 363.999023438 c 0
 136.833007812 410.666015625 138 452.333007812 138 489 c 2
EndSplineSet
EndChar

StartChar: two
Encoding: 50 50 20
Width: 357
GlyphClass: 2
Flags: W
LayerCount: 2
Fore
SplineSet
342 80 m 0
 342 94 340.661132812 111.170898438 337.994140625 131.50390625 c 0
 335.327148438 151.836914062 331.994140625 172.169921875 327.994140625 192.502929688 c 0
 323.994140625 212.8359375 319.327148438 231.668945312 313.994140625 249.001953125 c 0
 308.661132812 266.334960938 303.328125 279.334960938 297.995117188 288.001953125 c 1
 295.995117188 288.001953125 l 1
 292.662109375 284.001953125 289.329101562 278.168945312 285.99609375 270.501953125 c 0
 282.663085938 262.834960938 279.163085938 254.501953125 275.49609375 245.501953125 c 0
 271.829101562 236.501953125 268.329101562 227.834960938 264.99609375 219.501953125 c 0
 261.663085938 211.168945312 258.663085938 204.668945312 255.99609375 200.001953125 c 0
 246.663085938 184.001953125 238.49609375 168.834960938 231.49609375 154.501953125 c 0
 224.49609375 140.168945312 217.163085938 127.668945312 209.49609375 117.001953125 c 0
 201.829101562 106.334960938 193.329101562 97.8349609375 183.99609375 91.501953125 c 0
 174.663085938 85.1689453125 163.330078125 82.001953125 149.997070312 82.001953125 c 0
 147.330078125 82.001953125 145.997070312 83.6689453125 145.997070312 87.001953125 c 0
 145.997070312 159.668945312 152.1640625 220.8359375 164.497070312 270.502929688 c 0
 176.830078125 320.169921875 198.997070312 356.669921875 230.997070312 380.002929688 c 0
 265.6640625 406.669921875 303.331054688 420.002929688 343.998046875 420.002929688 c 1
 343.998046875 429.3359375 343.165039062 439.502929688 341.498046875 450.502929688 c 0
 339.831054688 461.502929688 337.331054688 470.669921875 333.998046875 478.002929688 c 2
 332.998046875 481.002929688 l 2
 320.331054688 520.3359375 304.498046875 553.3359375 285.498046875 580.002929688 c 0
 266.498046875 606.669921875 245.665039062 628.336914062 222.998046875 645.00390625 c 0
 200.331054688 661.670898438 176.831054688 673.50390625 152.498046875 680.50390625 c 0
 128.165039062 687.50390625 103.998046875 691.00390625 79.998046875 691.00390625 c 0
 73.998046875 691.00390625 68.8310546875 681.00390625 64.498046875 661.00390625 c 0
 60.1650390625 641.00390625 56.83203125 618.00390625 54.4990234375 592.00390625 c 0
 52.166015625 566.00390625 50.4990234375 540.670898438 49.4990234375 516.00390625 c 0
 48.4990234375 491.336914062 47.9990234375 474.00390625 47.9990234375 464.00390625 c 1
 48.9990234375 464.50390625 l 2
 49.666015625 464.836914062 49.9990234375 465.336914062 49.9990234375 466.00390625 c 0
 59.9990234375 474.670898438 69.666015625 483.837890625 78.9990234375 493.504882812 c 0
 88.33203125 503.171875 97.83203125 512.171875 107.499023438 520.504882812 c 0
 117.166015625 528.837890625 126.999023438 535.670898438 136.999023438 541.00390625 c 0
 146.999023438 546.336914062 157.666015625 549.00390625 168.999023438 549.00390625 c 0
 190.999023438 549.00390625 209.666015625 543.836914062 224.999023438 533.50390625 c 0
 240.33203125 523.170898438 257.33203125 508.00390625 275.999023438 488.00390625 c 2
 279.999023438 484.00390625 l 1
 280.999023438 475.00390625 l 2
 280.999023438 473.670898438 280.666015625 473.00390625 279.999023438 473.00390625 c 0
 274.666015625 467.670898438 267.999023438 464.337890625 259.999023438 463.004882812 c 0
 251.999023438 461.671875 243.999023438 461.004882812 235.999023438 461.004882812 c 2
 225.999023438 460.004882812 l 2
 224.666015625 460.004882812 221.833007812 459.337890625 217.5 458.004882812 c 0
 213.166992188 456.671875 208.666992188 455.171875 204 453.504882812 c 0
 199.333007812 451.837890625 194.833007812 450.170898438 190.5 448.50390625 c 0
 186.166992188 446.836914062 183.333984375 445.669921875 182.000976562 445.002929688 c 0
 174.000976562 437.669921875 167.000976562 432.336914062 161.000976562 429.00390625 c 0
 155.000976562 425.670898438 147.333984375 420.670898438 138.000976562 414.00390625 c 0
 127.333984375 406.00390625 117.166992188 392.670898438 107.5 374.00390625 c 0
 97.8330078125 355.336914062 88.666015625 334.669921875 79.9990234375 312.002929688 c 0
 71.33203125 289.3359375 62.9990234375 266.668945312 54.9990234375 244.001953125 c 0
 46.9990234375 221.334960938 39.33203125 201.66796875 31.9990234375 185.000976562 c 0
 30.666015625 182.333984375 28.3330078125 177.333984375 25 170.000976562 c 0
 21.6669921875 162.66796875 20 158.000976562 20 156.000976562 c 2
 14 136.000976562 l 2
 14 135.333984375 13.8330078125 134.666992188 13.5 134 c 2
 13 133 l 2
 13 131.666992188 13.1669921875 128 13.5 122 c 2
 14 113 l 2
 18 85.6669921875 24 64.333984375 32 49.0009765625 c 0
 40 33.66796875 49.3330078125 22.16796875 60 14.5009765625 c 0
 70.6669921875 6.833984375 82.333984375 2.0009765625 95.0009765625 0.0009765625 c 0
 107.66796875 -1.9990234375 121.000976562 -2.9990234375 135.000976562 -2.9990234375 c 2
 197.000976562 -2.9990234375 l 2
 209.000976562 -0.9990234375 216.333984375 0.0009765625 219.000976562 0.0009765625 c 2
 223.000976562 0.0009765625 l 2
 224.333984375 0.0009765625 227.666992188 0.5009765625 233 1.5009765625 c 0
 238.333007812 2.5009765625 243.333007812 3.66796875 248 5.0009765625 c 0
 251.333007812 5.66796875 253.5 6.3349609375 254.5 7.001953125 c 0
 255.5 7.6689453125 259.333007812 9.001953125 266 11.001953125 c 2
 273.5 14.001953125 l 2
 275.166992188 14.6689453125 276.666992188 16.001953125 278 18.001953125 c 0
 279.333007812 18.001953125 282.166015625 19.001953125 286.499023438 21.001953125 c 0
 290.83203125 23.001953125 293.999023438 24.6689453125 295.999023438 26.001953125 c 0
 297.33203125 27.3349609375 299.83203125 29.66796875 303.499023438 33.0009765625 c 0
 307.166015625 36.333984375 310.333007812 38.6669921875 313 40 c 2
 320 46 l 2
 324.666992188 51.3330078125 329.5 56.5 334.5 61.5 c 0
 339.5 66.5 342 72.6669921875 342 80 c 0
EndSplineSet
EndChar

StartChar: three
Encoding: 51 51 21
Width: 344
GlyphClass: 2
Flags: W
LayerCount: 2
Fore
SplineSet
226 365 m 1
 235.998046875 367.000976562 l 1
 227.998046875 343.66796875 218.331054688 322.66796875 206.998046875 304.000976562 c 0
 184.331054688 268.000976562 157.831054688 242.66796875 127.498046875 228.000976562 c 0
 97.1650390625 213.333984375 64.998046875 204.666992188 30.998046875 202 c 1
 30.998046875 197 l 2
 30.998046875 183.666992188 31.998046875 169 33.998046875 153 c 0
 35.998046875 137 38.1650390625 120.833007812 40.498046875 104.5 c 0
 42.8310546875 88.1669921875 45.3310546875 72 47.998046875 56 c 0
 50.6650390625 40 52.6650390625 25.6669921875 53.998046875 13 c 2
 55.998046875 8 l 2
 57.3310546875 4 57.998046875 1.6669921875 57.998046875 1 c 0
 57.998046875 -0.3330078125 59.6650390625 -1 62.998046875 -1 c 0
 82.998046875 -1 103.331054688 3.3330078125 123.998046875 12 c 0
 144.665039062 20.6669921875 164.165039062 32.6669921875 182.498046875 48 c 0
 200.831054688 63.3330078125 217.498046875 81.3330078125 232.498046875 102 c 0
 247.498046875 122.666992188 259.331054688 145 267.998046875 169 c 0
 279.998046875 203 288.165039062 237.166992188 292.498046875 271.5 c 0
 296.831054688 305.833007812 298.998046875 341 298.998046875 377 c 2
 298.998046875 383 l 1
 311.998046875 386 l 2
 311.998046875 388.666992188 312.165039062 391.5 312.498046875 394.5 c 0
 312.831054688 397.5 312.998046875 401.666992188 312.998046875 407 c 0
 312.998046875 410.333007812 313.165039062 413.833007812 313.498046875 417.5 c 0
 313.831054688 421.166992188 313.998046875 423.333984375 313.998046875 424.000976562 c 2
 340.998046875 455.000976562 l 2
 342.331054688 457.000976562 344.498046875 460.000976562 347.498046875 464.000976562 c 2
 351.998046875 470.000976562 l 1
 348.998046875 480.000976562 l 1
 346.998046875 482.000976562 l 1
 337.998046875 482.000976562 l 2
 332.665039062 482.000976562 326.83203125 481.66796875 320.499023438 481.000976562 c 0
 314.166015625 480.333984375 310.333007812 479.333984375 309 478.000976562 c 2
 292 474.000976562 l 1
 290.666992188 484.000976562 289 493.833984375 287 503.500976562 c 0
 285 513.16796875 283 523.66796875 281 535.000976562 c 2
 281 539.000976562 l 1
 287.666992188 539.000976562 291.666992188 538.000976562 293 536.000976562 c 0
 294.333007812 534.000976562 297.666015625 531.333984375 302.999023438 528.000976562 c 1
 299.666015625 541.333984375 294.499023438 553.000976562 287.499023438 563.000976562 c 0
 280.499023438 573.000976562 273.666015625 583.333984375 266.999023438 594.000976562 c 0
 264.999023438 596.000976562 263.166015625 600.833984375 261.499023438 608.500976562 c 0
 259.83203125 616.16796875 257.999023438 624.000976562 255.999023438 632.000976562 c 0
 253.999023438 640.000976562 251.83203125 647.333984375 249.499023438 654.000976562 c 0
 247.166015625 660.66796875 244.333007812 664.000976562 241 664.000976562 c 1
 244 607.000976562 l 2
 244 603.000976562 242.666992188 601.000976562 240 601.000976562 c 1
 240 600.000976562 l 2
 240 599.333984375 239.666992188 599.333984375 239 600.000976562 c 0
 213.666992188 628.000976562 186.5 651.500976562 157.5 670.500976562 c 0
 128.5 689.500976562 97 699.000976562 63 699.000976562 c 0
 53.6669921875 699.000976562 46.333984375 698.66796875 41.0009765625 698.000976562 c 0
 35.66796875 697.333984375 27.3349609375 695.333984375 16.001953125 692.000976562 c 0
 14.6689453125 692.000976562 13.6689453125 690.66796875 13.001953125 688.000976562 c 0
 12.3349609375 684.66796875 11.8349609375 681.000976562 11.501953125 677.000976562 c 0
 11.1689453125 673.000976562 11.001953125 668.66796875 11.001953125 664.000976562 c 2
 11.001953125 611.000976562 l 1
 12.001953125 607.000976562 l 2
 12.001953125 604.333984375 13.1689453125 597.500976562 15.501953125 586.500976562 c 0
 17.8349609375 575.500976562 20.66796875 564.000976562 24.0009765625 552.000976562 c 0
 27.333984375 540.000976562 31.1669921875 529.16796875 35.5 519.500976562 c 0
 39.8330078125 509.833984375 44 505.000976562 48 505.000976562 c 2
 50 506.000976562 l 1
 74 527.333984375 97.5 543.166992188 120.5 553.5 c 0
 143.5 563.833007812 170 569 200 569 c 0
 213.333007812 569 223.666015625 568.5 230.999023438 567.5 c 0
 238.33203125 566.5 243.83203125 563.5 247.499023438 558.5 c 0
 251.166015625 553.5 253.333007812 546 254 536 c 0
 254.666992188 526 255 512 255 494 c 0
 255 488.666992188 254.833007812 483.666992188 254.5 479 c 0
 254.166992188 474.333007812 253.666992188 469.333007812 253 464 c 1
 188 449 l 2
 176 449 164 449.5 152 450.5 c 0
 140 451.5 130.666992188 452.666992188 124 454 c 2
 71 466 l 1
 69 459 l 1
 70.3330078125 445.666992188 71.666015625 429 72.9990234375 409 c 0
 74.33203125 389 74.9990234375 369 74.9990234375 349 c 0
 74.9990234375 341 74.83203125 333.333007812 74.4990234375 326 c 0
 74.166015625 318.666992188 73.3330078125 312 72 306 c 1
 98 314 123.833007812 322.666992188 149.5 332 c 0
 175.166992188 341.333007812 200.666992188 352.333007812 226 365 c 1
EndSplineSet
EndChar

StartChar: four
Encoding: 52 52 22
Width: 389
GlyphClass: 2
Flags: W
LayerCount: 2
Fore
SplineSet
27 400 m 0
 25 397.333007812 21.33203125 392.497070312 15.9990234375 385.497070312 c 0
 10.666015625 378.497070312 7.3330078125 372.997070312 6 368.997070312 c 2
 5.5 367.497070312 l 2
 5.1669921875 366.497070312 5 365.330078125 5 363.997070312 c 0
 5 363.330078125 5.1669921875 362.497070312 5.5 361.497070312 c 2
 6 359.997070312 l 2
 6.6669921875 359.330078125 8.333984375 356.997070312 11.0009765625 352.997070312 c 0
 13.66796875 348.997070312 16.5009765625 344.497070312 19.5009765625 339.497070312 c 0
 22.5009765625 334.497070312 25.5009765625 329.997070312 28.5009765625 325.997070312 c 0
 31.5009765625 321.997070312 33.333984375 319.997070312 34.0009765625 319.997070312 c 0
 43.333984375 316.6640625 52.1669921875 314.331054688 60.5 312.998046875 c 0
 68.8330078125 311.665039062 77.166015625 310.498046875 85.4990234375 309.498046875 c 0
 93.83203125 308.498046875 102.83203125 307.331054688 112.499023438 305.998046875 c 0
 122.166015625 304.665039062 133.333007812 302.665039062 146 299.998046875 c 2
 252 299.998046875 l 1
 221 89.998046875 l 2
 219.666992188 85.998046875 218.333984375 79.3310546875 217.000976562 69.998046875 c 0
 215.66796875 60.6650390625 215.000976562 53.998046875 215.000976562 49.998046875 c 2
 214.000976562 38.998046875 l 2
 214.000976562 30.998046875 219.333984375 24.498046875 230.000976562 19.498046875 c 0
 240.66796875 14.498046875 252.834960938 10.498046875 266.501953125 7.498046875 c 0
 280.168945312 4.498046875 293.501953125 2.498046875 306.501953125 1.498046875 c 0
 319.501953125 0.498046875 328.334960938 -0.001953125 333.001953125 -0.001953125 c 2
 349.001953125 -0.001953125 l 1
 352.334960938 21.3310546875 354.334960938 38.8310546875 355.001953125 52.498046875 c 0
 355.668945312 66.1650390625 356.001953125 79.6650390625 356.001953125 92.998046875 c 2
 356.001953125 123.998046875 l 1
 356.001953125 149.998046875 l 2
 356.001953125 156.665039062 355.834960938 167.83203125 355.501953125 183.499023438 c 0
 355.168945312 199.166015625 354.668945312 215.666015625 354.001953125 232.999023438 c 0
 353.334960938 250.33203125 352.501953125 266.83203125 351.501953125 282.499023438 c 0
 350.501953125 298.166015625 349.668945312 308.999023438 349.001953125 314.999023438 c 1
 377.001953125 314.999023438 l 1
 377.001953125 320.999023438 l 2
 377.001953125 325.666015625 376.668945312 328.333007812 376.001953125 329 c 2
 364.001953125 400 l 1
 370.001953125 483 l 1
 367.334960938 480.333007812 362.66796875 479 356.000976562 479 c 2
 352.000976562 479 l 2
 344.000976562 481 336.833984375 487.666992188 330.500976562 499 c 0
 324.16796875 510.333007812 318.334960938 523.666015625 313.001953125 538.999023438 c 0
 307.668945312 554.33203125 302.3359375 570.999023438 297.002929688 588.999023438 c 0
 291.669921875 606.999023438 285.836914062 623.33203125 279.50390625 637.999023438 c 0
 273.170898438 652.666015625 266.00390625 664.999023438 258.00390625 674.999023438 c 0
 250.00390625 684.999023438 240.670898438 689.999023438 230.00390625 689.999023438 c 2
 223.00390625 688.999023438 l 1
 229.670898438 652.33203125 233.670898438 616.999023438 235.00390625 582.999023438 c 0
 236.336914062 548.999023438 237.00390625 515.999023438 237.00390625 483.999023438 c 2
 237.00390625 438.999023438 l 1
 233.00390625 429.666015625 227.00390625 421.833007812 219.00390625 415.5 c 0
 211.00390625 409.166992188 202.50390625 404.166992188 193.50390625 400.5 c 0
 184.50390625 396.833007812 175.50390625 394.166015625 166.50390625 392.499023438 c 0
 157.50390625 390.83203125 150.00390625 389.999023438 144.00390625 389.999023438 c 2
 136.00390625 389.999023438 l 1
 136.670898438 395.999023438 138.00390625 408.666015625 140.00390625 427.999023438 c 0
 142.00390625 447.33203125 144.00390625 467.999023438 146.00390625 489.999023438 c 0
 148.00390625 511.999023438 150.00390625 532.499023438 152.00390625 551.499023438 c 0
 154.00390625 570.499023438 155.670898438 582.999023438 157.00390625 588.999023438 c 0
 157.670898438 598.33203125 158.50390625 605.33203125 159.50390625 609.999023438 c 0
 160.50390625 614.666015625 161.336914062 618.166015625 162.00390625 620.499023438 c 0
 162.670898438 622.83203125 163.337890625 624.83203125 164.004882812 626.499023438 c 0
 164.671875 628.166015625 165.004882812 630.666015625 165.004882812 633.999023438 c 0
 165.004882812 635.33203125 164.837890625 637.33203125 164.504882812 639.999023438 c 0
 164.171875 642.666015625 164.004882812 645.666015625 164.004882812 648.999023438 c 2
 164.004882812 668.999023438 l 1
 163.004882812 669.499023438 l 2
 162.337890625 669.83203125 161.337890625 669.999023438 160.004882812 669.999023438 c 0
 156.004882812 671.999023438 149.504882812 674.499023438 140.504882812 677.499023438 c 0
 131.504882812 680.499023438 122.171875 683.499023438 112.504882812 686.499023438 c 0
 102.837890625 689.499023438 93.6708984375 692.166015625 85.00390625 694.499023438 c 0
 76.3369140625 696.83203125 70.669921875 698.33203125 68.0029296875 698.999023438 c 2
 65.0029296875 699.499023438 l 2
 63.0029296875 699.83203125 61.3359375 699.999023438 60.0029296875 699.999023438 c 0
 55.3359375 699.999023438 52.6689453125 699.33203125 52.001953125 697.999023438 c 0
 51.3349609375 696.666015625 50.3349609375 692.999023438 49.001953125 686.999023438 c 2
 48.001953125 682.999023438 l 1
 48.001953125 678.999023438 l 1
 44.001953125 654.33203125 40.6689453125 630.83203125 38.001953125 608.499023438 c 0
 35.3349609375 586.166015625 33.16796875 563.833007812 31.5009765625 541.5 c 0
 29.833984375 519.166992188 28.6669921875 496.5 28 473.5 c 0
 27.3330078125 450.5 27 426 27 400 c 0
EndSplineSet
EndChar

StartChar: five
Encoding: 53 53 23
Width: 355
GlyphClass: 2
Flags: W
LayerCount: 2
Fore
SplineSet
340 610 m 0
 340 617.333007812 337.66796875 623.495117188 333.000976562 628.495117188 c 0
 328.333984375 633.495117188 323.666992188 638.662109375 319 643.995117188 c 2
 312 649.995117188 l 2
 303.333007812 653.328125 297.166015625 657.828125 293.499023438 663.495117188 c 0
 289.83203125 669.162109375 283.999023438 671.995117188 275.999023438 671.995117188 c 0
 274.666015625 673.995117188 273.166015625 675.328125 271.499023438 675.995117188 c 2
 263.999023438 678.995117188 l 2
 257.999023438 680.995117188 254.33203125 682.328125 252.999023438 682.995117188 c 0
 251.666015625 683.662109375 249.666015625 684.329101562 246.999023438 684.99609375 c 0
 241.666015625 686.329101562 236.333007812 687.49609375 231 688.49609375 c 0
 225.666992188 689.49609375 222.333984375 689.99609375 221.000976562 689.99609375 c 2
 217.000976562 690.99609375 l 1
 94.0009765625 690.99609375 l 2
 79.333984375 690.99609375 68.333984375 692.329101562 61.0009765625 694.99609375 c 0
 53.66796875 697.663085938 48.0009765625 698.99609375 44.0009765625 698.99609375 c 0
 40.0009765625 698.99609375 37.16796875 696.663085938 35.5009765625 691.99609375 c 0
 33.833984375 687.329101562 32.0009765625 678.329101562 30.0009765625 664.99609375 c 2
 11.0009765625 534.99609375 l 1
 11.0009765625 473.99609375 l 1
 16.0009765625 455.99609375 l 2
 16.0009765625 453.99609375 17.66796875 449.329101562 21.0009765625 441.99609375 c 0
 24.333984375 434.663085938 26.6669921875 429.663085938 28 426.99609375 c 0
 45.3330078125 385.663085938 65.666015625 354.830078125 88.9990234375 334.497070312 c 0
 112.33203125 314.1640625 137.33203125 297.6640625 163.999023438 284.997070312 c 0
 165.999023438 284.330078125 169.166015625 283.330078125 173.499023438 281.997070312 c 0
 177.83203125 280.6640625 182.665039062 279.497070312 187.998046875 278.497070312 c 0
 193.331054688 277.497070312 198.831054688 276.6640625 204.498046875 275.997070312 c 0
 210.165039062 275.330078125 214.998046875 274.997070312 218.998046875 274.997070312 c 0
 226.998046875 274.997070312 234.998046875 274.330078125 242.998046875 272.997070312 c 0
 250.998046875 271.6640625 257.665039062 268.331054688 262.998046875 262.998046875 c 0
 263.665039062 262.998046875 263.998046875 262.331054688 263.998046875 260.998046875 c 2
 261.998046875 251.998046875 l 1
 252.665039062 241.331054688 243.998046875 230.331054688 235.998046875 218.998046875 c 0
 227.998046875 207.665039062 219.998046875 197.33203125 211.998046875 187.999023438 c 0
 203.998046875 178.666015625 195.498046875 170.999023438 186.498046875 164.999023438 c 0
 177.498046875 158.999023438 167.331054688 155.999023438 155.998046875 155.999023438 c 0
 133.998046875 155.999023438 113.831054688 161.999023438 95.498046875 173.999023438 c 0
 77.1650390625 185.999023438 58.33203125 200.999023438 38.9990234375 218.999023438 c 0
 38.9990234375 219.666015625 38.4990234375 220.166015625 37.4990234375 220.499023438 c 2
 35.9990234375 220.999023438 l 1
 35.9990234375 210.999023438 37.33203125 193.83203125 39.9990234375 169.499023438 c 0
 42.666015625 145.166015625 46.3330078125 120.333007812 51 95 c 0
 55.6669921875 69.6669921875 61 47.333984375 67 28.0009765625 c 0
 73 8.66796875 79 -0.9990234375 85 -0.9990234375 c 0
 133.666992188 -0.9990234375 178.666992188 20.333984375 220 63.0009765625 c 0
 261.333007812 105.66796875 294.666015625 166.334960938 319.999023438 245.001953125 c 0
 321.999023438 249.001953125 323.666015625 254.501953125 324.999023438 261.501953125 c 0
 326.33203125 268.501953125 327.499023438 275.668945312 328.499023438 283.001953125 c 0
 329.499023438 290.334960938 330.166015625 297.66796875 330.499023438 305.000976562 c 0
 330.83203125 312.333984375 330.999023438 318.333984375 330.999023438 323.000976562 c 1
 311.666015625 323.000976562 292.499023438 325.333984375 273.499023438 330.000976562 c 0
 254.499023438 334.66796875 235.999023438 343.66796875 217.999023438 357.000976562 c 0
 201.999023438 368.333984375 187.999023438 380.833984375 175.999023438 394.500976562 c 0
 163.999023438 408.16796875 153.83203125 424.500976562 145.499023438 443.500976562 c 0
 137.166015625 462.500976562 130.833007812 485.000976562 126.5 511.000976562 c 0
 122.166992188 537.000976562 120 567.66796875 120 603.000976562 c 0
 120 606.333984375 121.333007812 608.000976562 124 608.000976562 c 0
 138 608.000976562 151.166992188 607.000976562 163.5 605.000976562 c 0
 175.833007812 603.000976562 187.5 599.16796875 198.5 593.500976562 c 0
 209.5 587.833984375 220 579.833984375 230 569.500976562 c 0
 240 559.16796875 249.666992188 546.000976562 259 530.000976562 c 0
 264.333007812 520.000976562 270 507.500976562 276 492.500976562 c 0
 282 477.500976562 288 466.333984375 294 459.000976562 c 1
 296 459.000976562 l 1
 307.333007812 476.333984375 317.5 498.666992188 326.5 526 c 0
 335.5 553.333007812 340 581.333007812 340 610 c 0
EndSplineSet
EndChar

StartChar: six
Encoding: 54 54 24
Width: 362
GlyphClass: 2
Flags: W
LayerCount: 2
Fore
SplineSet
180 374 m 0
 174.666992188 370.666992188 169.16015625 366 163.493164062 360 c 0
 157.826171875 354 152.326171875 347.5 146.993164062 340.5 c 0
 141.66015625 333.5 136.827148438 326.833007812 132.494140625 320.5 c 0
 128.161132812 314.166992188 124.994140625 309.333984375 122.994140625 306.000976562 c 1
 119.661132812 320.66796875 117.328125 335.834960938 115.995117188 351.501953125 c 0
 114.662109375 367.168945312 113.995117188 383.001953125 113.995117188 399.001953125 c 0
 113.995117188 407.668945312 115.162109375 421.668945312 117.495117188 441.001953125 c 0
 119.828125 460.334960938 122.995117188 480.001953125 126.995117188 500.001953125 c 0
 130.995117188 520.001953125 135.995117188 538.001953125 141.995117188 554.001953125 c 0
 147.995117188 570.001953125 154.995117188 579.001953125 162.995117188 581.001953125 c 0
 163.662109375 581.668945312 165.329101562 582.001953125 167.99609375 582.001953125 c 0
 176.663085938 582.001953125 186.99609375 578.001953125 198.99609375 570.001953125 c 0
 210.99609375 562.001953125 222.99609375 552.668945312 234.99609375 542.001953125 c 0
 246.99609375 531.334960938 257.829101562 520.66796875 267.49609375 510.000976562 c 0
 277.163085938 499.333984375 283.99609375 491.333984375 287.99609375 486.000976562 c 1
 293.99609375 486.000976562 l 1
 302.663085938 506.000976562 309.830078125 524.333984375 315.497070312 541.000976562 c 0
 321.1640625 557.66796875 329.331054688 574.66796875 339.998046875 592.000976562 c 1
 334.665039062 601.333984375 328.498046875 608.666992188 321.498046875 614 c 0
 314.498046875 619.333007812 307.331054688 624 299.998046875 628 c 0
 296.665039062 630 291.165039062 632.833007812 283.498046875 636.5 c 0
 275.831054688 640.166992188 267.498046875 643.833984375 258.498046875 647.500976562 c 0
 249.498046875 651.16796875 241.165039062 654.66796875 233.498046875 658.000976562 c 0
 225.831054688 661.333984375 220.331054688 663.666992188 216.998046875 665 c 2
 216.998046875 673 l 2
 217.665039062 674.333007812 217.998046875 678 217.998046875 684 c 0
 217.998046875 689.333007812 218.665039062 693.333007812 219.998046875 696 c 1
 202.998046875 702 l 2
 196.998046875 704 191.665039062 705 186.998046875 705 c 0
 175.665039062 705 165.498046875 703 156.498046875 699 c 0
 147.498046875 695 138.831054688 690.166992188 130.498046875 684.5 c 0
 122.165039062 678.833007812 113.665039062 672.5 104.998046875 665.5 c 0
 96.3310546875 658.5 86.998046875 652 76.998046875 646 c 1
 76.998046875 642 l 2
 76.998046875 632.666992188 76.498046875 625.166992188 75.498046875 619.5 c 0
 74.498046875 613.833007812 73.998046875 609.333007812 73.998046875 606 c 0
 73.998046875 602.666992188 74.8310546875 600 76.498046875 598 c 0
 78.1650390625 596 81.6650390625 594 86.998046875 592 c 1
 62.3310546875 548 44.8310546875 504 34.498046875 460 c 0
 24.1650390625 416 18.998046875 367.333007812 18.998046875 314 c 0
 18.998046875 217.333007812 34.3310546875 146.5 64.998046875 101.5 c 0
 95.6650390625 56.5 145.33203125 34 213.999023438 34 c 0
 227.33203125 34 241.999023438 35 257.999023438 37 c 1
 259.33203125 31.6669921875 260.83203125 25 262.499023438 17 c 0
 264.166015625 9 267.333007812 3.3330078125 272 -0 c 1
 279.333007812 9.3330078125 287.833007812 21 297.5 35 c 0
 307.166992188 49 316.333984375 63.8330078125 325.000976562 79.5 c 0
 333.66796875 95.1669921875 341.000976562 111.166992188 347.000976562 127.5 c 0
 353.000976562 143.833007812 356.000976562 159 356.000976562 173 c 1
 334.000976562 173 l 1
 340.000976562 278 l 1
 340.000976562 303 l 2
 340.000976562 323 337.000976562 343.166992188 331.000976562 363.5 c 0
 325.000976562 383.833007812 320.000976562 404 316.000976562 424 c 1
 308.000976562 423 l 2
 286.66796875 421 265.66796875 417.333007812 245.000976562 412 c 0
 224.333984375 406.666992188 202.666992188 394 180 374 c 0
249.993164062 159 m 1
 218.66015625 159 194.993164062 165.5 178.993164062 178.5 c 0
 162.993164062 191.5 150.326171875 215.666992188 140.993164062 251 c 1
 180.993164062 289 l 1
 215.993164062 298 l 1
 225.326171875 276 233.326171875 253.166992188 239.993164062 229.5 c 0
 246.66015625 205.833007812 249.993164062 182.333007812 249.993164062 159 c 1
EndSplineSet
EndChar

StartChar: seven
Encoding: 55 55 25
Width: 374
GlyphClass: 2
Flags: W
LayerCount: 2
Fore
SplineSet
175 26 m 2
 235.001953125 140.99609375 l 1
 249.668945312 182.99609375 260.3359375 216.829101562 267.002929688 242.49609375 c 0
 273.669921875 268.163085938 278.502929688 289.99609375 281.502929688 307.99609375 c 0
 284.502929688 325.99609375 286.502929688 341.829101562 287.502929688 355.49609375 c 0
 288.502929688 369.163085938 291.002929688 385.163085938 295.002929688 403.49609375 c 0
 299.002929688 421.829101562 305.169921875 444.329101562 313.502929688 470.99609375 c 0
 321.8359375 497.663085938 334.668945312 532.663085938 352.001953125 575.99609375 c 2
 360.001953125 592.99609375 l 1
 350.001953125 612.99609375 335.334960938 628.829101562 316.001953125 640.49609375 c 0
 296.668945312 652.163085938 276.001953125 661.163085938 254.001953125 667.49609375 c 0
 232.001953125 673.829101562 210.168945312 677.829101562 188.501953125 679.49609375 c 0
 166.834960938 681.163085938 149.001953125 681.99609375 135.001953125 681.99609375 c 0
 122.334960938 681.99609375 112.834960938 681.663085938 106.501953125 680.99609375 c 0
 100.168945312 680.329101562 95.3359375 679.99609375 92.0029296875 679.99609375 c 2
 84.0029296875 679.99609375 l 2
 76.669921875 679.329101562 68.5029296875 676.99609375 59.5029296875 672.99609375 c 0
 50.5029296875 668.99609375 42.669921875 664.663085938 36.0029296875 659.99609375 c 0
 32.669921875 658.663085938 29.5029296875 656.830078125 26.5029296875 654.497070312 c 0
 23.5029296875 652.1640625 22.0029296875 650.6640625 22.0029296875 649.997070312 c 2
 22.0029296875 497.997070312 l 1
 33.3359375 504.6640625 49.0029296875 511.831054688 69.0029296875 519.498046875 c 0
 89.0029296875 527.165039062 109.8359375 534.498046875 131.502929688 541.498046875 c 0
 153.169921875 548.498046875 174.002929688 554.331054688 194.002929688 558.998046875 c 0
 214.002929688 563.665039062 230.002929688 565.998046875 242.002929688 565.998046875 c 2
 256.002929688 565.998046875 l 2
 261.3359375 565.998046875 264.002929688 565.331054688 264.002929688 563.998046875 c 0
 234.002929688 486.665039062 209.002929688 424.165039062 189.002929688 376.498046875 c 0
 169.002929688 328.831054688 151.669921875 290.331054688 137.002929688 260.998046875 c 0
 122.3359375 231.665039062 109.168945312 208.33203125 97.501953125 190.999023438 c 0
 85.8349609375 173.666015625 73.3349609375 156.333007812 60.001953125 139 c 0
 55.3349609375 134.333007812 52.66796875 131 52.0009765625 129 c 2
 47.0009765625 105 l 1
 53.66796875 91 61.66796875 77.6669921875 71.0009765625 65 c 0
 80.333984375 52.3330078125 89.6669921875 41.3330078125 99 32 c 0
 108.333007812 22.6669921875 117.333007812 15.1669921875 126 9.5 c 0
 134.666992188 3.8330078125 141.666992188 1 147 1 c 0
 157 1 166.333007812 9.3330078125 175 26 c 2
EndSplineSet
EndChar

StartChar: eight
Encoding: 56 56 26
Width: 411
GlyphClass: 2
Flags: W
LayerCount: 2
Fore
SplineSet
178 -12 m 1
 199 63.0009765625 l 1
 242 12.0009765625 l 1
 261.333007812 12.66796875 279.166015625 15.5009765625 295.499023438 20.5009765625 c 0
 311.83203125 25.5009765625 325.999023438 33.833984375 337.999023438 45.5009765625 c 0
 349.999023438 57.16796875 359.33203125 72.66796875 365.999023438 92.0009765625 c 0
 372.666015625 111.333984375 375.999023438 135.666992188 375.999023438 165 c 0
 375.999023438 197 370.33203125 227 358.999023438 255 c 0
 347.666015625 283 333.333007812 308.666992188 316 332 c 1
 338.666992188 334.666992188 357.666992188 343.666992188 373 359 c 0
 388.333007812 374.333007812 396 400.666015625 396 437.999023438 c 0
 396 461.999023438 392.666992188 483.666015625 386 502.999023438 c 0
 379.333007812 522.33203125 370.833007812 540.165039062 360.5 556.498046875 c 0
 350.166992188 572.831054688 338.333984375 587.998046875 325.000976562 601.998046875 c 0
 311.66796875 615.998046875 298.000976562 629.665039062 284.000976562 642.998046875 c 2
 277.000976562 648.998046875 l 1
 247.000976562 573.998046875 l 1
 204.000976562 685.998046875 l 1
 179.000976562 682.998046875 l 2
 159.000976562 682.998046875 140.333984375 678.998046875 123.000976562 670.998046875 c 0
 105.66796875 662.998046875 90.66796875 651.498046875 78.0009765625 636.498046875 c 0
 65.333984375 621.498046875 55.333984375 603.331054688 48.0009765625 581.998046875 c 0
 40.66796875 560.665039062 37.0009765625 536.665039062 37.0009765625 509.998046875 c 2
 37.0009765625 506.998046875 l 2
 37.0009765625 476.331054688 42.66796875 450.831054688 54.0009765625 430.498046875 c 0
 65.333984375 410.165039062 79.6669921875 388.665039062 97 365.998046875 c 1
 74.3330078125 363.331054688 55.3330078125 354.331054688 40 338.998046875 c 0
 24.6669921875 323.665039062 17 297.33203125 17 259.999023438 c 0
 17 241.999023438 19.1669921875 222.499023438 23.5 201.499023438 c 0
 27.8330078125 180.499023438 33.8330078125 160.166015625 41.5 140.499023438 c 0
 49.1669921875 120.83203125 58 102.33203125 68 84.9990234375 c 0
 78 67.666015625 88.6669921875 53.3330078125 100 42 c 0
 120.666992188 18 146.666992188 0 178 -12 c 1
236 553.000976562 m 2
 240 553.001953125 l 1
 231 518.001953125 l 1
 237 511.334960938 243 506.001953125 249 502.001953125 c 0
 255 498.001953125 260.5 493.834960938 265.5 489.501953125 c 0
 270.5 485.168945312 274.666992188 480.168945312 278 474.501953125 c 0
 281.333007812 468.834960938 283 461.66796875 283 453.000976562 c 0
 283 444.333984375 282.166992188 435.000976562 280.5 425.000976562 c 0
 278.833007812 415.000976562 276.5 405.66796875 273.5 397.000976562 c 0
 270.5 388.333984375 266.833007812 380.666992188 262.5 374 c 0
 258.166992188 367.333007812 253.333984375 363 248.000976562 361 c 0
 243.333984375 363 238.666992188 365.166992188 234 367.5 c 2
 219 375 l 2
 209.666992188 381 200.333984375 388.166992188 191.000976562 396.5 c 0
 181.66796875 404.833007812 173.16796875 413.833007812 165.500976562 423.5 c 0
 157.833984375 433.166992188 151.666992188 443.5 147 454.5 c 0
 142.333007812 465.5 140 477 140 489 c 0
 140 503 143.166992188 514 149.5 522 c 0
 155.833007812 530 163.833007812 536.166992188 173.5 540.5 c 0
 183.166992188 544.833007812 193.5 547.833007812 204.5 549.5 c 0
 215.5 551.166992188 226 552.333984375 236 553.000976562 c 2
212 104.001953125 m 1
 211.999023438 141 l 1
 203.33203125 148.333007812 193.665039062 155.5 182.998046875 162.5 c 0
 172.331054688 169.5 162.498046875 177 153.498046875 185 c 0
 144.498046875 193 136.998046875 201.833007812 130.998046875 211.5 c 0
 124.998046875 221.166992188 121.998046875 232.333984375 121.998046875 245.000976562 c 0
 121.998046875 261.66796875 127.498046875 275.834960938 138.498046875 287.501953125 c 0
 149.498046875 299.168945312 160.331054688 307.001953125 170.998046875 311.001953125 c 1
 175.665039062 308.334960938 180.33203125 305.834960938 184.999023438 303.501953125 c 0
 189.666015625 301.168945312 194.666015625 299.001953125 199.999023438 297.001953125 c 0
 217.999023438 283.668945312 233.999023438 267.668945312 247.999023438 249.001953125 c 0
 261.999023438 230.334960938 268.999023438 209.334960938 268.999023438 186.001953125 c 0
 268.999023438 170.001953125 262.83203125 154.334960938 250.499023438 139.001953125 c 0
 238.166015625 123.668945312 225.333007812 112.001953125 212 104.001953125 c 1
EndSplineSet
EndChar

StartChar: nine
Encoding: 57 57 27
Width: 386
GlyphClass: 2
Flags: W
LayerCount: 2
Fore
SplineSet
312 48 m 1
 317.333007812 68 321.83203125 87.00390625 325.499023438 105.00390625 c 0
 329.166015625 123.00390625 332.166015625 141.00390625 334.499023438 159.00390625 c 0
 336.83203125 177.00390625 338.83203125 195.170898438 340.499023438 213.50390625 c 0
 342.166015625 231.836914062 343.666015625 251.336914062 344.999023438 272.00390625 c 0
 344.999023438 273.336914062 345.83203125 275.00390625 347.499023438 277.00390625 c 0
 349.166015625 279.00390625 350.666015625 280.00390625 351.999023438 280.00390625 c 0
 354.666015625 282.670898438 359.499023438 287.170898438 366.499023438 293.50390625 c 0
 373.499023438 299.836914062 378.33203125 304.00390625 380.999023438 306.00390625 c 2
 380.999023438 314.00390625 l 1
 351.999023438 331.00390625 l 1
 350.666015625 345.00390625 348.833007812 361.50390625 346.5 380.50390625 c 0
 344.166992188 399.50390625 342 419.336914062 340 440.00390625 c 0
 338 460.670898438 336.166992188 481.337890625 334.5 502.004882812 c 0
 332.833007812 522.671875 332 541.671875 332 559.004882812 c 1
 336.666992188 559.004882812 339 558.337890625 339 557.004882812 c 0
 339 556.337890625 340.666992188 556.004882812 344 556.004882812 c 2
 344.5 557.504882812 l 2
 344.833007812 558.504882812 345 559.671875 345 561.004882812 c 0
 345 565.004882812 344.5 571.004882812 343.5 579.004882812 c 0
 342.5 587.004882812 341.333007812 595.171875 340 603.504882812 c 0
 338.666992188 611.837890625 337.5 619.670898438 336.5 627.00390625 c 0
 335.5 634.336914062 335 639.669921875 335 643.002929688 c 2
 326 649.502929688 l 2
 320 653.8359375 313.333007812 658.8359375 306 664.502929688 c 0
 298.666992188 670.169921875 291.5 676.002929688 284.5 682.002929688 c 0
 277.5 688.002929688 272.666992188 693.002929688 270 697.002929688 c 1
 243 671.002929688 l 1
 235 671.669921875 226.333007812 672.169921875 217 672.502929688 c 0
 207.666992188 672.8359375 198.333984375 673.002929688 189.000976562 673.002929688 c 0
 169.000976562 673.002929688 148.500976562 671.3359375 127.500976562 668.002929688 c 0
 106.500976562 664.669921875 87.66796875 658.002929688 71.0009765625 648.002929688 c 0
 54.333984375 638.002929688 40.6669921875 623.669921875 30 605.002929688 c 0
 19.3330078125 586.3359375 14 561.668945312 14 531.001953125 c 0
 14 492.334960938 22.8330078125 457.001953125 40.5 425.001953125 c 0
 58.1669921875 393.001953125 78 364.668945312 100 340.001953125 c 0
 119.333007812 322.668945312 142.5 309.501953125 169.5 300.501953125 c 0
 196.5 291.501953125 224 283.001953125 252 275.001953125 c 0
 264 271.001953125 270 263.668945312 270 253.001953125 c 2
 270 250.001953125 l 1
 264.666992188 203.334960938 253.166992188 161.16796875 235.5 123.500976562 c 0
 217.833007812 85.833984375 193 54.333984375 161 29.0009765625 c 1
 186 0.0009765625 l 1
 198.666992188 -1.9990234375 210 -2.9990234375 220 -2.9990234375 c 0
 244 -2.9990234375 262.5 1.66796875 275.5 11.0009765625 c 0
 288.5 20.333984375 300.666992188 32.6669921875 312 48 c 1
256.999023438 507.00390625 m 0
 256.999023438 500.336914062 258.666015625 492.502929688 261.999023438 483.502929688 c 0
 265.33203125 474.502929688 266.999023438 465.002929688 266.999023438 455.002929688 c 2
 268.999023438 400.002929688 l 2
 268.999023438 392.669921875 268.499023438 385.836914062 267.499023438 379.50390625 c 0
 266.499023438 373.170898438 264.33203125 367.337890625 260.999023438 362.004882812 c 1
 259.666015625 363.337890625 258.166015625 364.170898438 256.499023438 364.50390625 c 0
 254.83203125 364.836914062 252.999023438 365.669921875 250.999023438 367.002929688 c 0
 239.666015625 373.002929688 227.166015625 380.8359375 213.499023438 390.502929688 c 0
 199.83203125 400.169921875 187.165039062 411.169921875 175.498046875 423.502929688 c 0
 163.831054688 435.8359375 153.998046875 449.3359375 145.998046875 464.002929688 c 0
 137.998046875 478.669921875 133.998046875 494.002929688 133.998046875 510.002929688 c 0
 133.998046875 525.3359375 136.498046875 537.668945312 141.498046875 547.001953125 c 0
 146.498046875 556.334960938 152.831054688 563.501953125 160.498046875 568.501953125 c 0
 168.165039062 573.501953125 176.83203125 576.668945312 186.499023438 578.001953125 c 0
 196.166015625 579.334960938 205.999023438 580.001953125 215.999023438 580.001953125 c 2
 222.999023438 580.001953125 l 2
 226.33203125 580.001953125 230.499023438 579.668945312 235.499023438 579.001953125 c 2
 242.999023438 578.001953125 l 1
 255.999023438 561.001953125 l 1
 255.999023438 539.001953125 l 2
 255.999023438 533.668945312 256.166015625 527.8359375 256.499023438 521.502929688 c 0
 256.83203125 515.169921875 256.999023438 510.336914062 256.999023438 507.00390625 c 0
EndSplineSet
EndChar

StartChar: colon
Encoding: 58 58 28
Width: 142
GlyphClass: 2
Flags: W
LayerCount: 2
Fore
SplineSet
124 70 m 2
 124 83.0029296875 l 1
 116 102.002929688 l 1
 40 121.002929688 l 1
 34 116.3359375 30.1669921875 112.668945312 28.5 110.001953125 c 0
 26.8330078125 107.334960938 25.3330078125 101.66796875 24 93.0009765625 c 2
 16 38.0009765625 l 1
 15 25.0009765625 l 1
 26 0.0009765625 l 1
 36 -3.33203125 46.8330078125 -7.33203125 58.5 -11.9990234375 c 0
 70.1669921875 -16.666015625 79.6669921875 -19.666015625 87 -20.9990234375 c 0
 87.6669921875 -20.9990234375 88.833984375 -21.166015625 90.5009765625 -21.4990234375 c 0
 92.16796875 -21.83203125 93.66796875 -21.9990234375 95.0009765625 -21.9990234375 c 0
 98.333984375 -21.9990234375 100.833984375 -20.33203125 102.500976562 -16.9990234375 c 0
 104.16796875 -13.666015625 105.66796875 -9.9990234375 107.000976562 -5.9990234375 c 2
 111.000976562 5.0009765625 l 2
 112.333984375 8.333984375 113.166992188 11.333984375 113.5 14.0009765625 c 0
 113.833007812 16.66796875 114.666015625 19.0009765625 115.999023438 21.0009765625 c 0
 118.666015625 30.333984375 120.333007812 36.6669921875 121 40 c 0
 121.666992188 43.3330078125 122 46.3330078125 122 49 c 0
 122 51.6669921875 122.333007812 54 123 56 c 0
 123.666992188 58 124 62.6669921875 124 70 c 2
124 385.002929688 m 2
 124 398.005859375 l 1
 116 417.005859375 l 1
 40 436.005859375 l 1
 34 431.338867188 30.1669921875 427.671875 28.5 425.004882812 c 0
 26.8330078125 422.337890625 25.3330078125 416.670898438 24 408.00390625 c 2
 16 353.00390625 l 1
 15 340.00390625 l 1
 26 315.00390625 l 1
 36 311.670898438 46.8330078125 307.670898438 58.5 303.00390625 c 0
 70.1669921875 298.336914062 79.6669921875 295.336914062 87 294.00390625 c 0
 87.6669921875 294.00390625 88.833984375 293.836914062 90.5009765625 293.50390625 c 0
 92.16796875 293.170898438 93.66796875 293.00390625 95.0009765625 293.00390625 c 0
 98.333984375 293.00390625 100.833984375 294.670898438 102.500976562 298.00390625 c 0
 104.16796875 301.336914062 105.66796875 305.00390625 107.000976562 309.00390625 c 2
 111.000976562 320.00390625 l 2
 112.333984375 323.336914062 113.166992188 326.336914062 113.5 329.00390625 c 0
 113.833007812 331.670898438 114.666015625 334.00390625 115.999023438 336.00390625 c 0
 118.666015625 345.336914062 120.333007812 351.669921875 121 355.002929688 c 0
 121.666992188 358.3359375 122 361.3359375 122 364.002929688 c 0
 122 366.669921875 122.333007812 369.002929688 123 371.002929688 c 0
 123.666992188 373.002929688 124 377.669921875 124 385.002929688 c 2
EndSplineSet
EndChar

StartChar: semicolon
Encoding: 59 59 29
Width: 146
GlyphClass: 2
Flags: W
LayerCount: 2
Fore
SplineSet
124 385 m 2
 123.999023438 398.002929688 l 1
 116.999023438 417.002929688 l 1
 40.9990234375 436.002929688 l 1
 34.33203125 431.3359375 30.33203125 427.668945312 28.9990234375 425.001953125 c 0
 27.666015625 422.334960938 26.3330078125 416.66796875 25 408.000976562 c 2
 16 353.000976562 l 1
 16 340.000976562 l 1
 27 315.000976562 l 1
 37 311.66796875 47.6669921875 307.66796875 59 303.000976562 c 0
 70.3330078125 298.333984375 80 295.333984375 88 294.000976562 c 2
 91 293.500976562 l 2
 93 293.16796875 94.6669921875 293.000976562 96 293.000976562 c 0
 100 293.000976562 103 295.333984375 105 300.000976562 c 0
 107 304.66796875 108.666992188 309.66796875 110 315.000976562 c 2
 112 320.000976562 l 2
 113.333007812 324.000976562 114 327.000976562 114 329.000976562 c 0
 114 331.000976562 114.666992188 333.333984375 116 336.000976562 c 0
 119.333007812 345.333984375 121.333007812 351.666992188 122 355 c 0
 122.666992188 358.333007812 123 361.333007812 123 364 c 0
 123 366.666992188 123.166992188 369 123.5 371 c 0
 123.833007812 373 124 377.666992188 124 385 c 2
35.9990234375 -35.9970703125 m 2
 16.99609375 -92.9951171875 l 1
 36.3291015625 -79.662109375 52.49609375 -68.3291015625 65.49609375 -58.99609375 c 0
 78.49609375 -49.6630859375 88.99609375 -40.49609375 96.99609375 -31.49609375 c 0
 104.99609375 -22.49609375 111.329101562 -12.49609375 115.99609375 -1.49609375 c 0
 120.663085938 9.50390625 124.330078125 23.6708984375 126.997070312 41.00390625 c 0
 127.6640625 43.6708984375 127.997070312 47.00390625 127.997070312 51.00390625 c 2
 127.997070312 61.00390625 l 1
 127.997070312 66.00390625 l 1
 127.997070312 68.00390625 l 2
 127.997070312 71.3369140625 127.6640625 73.3369140625 126.997070312 74.00390625 c 2
 126.997070312 75.00390625 l 2
 126.997070312 75.6708984375 126.330078125 76.00390625 124.997070312 76.00390625 c 0
 123.6640625 77.3369140625 121.831054688 81.50390625 119.498046875 88.50390625 c 0
 117.165039062 95.50390625 114.665039062 99.00390625 111.998046875 99.00390625 c 2
 78.998046875 105.00390625 l 1
 75.998046875 104.00390625 l 1
 71.998046875 104.00390625 l 2
 68.6650390625 104.00390625 64.1650390625 103.670898438 58.498046875 103.00390625 c 0
 52.8310546875 102.336914062 47.3310546875 101.336914062 41.998046875 100.00390625 c 0
 36.6650390625 98.6708984375 31.83203125 97.00390625 27.4990234375 95.00390625 c 0
 23.166015625 93.00390625 20.666015625 90.6708984375 19.9990234375 88.00390625 c 2
 14.9990234375 72.00390625 l 1
 18.9990234375 64.00390625 22.83203125 57.50390625 26.4990234375 52.50390625 c 0
 30.166015625 47.50390625 33.166015625 42.6708984375 35.4990234375 38.00390625 c 0
 37.83203125 33.3369140625 39.83203125 28.3369140625 41.4990234375 23.00390625 c 0
 43.166015625 17.6708984375 43.9990234375 10.6708984375 43.9990234375 2.00390625 c 0
 43.9990234375 -8.6630859375 41.33203125 -21.330078125 35.9990234375 -35.9970703125 c 2
EndSplineSet
EndChar

StartChar: less
Encoding: 60 60 30
Width: 278
GlyphClass: 2
Flags: W
LayerCount: 2
Fore
SplineSet
146 407 m 1
 153.333007812 415 159.005859375 422.334960938 163.005859375 429.001953125 c 0
 167.005859375 435.668945312 170.338867188 440.668945312 173.005859375 444.001953125 c 0
 179.672851562 452.668945312 188.33984375 464.001953125 199.006835938 478.001953125 c 0
 209.673828125 492.001953125 220.006835938 506.668945312 230.006835938 522.001953125 c 0
 240.006835938 537.334960938 248.506835938 552.66796875 255.506835938 568.000976562 c 0
 262.506835938 583.333984375 266.006835938 596.666992188 266.006835938 608 c 2
 265.006835938 624 l 2
 264.33984375 624.666992188 263.506835938 625.833984375 262.506835938 627.500976562 c 0
 261.506835938 629.16796875 260.33984375 631.334960938 259.006835938 634.001953125 c 0
 252.33984375 640.668945312 245.172851562 648.3359375 237.505859375 657.002929688 c 0
 229.838867188 665.669921875 221.838867188 673.669921875 213.505859375 681.002929688 c 0
 205.172851562 688.3359375 196.505859375 694.668945312 187.505859375 700.001953125 c 0
 178.505859375 705.334960938 169.672851562 708.001953125 161.005859375 708.001953125 c 2
 155.005859375 707.001953125 l 1
 148.505859375 689.501953125 l 2
 144.172851562 677.834960938 139.505859375 664.66796875 134.505859375 650.000976562 c 0
 129.505859375 635.333984375 124.838867188 620.833984375 120.505859375 606.500976562 c 0
 116.172851562 592.16796875 114.005859375 582.66796875 114.005859375 578.000976562 c 0
 114.005859375 561.333984375 113.505859375 544.500976562 112.505859375 527.500976562 c 0
 111.505859375 510.500976562 109.505859375 494.333984375 106.505859375 479.000976562 c 0
 103.505859375 463.66796875 99.1728515625 449.66796875 93.505859375 437.000976562 c 0
 87.8388671875 424.333984375 80.671875 414.333984375 72.0048828125 407.000976562 c 2
 -1.9951171875 374.000976562 l 1
 8.0048828125 356.000976562 l 1
 18.671875 352.66796875 27.171875 350.334960938 33.5048828125 349.001953125 c 0
 39.837890625 347.668945312 45.6708984375 345.8359375 51.00390625 343.502929688 c 0
 56.3369140625 341.169921875 62.169921875 337.669921875 68.5029296875 333.002929688 c 0
 74.8359375 328.3359375 83.3359375 321.002929688 94.0029296875 311.002929688 c 2
 103.002929688 302.002929688 l 2
 103.002929688 301.3359375 106.3359375 297.168945312 113.002929688 289.501953125 c 0
 119.669921875 281.834960938 127.169921875 272.834960938 135.502929688 262.501953125 c 0
 143.8359375 252.168945312 151.668945312 241.668945312 159.001953125 231.001953125 c 0
 166.334960938 220.334960938 170.66796875 212.001953125 172.000976562 206.001953125 c 2
 176.000976562 188.001953125 l 2
 177.333984375 180.668945312 178.166992188 168.3359375 178.5 151.002929688 c 0
 178.833007812 133.669921875 179.166015625 115.502929688 179.499023438 96.5029296875 c 0
 179.83203125 77.5029296875 180.33203125 59.5029296875 180.999023438 42.5029296875 c 0
 181.666015625 25.5029296875 182.666015625 14.0029296875 183.999023438 8.0029296875 c 1
 202.999023438 26.0029296875 l 2
 203.666015625 27.3359375 205.333007812 34.6689453125 208 48.001953125 c 0
 210.666992188 61.3349609375 213.5 76.8349609375 216.5 94.501953125 c 0
 219.5 112.168945312 222.166992188 129.668945312 224.5 147.001953125 c 0
 226.833007812 164.334960938 228 177.66796875 228 187.000976562 c 2
 228 195.000976562 l 2
 228 206.333984375 223.5 225.166992188 214.5 251.5 c 0
 205.5 277.833007812 195.333007812 307.333007812 184 340 c 0
 181.333007812 348 179.5 353.666992188 178.5 357 c 0
 177.5 360.333007812 176.333007812 364.333007812 175 369 c 2
 174 373 l 1
 146 407 l 1
EndSplineSet
EndChar

StartChar: equal
Encoding: 61 61 31
Width: 312
GlyphClass: 2
Flags: W
LayerCount: 2
Fore
SplineSet
199 296 m 1
 28 307.998046875 l 1
 25 305.998046875 l 1
 35 295.998046875 l 1
 39 290.498046875 l 2
 41.6669921875 286.831054688 43.6669921875 283.998046875 45 281.998046875 c 0
 47 278.665039062 51 274.998046875 57 270.998046875 c 0
 63 266.998046875 69.6669921875 262.831054688 77 258.498046875 c 0
 84.3330078125 254.165039062 91.8330078125 249.998046875 99.5 245.998046875 c 0
 107.166992188 241.998046875 113.666992188 238.331054688 119 234.998046875 c 2
 291 178.998046875 l 1
 289.666992188 184.331054688 288.666992188 190.331054688 288 196.998046875 c 0
 287.333007812 203.665039062 287 210.33203125 287 216.999023438 c 0
 286.333007812 225.666015625 285.833007812 232.499023438 285.5 237.499023438 c 0
 285.166992188 242.499023438 285 246.666015625 285 249.999023438 c 0
 285 253.999023438 284.833007812 257.83203125 284.5 261.499023438 c 0
 284.166992188 265.166015625 284 270.333007812 284 277 c 2
 289 307 l 1
 209 298 l 1
 199 296 l 1
116 398.998046875 m 1
 288 387 l 1
 290 389 l 1
 280 399 l 1
 276 404.5 l 2
 273.333007812 408.166992188 271.333007812 411 270 413 c 0
 268 416.333007812 264 420 258 424 c 0
 252 428 245.333007812 432.166992188 238 436.5 c 0
 230.666992188 440.833007812 223.166992188 445 215.5 449 c 0
 207.833007812 453 201.333007812 456.666992188 196 460 c 2
 24 516 l 1
 26 510.666992188 27.1669921875 504.666992188 27.5 498 c 0
 27.8330078125 491.333007812 28 484.666015625 28 477.999023438 c 0
 28.6669921875 469.33203125 29.1669921875 462.499023438 29.5 457.499023438 c 0
 29.8330078125 452.499023438 30 448.33203125 30 444.999023438 c 0
 30 440.999023438 30.1669921875 437.166015625 30.5 433.499023438 c 0
 30.8330078125 429.83203125 31 424.665039062 31 417.998046875 c 2
 26 387.998046875 l 1
 106 396.998046875 l 1
 116 398.998046875 l 1
EndSplineSet
EndChar

StartChar: greater
Encoding: 62 62 32
Width: 248
GlyphClass: 2
Flags: W
LayerCount: 2
Fore
SplineSet
240 369 m 1
 178 406.999023438 l 1
 170 415.999023438 l 1
 161 426.499023438 l 1
 140 450.999023438 l 2
 132 460.33203125 124.5 470.165039062 117.5 480.498046875 c 0
 110.5 490.831054688 106 498.998046875 104 504.998046875 c 2
 101 522.998046875 l 2
 99.6669921875 529.665039062 98.833984375 541.665039062 98.5009765625 558.998046875 c 0
 98.16796875 576.331054688 97.8349609375 594.498046875 97.501953125 613.498046875 c 0
 97.1689453125 632.498046875 96.6689453125 650.498046875 96.001953125 667.498046875 c 0
 95.3349609375 684.498046875 94.001953125 695.998046875 92.001953125 701.998046875 c 1
 74.001953125 683.998046875 l 2
 72.6689453125 682.665039062 70.6689453125 675.165039062 68.001953125 661.498046875 c 0
 65.3349609375 647.831054688 62.501953125 632.331054688 59.501953125 614.998046875 c 0
 56.501953125 597.665039062 54.001953125 580.33203125 52.001953125 562.999023438 c 0
 50.001953125 545.666015625 49.001953125 532.666015625 49.001953125 523.999023438 c 2
 49.001953125 432.999023438 l 2
 49.6689453125 428.999023438 51.501953125 424.166015625 54.501953125 418.499023438 c 0
 57.501953125 412.83203125 60.8349609375 406.999023438 64.501953125 400.999023438 c 0
 68.1689453125 394.999023438 71.501953125 389.499023438 74.501953125 384.499023438 c 0
 77.501953125 379.499023438 79.3349609375 375.999023438 80.001953125 373.999023438 c 2
 80.001953125 370.999023438 l 2
 81.3349609375 364.33203125 87.8349609375 355.999023438 99.501953125 345.999023438 c 0
 111.168945312 335.999023438 122.001953125 325.33203125 132.001953125 313.999023438 c 1
 124.001953125 303.999023438 116.668945312 294.499023438 110.001953125 285.499023438 c 0
 103.334960938 276.499023438 98.66796875 270.33203125 96.0009765625 266.999023438 c 0
 88.66796875 258.33203125 80.16796875 246.999023438 70.5009765625 232.999023438 c 0
 60.833984375 218.999023438 51.5009765625 204.33203125 42.5009765625 188.999023438 c 0
 33.5009765625 173.666015625 25.833984375 158.333007812 19.5009765625 143 c 0
 13.16796875 127.666992188 10.0009765625 114.333984375 10.0009765625 103.000976562 c 2
 16.0009765625 82.0009765625 l 2
 22.0009765625 75.333984375 29.5009765625 67.5009765625 38.5009765625 58.5009765625 c 0
 47.5009765625 49.5009765625 57.0009765625 40.833984375 67.0009765625 32.5009765625 c 0
 77.0009765625 24.16796875 87.0009765625 17.16796875 97.0009765625 11.5009765625 c 0
 107.000976562 5.833984375 116.333984375 3.0009765625 125.000976562 3.0009765625 c 2
 132.000976562 3.0009765625 l 2
 133.333984375 3.66796875 134.666992188 5.16796875 136 7.5009765625 c 0
 137.333007812 9.833984375 138.666015625 12.0009765625 139.999023438 14.0009765625 c 2
 137.999023438 41.0009765625 l 2
 137.33203125 47.0009765625 136.83203125 53.333984375 136.499023438 60.0009765625 c 0
 136.166015625 66.66796875 135.999023438 73.66796875 135.999023438 81.0009765625 c 2
 135.999023438 127.000976562 l 2
 135.999023438 145.000976562 137.666015625 163.16796875 140.999023438 181.500976562 c 0
 144.33203125 199.833984375 148.999023438 217.166992188 154.999023438 233.5 c 0
 160.999023438 249.833007812 167.83203125 264.5 175.499023438 277.5 c 0
 183.166015625 290.5 191.333007812 300.666992188 200 308 c 2
 241 365 l 1
 240 369 l 1
EndSplineSet
EndChar

StartChar: question
Encoding: 63 63 33
Width: 366
GlyphClass: 2
Flags: W
LayerCount: 2
Fore
SplineSet
13 610 m 0
 13 596 14.1689453125 579.66796875 16.501953125 561.000976562 c 0
 18.8349609375 542.333984375 22.001953125 523.666992188 26.001953125 505 c 0
 30.001953125 486.333007812 34.6689453125 469 40.001953125 453 c 0
 45.3349609375 437 51.001953125 424.666992188 57.001953125 416 c 1
 60.001953125 416 l 1
 66.001953125 423.333007812 72.001953125 434.5 78.001953125 449.5 c 0
 84.001953125 464.5 89.6689453125 477 95.001953125 487 c 0
 103.668945312 503 114.001953125 518.333007812 126.001953125 533 c 0
 138.001953125 547.666992188 150.668945312 560.5 164.001953125 571.5 c 0
 177.334960938 582.5 191.16796875 591.333007812 205.500976562 598 c 0
 219.833984375 604.666992188 233.666992188 608 247 608 c 0
 249.666992188 608 251 606.333007812 251 603 c 0
 251 567.666992188 249.333007812 533.666992188 246 501 c 0
 242.666992188 468.333007812 237.5 438.333007812 230.5 411 c 0
 223.5 383.666992188 214.333007812 359.833984375 203 339.500976562 c 0
 191.666992188 319.16796875 178 303.334960938 162 292.001953125 c 0
 144 278.668945312 125.5 269.668945312 106.5 265.001953125 c 0
 87.5 260.334960938 68.3330078125 258.001953125 49 258.001953125 c 1
 48 233.001953125 l 2
 48 225.001953125 48.6669921875 218.001953125 50 212.001953125 c 0
 51.3330078125 206.001953125 54.666015625 202.334960938 59.9990234375 201.001953125 c 2
 93.9990234375 194.001953125 l 1
 201.999023438 220.001953125 l 2
 205.999023438 224.001953125 210.166015625 227.001953125 214.499023438 229.001953125 c 0
 218.83203125 231.001953125 223.165039062 232.834960938 227.498046875 234.501953125 c 0
 231.831054688 236.168945312 236.1640625 238.168945312 240.497070312 240.501953125 c 0
 244.830078125 242.834960938 248.997070312 246.334960938 252.997070312 251.001953125 c 0
 264.997070312 266.334960938 276.830078125 282.501953125 288.497070312 299.501953125 c 0
 300.1640625 316.501953125 310.831054688 333.668945312 320.498046875 351.001953125 c 0
 330.165039062 368.334960938 337.83203125 385.66796875 343.499023438 403.000976562 c 0
 349.166015625 420.333984375 351.999023438 437.666992188 351.999023438 455 c 0
 351.999023438 469 350.666015625 478.333007812 347.999023438 483 c 0
 338.666015625 522.333007812 327.666015625 555.333007812 314.999023438 582 c 0
 302.33203125 608.666992188 287.999023438 630 271.999023438 646 c 0
 255.999023438 662 238.499023438 673.5 219.499023438 680.5 c 0
 200.499023438 687.5 179.999023438 691 157.999023438 691 c 2
 151.999023438 691 l 2
 148.666015625 691 145.666015625 690.833007812 142.999023438 690.5 c 0
 140.33203125 690.166992188 137.999023438 690 135.999023438 690 c 2
 131.999023438 690 l 2
 130.666015625 690 127.333007812 689.5 122 688.5 c 0
 116.666992188 687.5 111.666992188 686.333007812 107 685 c 0
 103.666992188 684.333007812 101.5 683.666015625 100.5 682.999023438 c 0
 99.5 682.33203125 95.6669921875 680.999023438 89 678.999023438 c 0
 86.3330078125 677.666015625 84 676.666015625 82 675.999023438 c 0
 80 675.33203125 78.3330078125 673.999023438 77 671.999023438 c 0
 70.3330078125 670.666015625 64.8330078125 667.833007812 60.5 663.5 c 0
 56.1669921875 659.166992188 50 654.666992188 42 650 c 2
 35 644 l 2
 30.3330078125 638.666992188 25.5 633.5 20.5 628.5 c 0
 15.5 623.5 13 617.333007812 13 610 c 0
156.001953125 81.0009765625 m 2
 156 92.998046875 l 1
 149 110.998046875 l 1
 80 128.998046875 l 1
 74 124.998046875 70.3330078125 121.665039062 69 118.998046875 c 0
 67.6669921875 116.331054688 66.333984375 110.998046875 65.0009765625 102.998046875 c 2
 57.0009765625 50.998046875 l 1
 56.0009765625 38.998046875 l 1
 67.0009765625 15.998046875 l 1
 76.333984375 12.6650390625 86.0009765625 8.83203125 96.0009765625 4.4990234375 c 0
 106.000976562 0.166015625 114.66796875 -2.6669921875 122.000976562 -4 c 0
 122.66796875 -4 123.834960938 -4.1669921875 125.501953125 -4.5 c 0
 127.168945312 -4.8330078125 128.668945312 -5 130.001953125 -5 c 0
 133.334960938 -5 135.501953125 -3.5 136.501953125 -0.5 c 2
 140.001953125 10 l 1
 144.001953125 20 l 2
 145.334960938 24 146.001953125 26.6669921875 146.001953125 28 c 0
 146.001953125 30 146.668945312 32.3330078125 148.001953125 35 c 0
 151.334960938 43.6669921875 153.334960938 49.6669921875 154.001953125 53 c 0
 154.668945312 56.3330078125 155.001953125 59 155.001953125 61 c 0
 155.001953125 63.6669921875 155.168945312 65.833984375 155.501953125 67.5009765625 c 0
 155.834960938 69.16796875 156.001953125 73.66796875 156.001953125 81.0009765625 c 2
EndSplineSet
EndChar

StartChar: at
Encoding: 64 64 34
Width: 363
GlyphClass: 2
Flags: W
LayerCount: 2
Fore
SplineSet
344 367 m 0
 344 387 342.001953125 407.661132812 338.001953125 428.994140625 c 2
 332.001953125 536.994140625 l 1
 353.001953125 536.994140625 l 1
 353.001953125 550.994140625 350.168945312 566.161132812 344.501953125 582.494140625 c 0
 338.834960938 598.827148438 331.66796875 614.827148438 323.000976562 630.494140625 c 0
 314.333984375 646.161132812 305.166992188 660.994140625 295.5 674.994140625 c 0
 285.833007812 688.994140625 277 700.661132812 269 709.994140625 c 1
 264.333007812 706.661132812 261.333007812 703.161132812 260 699.494140625 c 0
 258.666992188 695.827148438 257.333984375 691.327148438 256.000976562 685.994140625 c 1
 240.000976562 687.994140625 225.333984375 688.994140625 212.000976562 688.994140625 c 0
 143.333984375 688.994140625 93.5009765625 666.494140625 62.5009765625 621.494140625 c 0
 31.5009765625 576.494140625 16.0009765625 505.661132812 16.0009765625 408.994140625 c 0
 16.0009765625 382.327148438 17.333984375 353.994140625 20.0009765625 323.994140625 c 0
 22.66796875 293.994140625 26.66796875 263.994140625 32.0009765625 233.994140625 c 0
 37.333984375 203.994140625 44.333984375 175.161132812 53.0009765625 147.494140625 c 0
 61.66796875 119.827148438 72.0009765625 94.994140625 84.0009765625 72.994140625 c 0
 96.0009765625 56.994140625 106.333984375 41.994140625 115.000976562 27.994140625 c 0
 123.66796875 13.994140625 131.500976562 1.8271484375 138.500976562 -8.505859375 c 0
 145.500976562 -18.8388671875 152.500976562 -27.171875 159.500976562 -33.5048828125 c 0
 166.500976562 -39.837890625 174.66796875 -43.6708984375 184.000976562 -45.00390625 c 2
 187.000976562 -45.00390625 l 2
 191.66796875 -45.00390625 196.000976562 -44.00390625 200.000976562 -42.00390625 c 2
 221.000976562 -36.00390625 l 1
 219.66796875 -34.00390625 218.500976562 -29.3369140625 217.500976562 -22.00390625 c 0
 216.500976562 -14.6708984375 215.66796875 -10.00390625 215.000976562 -8.00390625 c 2
 215.000976562 -0.00390625 l 1
 221.66796875 2.6630859375 231.16796875 6.330078125 243.500976562 10.9970703125 c 0
 255.833984375 15.6640625 265.333984375 19.9970703125 272.000976562 23.9970703125 c 0
 276.000976562 25.9970703125 279.000976562 27.1640625 281.000976562 27.4970703125 c 0
 283.000976562 27.830078125 284.66796875 28.330078125 286.000976562 28.9970703125 c 0
 287.333984375 29.6640625 288.666992188 30.8310546875 290 32.498046875 c 0
 291.333007812 34.1650390625 293.333007812 37.33203125 296 41.9990234375 c 1
 282 53.33203125 270.333007812 67.4990234375 261 84.4990234375 c 0
 251.666992188 101.499023438 242.666992188 119.999023438 234 139.999023438 c 1
 228 139.999023438 l 1
 220 129.33203125 211.833007812 118.33203125 203.5 106.999023438 c 0
 195.166992188 95.666015625 182.666992188 89.9990234375 166 89.9990234375 c 0
 162.666992188 89.9990234375 160.666992188 90.33203125 160 90.9990234375 c 0
 152.666992188 92.9990234375 146 103.83203125 140 123.499023438 c 0
 134 143.166015625 129 165.499023438 125 190.499023438 c 0
 121 215.499023438 117.833007812 239.499023438 115.5 262.499023438 c 0
 113.166992188 285.499023438 112 301.666015625 112 310.999023438 c 0
 112 340.999023438 114.5 371.166015625 119.5 401.499023438 c 0
 124.5 431.83203125 132.5 458.999023438 143.5 482.999023438 c 0
 154.5 506.999023438 168.666992188 526.499023438 186 541.499023438 c 0
 203.333007812 556.499023438 224 563.999023438 248 563.999023438 c 1
 254 554.666015625 260.666992188 544.833007812 268 534.5 c 0
 275.333007812 524.166992188 284 510.666992188 294 494 c 1
 290 489 l 1
 252 513 l 1
 244 508 l 2
 222.666992188 494 205.333984375 476.5 192.000976562 455.5 c 0
 178.66796875 434.5 172.000976562 409 172.000976562 379 c 0
 172.000976562 353 176.000976562 329.333007812 184.000976562 308 c 0
 192.000976562 286.666992188 201.333984375 265 212.000976562 243 c 2
 220.000976562 228 l 1
 219.500976562 226.5 l 2
 219.16796875 225.5 219.000976562 224.666992188 219.000976562 224 c 0
 219.000976562 220 217.833984375 217.333007812 215.500976562 216 c 0
 213.16796875 214.666992188 212.000976562 212.333984375 212.000976562 209.000976562 c 0
 212.000976562 205.66796875 214.66796875 201.66796875 220.000976562 197.000976562 c 0
 225.333984375 192.333984375 231.666992188 187.833984375 239 183.500976562 c 0
 246.333007812 179.16796875 253.5 175.16796875 260.5 171.500976562 c 0
 267.5 167.833984375 272.666992188 165.666992188 276 165 c 2
 276 164 l 1
 277 164 l 2
 277.666992188 164 278.166992188 164.166992188 278.5 164.5 c 2
 279 165 l 1
 285 173 l 1
 301.666992188 203.666992188 315.666992188 234.166992188 327 264.5 c 0
 338.333007812 294.833007812 344 329 344 367 c 0
278.001953125 390.994140625 m 2
 278.001953125 383.661132812 277.668945312 373.99609375 277.001953125 361.99609375 c 0
 276.334960938 349.99609375 275.16796875 337.99609375 273.500976562 325.99609375 c 0
 271.833984375 313.99609375 269.333984375 303.663085938 266.000976562 294.99609375 c 0
 262.66796875 286.329101562 258.334960938 281.99609375 253.001953125 281.99609375 c 0
 251.668945312 281.99609375 250.168945312 284.49609375 248.501953125 289.49609375 c 0
 246.834960938 294.49609375 245.334960938 300.163085938 244.001953125 306.49609375 c 0
 242.668945312 312.829101562 241.501953125 319.162109375 240.501953125 325.495117188 c 0
 239.501953125 331.828125 239.001953125 336.661132812 239.001953125 339.994140625 c 2
 239.001953125 352.994140625 l 2
 239.001953125 368.994140625 240.834960938 383.661132812 244.501953125 396.994140625 c 0
 248.168945312 410.327148438 257.001953125 416.994140625 271.001953125 416.994140625 c 0
 273.668945312 416.994140625 275.668945312 413.994140625 277.001953125 407.994140625 c 2
 278.001953125 403.994140625 l 1
 278.001953125 390.994140625 l 2
EndSplineSet
EndChar

StartChar: A
Encoding: 65 65 35
Width: 368
GlyphClass: 2
Flags: W
LayerCount: 2
Fore
SplineSet
276 166 m 0
 278.666992188 163.333007812 280.33203125 160.495117188 280.999023438 157.495117188 c 0
 281.666015625 154.495117188 282.666015625 151.328125 283.999023438 147.995117188 c 2
 284.999023438 140.995117188 l 1
 302.999023438 19.9951171875 l 2
 302.999023438 16.662109375 303.166015625 14.3291015625 303.499023438 12.99609375 c 0
 303.83203125 11.6630859375 303.999023438 10.330078125 303.999023438 8.9970703125 c 2
 311.999023438 -39.0029296875 l 1
 313.33203125 -35.669921875 314.499023438 -30.669921875 315.499023438 -24.0029296875 c 0
 316.499023438 -17.3359375 317.666015625 -9.0029296875 318.999023438 0.9970703125 c 0
 320.33203125 9.6640625 321.83203125 17.8310546875 323.499023438 25.498046875 c 0
 325.166015625 33.1650390625 326.333007812 38.6650390625 327 41.998046875 c 0
 333.666992188 82.6650390625 338.833984375 122.498046875 342.500976562 161.498046875 c 0
 346.16796875 200.498046875 348.000976562 239.998046875 348.000976562 279.998046875 c 0
 348.000976562 348.665039062 342.500976562 413.998046875 331.500976562 475.998046875 c 0
 320.500976562 537.998046875 302.000976562 602.331054688 276.000976562 668.998046875 c 0
 273.333984375 676.331054688 271.000976562 680.498046875 269.000976562 681.498046875 c 0
 267.000976562 682.498046875 264.000976562 684.665039062 260.000976562 687.998046875 c 2
 188.000976562 687.998046875 l 1
 195.000976562 727.998046875 l 1
 116.000976562 652.998046875 l 1
 115.000976562 646.998046875 l 2
 115.000976562 637.665039062 118.000976562 628.665039062 124.000976562 619.998046875 c 1
 100.000976562 569.998046875 80.833984375 519.998046875 66.5009765625 469.998046875 c 0
 52.16796875 419.998046875 38.66796875 367.998046875 26.0009765625 313.998046875 c 0
 24.0009765625 310.665039062 20.0009765625 308.998046875 14.0009765625 308.998046875 c 0
 9.333984375 308.998046875 4.6669921875 310.665039062 -0 313.998046875 c 0
 -4.6669921875 317.331054688 -9.333984375 320.831054688 -14.0009765625 324.498046875 c 0
 -18.66796875 328.165039062 -23.16796875 331.665039062 -27.5009765625 334.998046875 c 0
 -31.833984375 338.331054688 -36.0009765625 339.998046875 -40.0009765625 339.998046875 c 0
 -41.333984375 339.998046875 -42.333984375 339.831054688 -43.0009765625 339.498046875 c 2
 -46.0009765625 337.998046875 l 1
 -43.333984375 336.665039062 -39.833984375 333.165039062 -35.5009765625 327.498046875 c 0
 -31.16796875 321.831054688 -26.66796875 315.6640625 -22.0009765625 308.997070312 c 0
 -17.333984375 302.330078125 -13.0009765625 296.330078125 -9.0009765625 290.997070312 c 0
 -5.0009765625 285.6640625 -2.0009765625 282.6640625 -0.0009765625 281.997070312 c 0
 4.666015625 280.6640625 9.3330078125 278.331054688 14 274.998046875 c 0
 18.6669921875 271.665039062 22 267.665039062 24 262.998046875 c 2
 17 72.998046875 l 2
 17 60.998046875 20.1669921875 50.8310546875 26.5 42.498046875 c 0
 32.8330078125 34.1650390625 41 27.498046875 51 22.498046875 c 0
 61 17.498046875 71.8330078125 13.498046875 83.5 10.498046875 c 0
 95.1669921875 7.498046875 106 4.998046875 116 2.998046875 c 2
 126 -0.001953125 l 2
 131.333007812 -1.3349609375 137.666015625 -2.16796875 144.999023438 -2.5009765625 c 0
 152.33203125 -2.833984375 158.665039062 -3.0009765625 163.998046875 -3.0009765625 c 2
 171.998046875 -3.0009765625 l 1
 172.998046875 4.9990234375 l 2
 171.665039062 7.666015625 169.83203125 13.666015625 167.499023438 22.9990234375 c 0
 165.166015625 32.33203125 162.833007812 42.4990234375 160.5 53.4990234375 c 0
 158.166992188 64.4990234375 156 74.83203125 154 84.4990234375 c 0
 152 94.166015625 150.666992188 100.999023438 150 104.999023438 c 0
 148 113.666015625 145.166992188 125.499023438 141.5 140.499023438 c 0
 137.833007812 155.499023438 136 167.999023438 136 177.999023438 c 2
 138 186.999023438 l 1
 212 105.999023438 l 1
 216 104.999023438 l 1
 218 104.999023438 l 2
 222.666992188 104.999023438 227.5 107.666015625 232.5 112.999023438 c 0
 237.5 118.33203125 242.5 124.499023438 247.5 131.499023438 c 0
 252.5 138.499023438 257.5 145.33203125 262.5 151.999023438 c 0
 267.5 158.666015625 272 163.333007812 276 166 c 0
130.998046875 297.995117188 m 0
 127.665039062 301.328125 125.1640625 307.993164062 123.497070312 317.993164062 c 0
 121.830078125 327.993164062 120.997070312 339.993164062 120.997070312 353.993164062 c 0
 120.997070312 367.326171875 121.830078125 381.993164062 123.497070312 397.993164062 c 0
 125.1640625 413.993164062 127.1640625 429.993164062 129.497070312 445.993164062 c 0
 131.830078125 461.993164062 134.163085938 477.66015625 136.49609375 492.993164062 c 0
 138.829101562 508.326171875 140.662109375 522.326171875 141.995117188 534.993164062 c 0
 143.328125 540.326171875 146.328125 545.993164062 150.995117188 551.993164062 c 0
 155.662109375 557.993164062 160.329101562 564.326171875 164.99609375 570.993164062 c 1
 180.99609375 547.66015625 194.663085938 521.493164062 205.99609375 492.493164062 c 0
 217.329101562 463.493164062 226.99609375 435.993164062 234.99609375 409.993164062 c 0
 238.329101562 399.993164062 241.49609375 386.993164062 244.49609375 370.993164062 c 0
 247.49609375 354.993164062 249.99609375 339.326171875 251.99609375 323.993164062 c 0
 253.99609375 308.66015625 255.663085938 295.16015625 256.99609375 283.493164062 c 0
 258.329101562 271.826171875 258.99609375 265.326171875 258.99609375 263.993164062 c 2
 256.99609375 254.993164062 l 1
 254.99609375 255.66015625 251.329101562 256.827148438 245.99609375 258.494140625 c 0
 240.663085938 260.161132812 236.330078125 261.661132812 232.997070312 262.994140625 c 0
 228.997070312 263.661132812 221.997070312 265.494140625 211.997070312 268.494140625 c 0
 201.997070312 271.494140625 191.497070312 274.827148438 180.497070312 278.494140625 c 0
 169.497070312 282.161132812 159.330078125 285.828125 149.997070312 289.495117188 c 0
 140.6640625 293.162109375 134.331054688 295.995117188 130.998046875 297.995117188 c 0
EndSplineSet
EndChar

StartChar: B
Encoding: 66 66 36
Width: 419
GlyphClass: 2
Flags: W
LayerCount: 2
Fore
SplineSet
64 0 m 2
 180 -0.0029296875 l 1
 192 4.9970703125 l 2
 192.666992188 5.6640625 194 5.9970703125 196 5.9970703125 c 0
 197.333007812 5.9970703125 198.333007812 6.330078125 199 6.9970703125 c 0
 218.333007812 13.6640625 239 21.8310546875 261 31.498046875 c 0
 283 41.1650390625 301 53.6650390625 315 68.998046875 c 0
 325.666992188 79.6650390625 336.333984375 92.33203125 347.000976562 106.999023438 c 0
 357.66796875 121.666015625 367.16796875 137.333007812 375.500976562 154 c 0
 383.833984375 170.666992188 390.666992188 188 396 206 c 0
 401.333007812 224 404 241.666992188 404 259 c 0
 404 296.333007812 396.333007812 322.666015625 381 337.999023438 c 0
 365.666992188 353.33203125 346.666992188 362.33203125 324 364.999023438 c 1
 341.333007812 388.33203125 355.666015625 413.83203125 366.999023438 441.499023438 c 0
 378.33203125 469.166015625 383.999023438 498.999023438 383.999023438 530.999023438 c 0
 383.999023438 562.33203125 378.83203125 587.33203125 368.499023438 605.999023438 c 0
 358.166015625 624.666015625 344.666015625 638.999023438 327.999023438 648.999023438 c 0
 311.33203125 658.999023438 292.665039062 665.499023438 271.998046875 668.499023438 c 0
 251.331054688 671.499023438 230.998046875 672.999023438 210.998046875 672.999023438 c 0
 201.665039062 672.999023438 192.665039062 672.83203125 183.998046875 672.499023438 c 0
 175.331054688 672.166015625 166.998046875 671.666015625 158.998046875 670.999023438 c 1
 131.998046875 696.999023438 l 1
 129.331054688 692.999023438 122.831054688 684.33203125 112.498046875 670.999023438 c 0
 102.165039062 657.666015625 91.33203125 643.833007812 79.9990234375 629.5 c 0
 68.666015625 615.166992188 58.4990234375 602.333984375 49.4990234375 591.000976562 c 2
 35.9990234375 574.000976562 l 1
 35.9990234375 566.000976562 36.83203125 560.500976562 38.4990234375 557.500976562 c 0
 40.166015625 554.500976562 42.3330078125 553.000976562 45 553.000976562 c 0
 48.3330078125 553.000976562 52 554.000976562 56 556.000976562 c 0
 60 558.000976562 64.6669921875 559.000976562 70 559.000976562 c 1
 70 541.66796875 69.1669921875 522.66796875 67.5 502.000976562 c 0
 65.8330078125 481.333984375 63.8330078125 460.666992188 61.5 440 c 0
 59.1669921875 419.333007812 56.833984375 399.5 54.5009765625 380.5 c 0
 52.16796875 361.5 50.66796875 345 50.0009765625 331 c 1
 9.0009765625 314 l 1
 9.0009765625 306 l 1
 44.0009765625 280 l 2
 45.333984375 280 46.6669921875 279 48 277 c 0
 49.3330078125 275 50 273.333007812 50 272 c 0
 53.3330078125 216 59.3330078125 159.666992188 68 103 c 1
 65.3330078125 93 64 82.3330078125 64 71 c 2
 64 59 l 1
 23 42 l 1
 23 34 l 1
 57 8 l 2
 58.3330078125 8 59.8330078125 7 61.5 5 c 0
 63.1669921875 3 64 1.3330078125 64 0 c 2
144 506.997070312 m 1
 144 565.998046875 l 1
 159 582.998046875 l 1
 166.5 583.998046875 l 2
 171.5 584.665039062 175.666992188 584.998046875 179 584.998046875 c 2
 186 584.998046875 l 2
 195.333007812 584.998046875 205.333007812 583.998046875 216 581.998046875 c 0
 226.666992188 579.998046875 236.5 576.165039062 245.5 570.498046875 c 0
 254.5 564.831054688 262 557.1640625 268 547.497070312 c 0
 274 537.830078125 277 525.330078125 277 509.997070312 c 0
 277 492.6640625 272.833007812 476.6640625 264.5 461.997070312 c 0
 256.166992188 447.330078125 246 434.330078125 234 422.997070312 c 0
 222 411.6640625 209.166992188 401.6640625 195.5 392.997070312 c 0
 181.833007812 384.330078125 169.666015625 376.997070312 158.999023438 370.997070312 c 1
 151.666015625 382.330078125 147.333007812 395.997070312 146 411.997070312 c 0
 144.666992188 427.997070312 144 443.6640625 144 458.997070312 c 2
 144 506.997070312 l 1
165 256.998046875 m 2
 165.998046875 277.998046875 l 1
 181.331054688 281.331054688 195.998046875 285.831054688 209.998046875 291.498046875 c 0
 223.998046875 297.165039062 237.331054688 303.33203125 249.998046875 309.999023438 c 1
 270.665039062 301.33203125 280.998046875 279.33203125 280.998046875 243.999023438 c 0
 280.998046875 228.666015625 278.331054688 214.166015625 272.998046875 200.499023438 c 0
 267.665039062 186.83203125 260.83203125 173.999023438 252.499023438 161.999023438 c 0
 244.166015625 149.999023438 234.833007812 139.166015625 224.5 129.499023438 c 0
 214.166992188 119.83203125 204 111.665039062 194 104.998046875 c 1
 186.666992188 128.998046875 180 154.331054688 174 180.998046875 c 0
 168 207.665039062 165 232.998046875 165 256.998046875 c 2
EndSplineSet
EndChar

StartChar: C
Encoding: 67 67 37
Width: 322
GlyphClass: 2
Flags: W
LayerCount: 2
Fore
SplineSet
17 377 m 0
 17 341 19.1650390625 305.83203125 23.498046875 271.499023438 c 0
 27.8310546875 237.166015625 35.998046875 202.999023438 47.998046875 168.999023438 c 0
 56.6650390625 144.999023438 68.498046875 122.666015625 83.498046875 101.999023438 c 0
 98.498046875 81.33203125 115.165039062 63.33203125 133.498046875 47.9990234375 c 0
 151.831054688 32.666015625 171.331054688 20.666015625 191.998046875 11.9990234375 c 0
 212.665039062 3.33203125 232.998046875 -1.0009765625 252.998046875 -1.0009765625 c 0
 256.331054688 -1.0009765625 257.998046875 -0.333984375 257.998046875 0.9990234375 c 0
 257.998046875 1.666015625 258.665039062 3.9990234375 259.998046875 7.9990234375 c 2
 261.998046875 12.9990234375 l 2
 263.331054688 25.666015625 265.331054688 39.9990234375 267.998046875 55.9990234375 c 0
 270.665039062 71.9990234375 273.165039062 88.166015625 275.498046875 104.499023438 c 0
 277.831054688 120.83203125 279.998046875 136.999023438 281.998046875 152.999023438 c 0
 283.998046875 168.999023438 284.998046875 183.666015625 284.998046875 196.999023438 c 2
 284.998046875 201.999023438 l 1
 250.998046875 204.666015625 218.831054688 213.333007812 188.498046875 228 c 0
 158.165039062 242.666992188 131.665039062 268 108.998046875 304 c 0
 92.3310546875 332 80.8310546875 361.333007812 74.498046875 392 c 0
 68.1650390625 422.666992188 64.998046875 455.333984375 64.998046875 490.000976562 c 0
 64.998046875 508.000976562 65.6650390625 522.000976562 66.998046875 532.000976562 c 0
 68.3310546875 542.000976562 70.998046875 549.500976562 74.998046875 554.500976562 c 0
 78.998046875 559.500976562 84.998046875 562.500976562 92.998046875 563.500976562 c 0
 100.998046875 564.500976562 111.665039062 565.000976562 124.998046875 565.000976562 c 0
 139.665039062 565.000976562 152.83203125 564.000976562 164.499023438 562.000976562 c 0
 176.166015625 560.000976562 187.499023438 556.66796875 198.499023438 552.000976562 c 0
 209.499023438 547.333984375 220.33203125 541.166992188 230.999023438 533.5 c 0
 241.666015625 525.833007812 253.333007812 516.666015625 266 505.999023438 c 2
 268 504.999023438 l 2
 272 504.999023438 276.166992188 509.83203125 280.5 519.499023438 c 0
 284.833007812 529.166015625 288.666015625 539.999023438 291.999023438 551.999023438 c 0
 295.33203125 563.999023438 298.165039062 575.499023438 300.498046875 586.499023438 c 0
 302.831054688 597.499023438 303.998046875 604.33203125 303.998046875 606.999023438 c 2
 304.998046875 610.999023438 l 1
 304.998046875 663.999023438 l 2
 304.998046875 668.666015625 304.831054688 672.999023438 304.498046875 676.999023438 c 0
 304.165039062 680.999023438 303.665039062 684.666015625 302.998046875 687.999023438 c 0
 302.331054688 690.666015625 301.331054688 691.999023438 299.998046875 691.999023438 c 0
 288.665039062 695.33203125 280.33203125 697.33203125 274.999023438 697.999023438 c 0
 269.666015625 698.666015625 262.333007812 698.999023438 253 698.999023438 c 0
 219 698.999023438 188 689.499023438 160 670.499023438 c 0
 132 651.499023438 105.333007812 627.999023438 80 599.999023438 c 0
 79.3330078125 599.33203125 78.3330078125 598.999023438 77 598.999023438 c 0
 75.6669921875 598.999023438 75 601.33203125 75 605.999023438 c 2
 75 663.999023438 l 1
 71.6669921875 663.999023438 68.833984375 660.83203125 66.5009765625 654.499023438 c 0
 64.16796875 648.166015625 62.0009765625 640.833007812 60.0009765625 632.5 c 0
 58.0009765625 624.166992188 56.16796875 616.166992188 54.5009765625 608.5 c 0
 52.833984375 600.833007812 51.0009765625 596 49.0009765625 594 c 0
 42.333984375 583.333007812 35.5009765625 573 28.5009765625 563 c 0
 21.5009765625 553 16.333984375 541.333007812 13.0009765625 528 c 1
 18.333984375 531.333007812 21.6669921875 533.5 23 534.5 c 0
 24.3330078125 535.5 28.3330078125 536 35 536 c 1
 35 532 l 1
 29 504 24.5 478.5 21.5 455.5 c 0
 18.5 432.5 17 406.333007812 17 377 c 0
EndSplineSet
EndChar

StartChar: D
Encoding: 68 68 38
Width: 392
GlyphClass: 2
Flags: W
LayerCount: 2
Fore
SplineSet
52 57 m 1
 82.998046875 -2.00390625 l 1
 83.998046875 -2.00390625 l 1
 83.998046875 -1.00390625 l 1
 103.998046875 -0.00390625 l 2
 109.331054688 -0.00390625 119.831054688 5.1630859375 135.498046875 15.49609375 c 0
 151.165039062 25.8291015625 168.998046875 40.3291015625 188.998046875 58.99609375 c 0
 208.998046875 77.6630859375 229.998046875 99.830078125 251.998046875 125.497070312 c 0
 273.998046875 151.1640625 294.165039062 179.331054688 312.498046875 209.998046875 c 0
 330.831054688 240.665039062 345.998046875 273.33203125 357.998046875 307.999023438 c 0
 369.998046875 342.666015625 375.998046875 378.333007812 375.998046875 415 c 0
 375.998046875 422.333007812 375.665039062 430 374.998046875 438 c 0
 374.331054688 446 373.331054688 453.666992188 371.998046875 461 c 0
 371.998046875 462.333007812 371.165039062 467.166015625 369.498046875 475.499023438 c 0
 367.831054688 483.83203125 365.998046875 492.33203125 363.998046875 500.999023438 c 2
 361.998046875 516.999023438 l 1
 346.665039062 581.666015625 323.165039062 626.999023438 291.498046875 652.999023438 c 0
 259.831054688 678.999023438 222.331054688 691.999023438 178.998046875 691.999023438 c 0
 160.331054688 691.999023438 145.331054688 690.666015625 133.998046875 687.999023438 c 1
 132.998046875 698.999023438 l 1
 132.998046875 720.999023438 l 1
 127.998046875 733.999023438 l 1
 123.998046875 716.666015625 115.831054688 697.833007812 103.498046875 677.5 c 0
 91.1650390625 657.166992188 78.33203125 636.166992188 64.9990234375 614.5 c 0
 51.666015625 592.833007812 39.8330078125 570.666015625 29.5 547.999023438 c 0
 19.1669921875 525.33203125 14 502.999023438 14 480.999023438 c 2
 14 469.999023438 l 2
 14 463.999023438 14.3330078125 460.666015625 15 459.999023438 c 2
 16 454.999023438 l 1
 24 465.666015625 32.5 472.833007812 41.5 476.5 c 0
 50.5 480.166992188 60.6669921875 484.666992188 72 490 c 1
 68.6669921875 452 66.5 413 65.5 373 c 0
 64.5 333 64 292 64 250 c 0
 64 220 64.3330078125 191.166992188 65 163.5 c 0
 65.6669921875 135.833007812 66.6669921875 109 68 83 c 1
 56 81 50 75 50 65 c 2
 50.5 63 l 1
 52 57 l 1
134.998046875 504.99609375 m 2
 142.99609375 546.994140625 l 1
 143.99609375 546.994140625 l 2
 145.329101562 546.994140625 148.99609375 546.661132812 154.99609375 545.994140625 c 0
 160.99609375 545.327148438 167.829101562 544.16015625 175.49609375 542.493164062 c 0
 183.163085938 540.826171875 190.830078125 538.993164062 198.497070312 536.993164062 c 0
 206.1640625 534.993164062 212.331054688 532.66015625 216.998046875 529.993164062 c 0
 223.665039062 526.66015625 231.165039062 517.993164062 239.498046875 503.993164062 c 0
 247.831054688 489.993164062 255.331054688 467.993164062 261.998046875 437.993164062 c 0
 262.665039062 432.66015625 263.33203125 425.827148438 263.999023438 417.494140625 c 0
 264.666015625 409.161132812 265.333007812 400.494140625 266 391.494140625 c 0
 266.666992188 382.494140625 267.166992188 373.827148438 267.5 365.494140625 c 0
 267.833007812 357.161132812 268 350.328125 268 344.995117188 c 0
 268 320.328125 265.666992188 295.828125 261 271.495117188 c 0
 256.333007812 247.162109375 249.666015625 224.829101562 240.999023438 204.49609375 c 0
 232.33203125 184.163085938 221.999023438 166.330078125 209.999023438 150.997070312 c 0
 197.999023438 135.6640625 184.999023438 124.6640625 170.999023438 117.997070312 c 1
 168.999023438 123.330078125 166.999023438 132.830078125 164.999023438 146.497070312 c 0
 162.999023438 160.1640625 160.999023438 175.6640625 158.999023438 192.997070312 c 0
 156.999023438 210.330078125 154.83203125 228.663085938 152.499023438 247.99609375 c 0
 150.166015625 267.329101562 148.166015625 285.662109375 146.499023438 302.995117188 c 0
 144.83203125 320.328125 143.165039062 335.661132812 141.498046875 348.994140625 c 2
 137.998046875 376.994140625 l 2
 136.665039062 383.661132812 135.665039062 394.828125 134.998046875 410.495117188 c 0
 134.331054688 426.162109375 133.998046875 441.662109375 133.998046875 456.995117188 c 2
 133.998046875 484.995117188 l 2
 133.998046875 497.662109375 134.331054688 504.329101562 134.998046875 504.99609375 c 2
EndSplineSet
EndChar

StartChar: E
Encoding: 69 69 39
Width: 355
GlyphClass: 2
Flags: W
LayerCount: 2
Fore
SplineSet
44 77 m 1
 7.00390625 71.0068359375 l 1
 39.00390625 51.0068359375 71.50390625 34.33984375 104.50390625 21.0068359375 c 0
 137.50390625 7.673828125 173.00390625 1.0068359375 211.00390625 1.0068359375 c 1
 216.00390625 5.0068359375 l 2
 219.336914062 6.33984375 222.669921875 7.83984375 226.002929688 9.5068359375 c 0
 229.3359375 11.173828125 232.668945312 12.673828125 236.001953125 14.0068359375 c 2
 241.001953125 18.0068359375 l 1
 241.501953125 18.5068359375 l 2
 241.834960938 18.83984375 242.334960938 19.0068359375 243.001953125 19.0068359375 c 0
 248.334960938 20.33984375 256.16796875 24.6728515625 266.500976562 32.005859375 c 0
 276.833984375 39.3388671875 284.333984375 46.671875 289.000976562 54.0048828125 c 0
 291.000976562 58.0048828125 293.500976562 65.5048828125 296.500976562 76.5048828125 c 0
 299.500976562 87.5048828125 302.500976562 99.671875 305.500976562 113.004882812 c 0
 308.500976562 126.337890625 311.000976562 139.504882812 313.000976562 152.504882812 c 0
 315.000976562 165.504882812 316.000976562 176.004882812 316.000976562 184.004882812 c 2
 316.000976562 192.004882812 l 1
 181.000976562 114.004882812 l 1
 172.000976562 143.004882812 l 2
 168.000976562 156.337890625 163.500976562 171.170898438 158.500976562 187.50390625 c 0
 153.500976562 203.836914062 148.66796875 220.00390625 144.000976562 236.00390625 c 0
 139.333984375 252.00390625 135.500976562 267.336914062 132.500976562 282.00390625 c 0
 129.500976562 296.670898438 128.000976562 309.00390625 128.000976562 319.00390625 c 0
 128.000976562 322.336914062 128.16796875 324.836914062 128.500976562 326.50390625 c 0
 128.833984375 328.170898438 129.000976562 329.670898438 129.000976562 331.00390625 c 1
 154.333984375 318.336914062 179.000976562 307.336914062 203.000976562 298.00390625 c 0
 227.000976562 288.670898438 252.000976562 280.00390625 278.000976562 272.00390625 c 1
 277.333984375 275.336914062 276.833984375 278.669921875 276.500976562 282.002929688 c 0
 276.16796875 285.3359375 276.000976562 288.668945312 276.000976562 292.001953125 c 2
 276.000976562 315.001953125 l 2
 276.000976562 335.001953125 276.500976562 355.001953125 277.500976562 375.001953125 c 0
 278.500976562 395.001953125 279.66796875 411.668945312 281.000976562 425.001953125 c 2
 280.000976562 432.001953125 l 1
 230.000976562 420.001953125 l 2
 213.333984375 416.668945312 192.333984375 415.001953125 167.000976562 415.001953125 c 0
 153.66796875 415.001953125 142.334960938 416.001953125 133.001953125 418.001953125 c 0
 123.668945312 420.001953125 117.668945312 424.334960938 115.001953125 431.001953125 c 0
 115.001953125 432.334960938 114.668945312 433.501953125 114.001953125 434.501953125 c 0
 113.334960938 435.501953125 113.001953125 436.334960938 113.001953125 437.001953125 c 2
 113.001953125 444.001953125 l 2
 113.001953125 450.668945312 113.334960938 459.668945312 114.001953125 471.001953125 c 0
 114.668945312 482.334960938 115.501953125 495.001953125 116.501953125 509.001953125 c 0
 117.501953125 523.001953125 119.001953125 538.001953125 121.001953125 554.001953125 c 0
 123.001953125 570.001953125 125.334960938 586.001953125 128.001953125 602.001953125 c 0
 128.668945312 602.668945312 129.001953125 605.668945312 129.001953125 611.001953125 c 0
 129.001953125 615.001953125 129.334960938 617.001953125 130.001953125 617.001953125 c 1
 130.001953125 618.001953125 l 2
 130.001953125 618.668945312 130.668945312 619.001953125 132.001953125 619.001953125 c 0
 133.334960938 620.334960938 135.001953125 621.001953125 137.001953125 621.001953125 c 2
 140.001953125 621.001953125 l 2
 148.001953125 621.001953125 156.334960938 618.834960938 165.001953125 614.501953125 c 0
 173.668945312 610.168945312 182.168945312 604.8359375 190.501953125 598.502929688 c 0
 198.834960938 592.169921875 207.334960938 585.169921875 216.001953125 577.502929688 c 0
 224.668945312 569.8359375 233.001953125 562.668945312 241.001953125 556.001953125 c 2
 250.001953125 548.001953125 l 2
 255.334960938 542.668945312 258.66796875 539.501953125 260.000976562 538.501953125 c 2
 262.000976562 537.001953125 l 2
 265.333984375 533.001953125 270.000976562 528.168945312 276.000976562 522.501953125 c 0
 282.000976562 516.834960938 288.16796875 511.16796875 294.500976562 505.500976562 c 0
 300.833984375 499.833984375 307.000976562 494.333984375 313.000976562 489.000976562 c 0
 319.000976562 483.66796875 323.66796875 479.66796875 327.000976562 477.000976562 c 2
 329.000976562 475.000976562 l 1
 336.000976562 475.000976562 l 1
 336.000976562 474.000976562 l 1
 336.000976562 487.000976562 l 2
 336.000976562 494.333984375 335.833984375 502.333984375 335.500976562 511.000976562 c 0
 335.16796875 519.66796875 334.66796875 528.500976562 334.000976562 537.500976562 c 0
 333.333984375 546.500976562 332.666992188 554.000976562 332 560.000976562 c 0
 328.666992188 577.333984375 326.5 591.000976562 325.5 601.000976562 c 0
 324.5 611.000976562 321.666992188 622.66796875 317 636.000976562 c 0
 310.333007812 657.333984375 295.5 672.166992188 272.5 680.5 c 0
 249.5 688.833007812 224 693 196 693 c 0
 178 693 162.333007812 691.833007812 149 689.5 c 0
 135.666992188 687.166992188 124.333984375 684.333984375 115.000976562 681.000976562 c 1
 114.000976562 683.000976562 l 1
 110.000976562 717.000976562 l 1
 108.000976562 723.000976562 l 1
 108.000976562 722.333984375 107.333984375 720.333984375 106.000976562 717.000976562 c 0
 104.66796875 713.66796875 103.16796875 710.16796875 101.500976562 706.500976562 c 0
 99.833984375 702.833984375 98.333984375 699.500976562 97.0009765625 696.500976562 c 0
 95.66796875 693.500976562 94.66796875 691.66796875 94.0009765625 691.000976562 c 0
 92.66796875 687.66796875 90.66796875 683.66796875 88.0009765625 679.000976562 c 0
 85.333984375 674.333984375 83.6669921875 672.000976562 83 672.000976562 c 2
 29 623.000976562 l 1
 31 617.000976562 l 1
 36.3330078125 619.000976562 41 621.000976562 45 623.000976562 c 0
 49 625.000976562 53.6669921875 626.000976562 59 626.000976562 c 0
 61 626.000976562 64.6669921875 625.000976562 70 623.000976562 c 2
 76 621.000976562 l 1
 44 447.000976562 l 1
 42.6669921875 448.333984375 39 449.333984375 33 450.000976562 c 0
 27 450.66796875 21.3330078125 451.000976562 16 451.000976562 c 2
 7 451.000976562 l 1
 4 449.000976562 l 1
 2 439.000976562 l 1
 6 433.000976562 l 1
 12 424.000976562 l 1
 40 393.000976562 l 1
 40 376.000976562 l 2
 40 370.66796875 40.1669921875 366.500976562 40.5 363.500976562 c 0
 40.8330078125 360.500976562 41.3330078125 357.66796875 42 355.000976562 c 2
 42 264.000976562 l 1
 40 242.000976562 l 2
 40 215.333984375 40.3330078125 189.166992188 41 163.5 c 0
 41.6669921875 137.833007812 42.6669921875 109 44 77 c 1
EndSplineSet
EndChar

StartChar: F
Encoding: 70 70 40
Width: 342
GlyphClass: 2
Flags: W
LayerCount: 2
Fore
SplineSet
40 428 m 1
 -7.9990234375 433.00390625 l 1
 6.0009765625 397.00390625 l 2
 6.66796875 395.00390625 8.16796875 392.00390625 10.5009765625 388.00390625 c 0
 12.833984375 384.00390625 15.1669921875 379.836914062 17.5 375.50390625 c 0
 19.8330078125 371.170898438 21.8330078125 367.170898438 23.5 363.50390625 c 0
 25.1669921875 359.836914062 26 357.669921875 26 357.002929688 c 0
 26 356.3359375 26.1669921875 355.668945312 26.5 355.001953125 c 0
 26.8330078125 354.334960938 27 353.334960938 27 352.001953125 c 0
 27 350.668945312 26.8330078125 349.168945312 26.5 347.501953125 c 0
 26.1669921875 345.834960938 26 343.334960938 26 340.001953125 c 2
 26 263.001953125 l 2
 26.6669921875 251.668945312 27.833984375 238.3359375 29.5009765625 223.002929688 c 0
 31.16796875 207.669921875 33.0009765625 192.169921875 35.0009765625 176.502929688 c 0
 37.0009765625 160.8359375 39.0009765625 145.668945312 41.0009765625 131.001953125 c 0
 43.0009765625 116.334960938 44.66796875 103.66796875 46.0009765625 93.0009765625 c 0
 47.333984375 87.0009765625 49.0009765625 79.333984375 51.0009765625 70.0009765625 c 0
 53.0009765625 60.66796875 55.16796875 51.5009765625 57.5009765625 42.5009765625 c 0
 59.833984375 33.5009765625 61.833984375 25.66796875 63.5009765625 19.0009765625 c 0
 65.16796875 12.333984375 66.3349609375 8.6669921875 67.001953125 8 c 2
 73.001953125 0 l 1
 168.001953125 34 l 2
 172.668945312 35.3330078125 175.168945312 37.3330078125 175.501953125 40 c 0
 175.834960938 42.6669921875 176.001953125 45.6669921875 176.001953125 49 c 2
 176.001953125 51 l 2
 176.001953125 66.3330078125 173.834960938 83.666015625 169.501953125 102.999023438 c 0
 165.168945312 122.33203125 160.501953125 142.665039062 155.501953125 163.998046875 c 0
 150.501953125 185.331054688 146.001953125 207.1640625 142.001953125 229.497070312 c 0
 138.001953125 251.830078125 136.001953125 273.997070312 136.001953125 295.997070312 c 1
 287.001953125 288.997070312 l 1
 287.001953125 290.997070312 286.668945312 295.1640625 286.001953125 301.497070312 c 0
 285.334960938 307.830078125 284.66796875 311.997070312 284.000976562 313.997070312 c 0
 282.66796875 321.997070312 280.500976562 331.830078125 277.500976562 343.497070312 c 0
 274.500976562 355.1640625 271.500976562 366.6640625 268.500976562 377.997070312 c 0
 265.500976562 389.330078125 262.833984375 398.997070312 260.500976562 406.997070312 c 2
 257.000976562 418.997070312 l 1
 141.000976562 410.997070312 l 2
 138.333984375 410.997070312 136.166992188 414.330078125 134.5 420.997070312 c 0
 132.833007812 427.6640625 131.5 435.831054688 130.5 445.498046875 c 0
 129.5 455.165039062 128.833007812 465.498046875 128.5 476.498046875 c 0
 128.166992188 487.498046875 128 497.331054688 128 505.998046875 c 2
 128 560.998046875 l 1
 135 568.998046875 l 2
 135 569.665039062 138.666992188 568.83203125 146 566.499023438 c 0
 153.333007812 564.166015625 162.166015625 561.166015625 172.499023438 557.499023438 c 0
 182.83203125 553.83203125 193.33203125 549.83203125 203.999023438 545.499023438 c 0
 214.666015625 541.166015625 223.333007812 537.666015625 230 534.999023438 c 2
 277 509.999023438 l 2
 277.666992188 509.999023438 278.666992188 509.83203125 280 509.499023438 c 0
 281.333007812 509.166015625 282.666015625 508.999023438 283.999023438 508.999023438 c 0
 285.33203125 508.999023438 286.83203125 509.166015625 288.499023438 509.499023438 c 2
 290.999023438 509.999023438 l 1
 295.666015625 530.666015625 301.666015625 550.999023438 308.999023438 570.999023438 c 0
 316.33203125 590.999023438 323.999023438 610.33203125 331.999023438 628.999023438 c 0
 331.999023438 630.33203125 331.166015625 631.999023438 329.499023438 633.999023438 c 0
 327.83203125 635.999023438 326.33203125 636.999023438 324.999023438 636.999023438 c 2
 283.999023438 653.999023438 l 2
 281.33203125 655.33203125 276.83203125 656.999023438 270.499023438 658.999023438 c 0
 264.166015625 660.999023438 257.666015625 662.83203125 250.999023438 664.499023438 c 2
 232.999023438 668.999023438 l 2
 227.666015625 670.33203125 224.333007812 670.999023438 223 670.999023438 c 0
 219.666992188 671.666015625 214 672.499023438 206 673.499023438 c 0
 198 674.499023438 189.5 675.499023438 180.5 676.499023438 c 0
 171.5 677.499023438 163 678.33203125 155 678.999023438 c 0
 147 679.666015625 141.333007812 679.999023438 138 679.999023438 c 1
 138 721.999023438 l 1
 128 721.999023438 l 1
 94 670.999023438 l 2
 89.3330078125 663.666015625 83.3330078125 657.499023438 76 652.499023438 c 0
 68.6669921875 647.499023438 61.1669921875 642.666015625 53.5 637.999023438 c 0
 45.8330078125 633.33203125 38.8330078125 628.33203125 32.5 622.999023438 c 0
 26.1669921875 617.666015625 21.6669921875 610.999023438 19 602.999023438 c 0
 17.6669921875 601.666015625 17 599.333007812 17 596 c 2
 17 591 l 1
 60 591 l 1
 60 578 l 2
 58.6669921875 567.333007812 57 553.5 55 536.5 c 0
 53 519.5 50.8330078125 503 48.5 487 c 0
 46.1669921875 471 44.1669921875 457.166992188 42.5 445.5 c 2
 40 428 l 1
EndSplineSet
EndChar

StartChar: G
Encoding: 71 71 41
Width: 365
GlyphClass: 2
Flags: W
LayerCount: 2
Fore
SplineSet
256 21 m 1
 257.333007812 15.6669921875 258.665039062 8.1689453125 259.998046875 -1.498046875 c 0
 261.331054688 -11.1650390625 264.331054688 -17.6650390625 268.998046875 -20.998046875 c 1
 276.998046875 -11.6650390625 285.831054688 0.16796875 295.498046875 14.5009765625 c 0
 305.165039062 28.833984375 314.33203125 44.1669921875 322.999023438 60.5 c 0
 331.666015625 76.8330078125 338.833007812 93.5 344.5 110.5 c 0
 350.166992188 127.5 353 143 353 157 c 1
 332 157 l 1
 338 262 l 1
 338 287 l 2
 338 295.666992188 337.666992188 304.666992188 337 314 c 0
 336.333007812 323.333007812 335.333007812 332.333007812 334 341 c 0
 332.666992188 349.666992188 330.5 357.333984375 327.5 364.000976562 c 0
 324.5 370.66796875 321 375.334960938 317 378.001953125 c 1
 298.333007812 366.001953125 278.833007812 356.334960938 258.5 349.001953125 c 0
 238.166992188 341.668945312 216.666992188 336.3359375 194 333.002929688 c 1
 206 306.3359375 218 276.168945312 230 242.501953125 c 0
 242 208.834960938 248 175.66796875 248 143.000976562 c 1
 224 143.000976562 203.333007812 150.000976562 186 164.000976562 c 0
 168.666992188 178.000976562 154.5 196.333984375 143.5 219.000976562 c 0
 132.5 241.66796875 124.5 267.66796875 119.5 297.000976562 c 0
 114.5 326.333984375 112 356.000976562 112 386.000976562 c 0
 112 392.000976562 112.5 401.16796875 113.5 413.500976562 c 0
 114.5 425.833984375 116 439.500976562 118 454.500976562 c 0
 120 469.500976562 122.333007812 484.833984375 125 500.500976562 c 0
 127.666992188 516.16796875 130.833984375 530.834960938 134.500976562 544.501953125 c 0
 138.16796875 558.168945312 142.16796875 569.501953125 146.500976562 578.501953125 c 0
 150.833984375 587.501953125 155.333984375 592.668945312 160.000976562 594.001953125 c 0
 160.66796875 594.668945312 162.66796875 595.001953125 166.000976562 595.001953125 c 0
 174.66796875 595.001953125 184.16796875 589.501953125 194.500976562 578.501953125 c 0
 204.833984375 567.501953125 214.833984375 555.001953125 224.500976562 541.001953125 c 0
 234.16796875 527.001953125 243.000976562 513.168945312 251.000976562 499.501953125 c 0
 259.000976562 485.834960938 265.000976562 476.334960938 269.000976562 471.001953125 c 1
 276.000976562 471.001953125 l 1
 284.000976562 491.001953125 293.500976562 511.501953125 304.500976562 532.501953125 c 0
 315.500976562 553.501953125 326.66796875 572.668945312 338.000976562 590.001953125 c 1
 332.66796875 599.334960938 326.334960938 606.66796875 319.001953125 612.000976562 c 0
 311.668945312 617.333984375 304.3359375 622.000976562 297.002929688 626.000976562 c 0
 293.669921875 628.000976562 288.169921875 630.833984375 280.502929688 634.500976562 c 0
 272.8359375 638.16796875 264.668945312 641.834960938 256.001953125 645.501953125 c 0
 247.334960938 649.168945312 239.16796875 652.668945312 231.500976562 656.001953125 c 0
 223.833984375 659.334960938 218.333984375 661.66796875 215.000976562 663.000976562 c 2
 215.000976562 671.000976562 l 2
 215.66796875 673.000976562 216.500976562 677.66796875 217.500976562 685.000976562 c 0
 218.500976562 692.333984375 219.66796875 697.000976562 221.000976562 699.000976562 c 1
 200.000976562 705.000976562 l 2
 194.66796875 707.000976562 189.334960938 708.000976562 184.001953125 708.000976562 c 0
 173.334960938 708.000976562 162.66796875 705.833984375 152.000976562 701.500976562 c 0
 141.333984375 697.16796875 130.666992188 691.66796875 120 685.000976562 c 0
 109.333007812 678.333984375 98.666015625 671.333984375 87.9990234375 664.000976562 c 0
 77.33203125 656.66796875 66.9990234375 650.000976562 56.9990234375 644.000976562 c 2
 15.9990234375 617.000976562 l 1
 15.9990234375 608.000976562 l 1
 27.33203125 606.000976562 38.83203125 603.66796875 50.4990234375 601.000976562 c 0
 62.166015625 598.333984375 73.3330078125 594.666992188 84 590 c 1
 60 546 42.6669921875 500.333007812 32 453 c 0
 21.3330078125 405.666992188 16 355 16 301 c 0
 16 204.333007812 31.5 133 62.5 87 c 0
 93.5 41 143.333007812 18 212 18 c 0
 225.333007812 18 240 19 256 21 c 1
EndSplineSet
EndChar

StartChar: H
Encoding: 72 72 42
Width: 386
GlyphClass: 2
Flags: W
LayerCount: 2
Fore
SplineSet
27 299 m 0
 27 273 27.3330078125 248.499023438 28 225.499023438 c 0
 28.6669921875 202.499023438 29.833984375 179.83203125 31.5009765625 157.499023438 c 0
 33.16796875 135.166015625 35.3349609375 112.833007812 38.001953125 90.5 c 0
 40.6689453125 68.1669921875 44.001953125 44.6669921875 48.001953125 20 c 1
 48.001953125 16 l 1
 50.001953125 9 l 2
 51.3349609375 4.3330078125 52.3349609375 1.5 53.001953125 0.5 c 0
 53.6689453125 -0.5 56.001953125 -1 60.001953125 -1 c 0
 61.3349609375 -1 63.001953125 -0.8330078125 65.001953125 -0.5 c 2
 68.001953125 0 l 2
 71.3349609375 0.6669921875 77.16796875 2.1669921875 85.5009765625 4.5 c 0
 93.833984375 6.8330078125 102.666992188 9.5 112 12.5 c 0
 121.333007812 15.5 130.5 18.5 139.5 21.5 c 0
 148.5 24.5 155.333007812 27 160 29 c 0
 161.333007812 29 162.333007812 29.1669921875 163 29.5 c 2
 164 30 l 1
 164 50 l 2
 164 53.3330078125 164.166992188 56.3330078125 164.5 59 c 0
 164.833007812 61.6669921875 165 63.6669921875 165 65 c 0
 165 68.3330078125 164.666992188 70.8330078125 164 72.5 c 0
 163.333007812 74.1669921875 162.666015625 76.1669921875 161.999023438 78.5 c 0
 161.33203125 80.8330078125 160.499023438 84.3330078125 159.499023438 89 c 0
 158.499023438 93.6669921875 157.666015625 100.666992188 156.999023438 110 c 0
 155.666015625 116 153.999023438 126.5 151.999023438 141.5 c 0
 149.999023438 156.5 147.999023438 172.5 145.999023438 189.5 c 0
 143.999023438 206.5 141.999023438 222.5 139.999023438 237.5 c 0
 137.999023438 252.5 136.666015625 263 135.999023438 269 c 1
 143.999023438 269 l 2
 150.666015625 269 159.333007812 268.166992188 170 266.5 c 0
 180.666992188 264.833007812 191.333984375 262.166015625 202.000976562 258.499023438 c 0
 212.66796875 254.83203125 222.500976562 249.83203125 231.500976562 243.499023438 c 0
 240.500976562 237.166015625 247.000976562 229.333007812 251.000976562 220 c 1
 251.000976562 175 l 2
 251.000976562 159.666992188 250.66796875 146.166992188 250.000976562 134.5 c 0
 249.333984375 122.833007812 248.333984375 111.333007812 247.000976562 100 c 0
 245.66796875 88.6669921875 244.000976562 76.833984375 242.000976562 64.5009765625 c 0
 240.000976562 52.16796875 237.66796875 38.0009765625 235.000976562 22.0009765625 c 2
 232.000976562 10.0009765625 l 1
 236.000976562 9.0009765625 l 2
 246.000976562 9.0009765625 254.500976562 13.5009765625 261.500976562 22.5009765625 c 0
 268.500976562 31.5009765625 274.66796875 43.0009765625 280.000976562 57.0009765625 c 0
 285.333984375 71.0009765625 290.500976562 85.833984375 295.500976562 101.500976562 c 0
 300.500976562 117.16796875 306.16796875 132.000976562 312.500976562 146.000976562 c 0
 318.833984375 160.000976562 326.500976562 171.500976562 335.500976562 180.500976562 c 0
 344.500976562 189.500976562 356.000976562 194.000976562 370.000976562 194.000976562 c 1
 364.000976562 299.000976562 l 1
 376.000976562 370.000976562 l 2
 376.66796875 370.66796875 377.000976562 373.334960938 377.000976562 378.001953125 c 2
 377.000976562 384.001953125 l 1
 349.000976562 384.001953125 l 1
 349.66796875 390.001953125 350.500976562 400.668945312 351.500976562 416.001953125 c 0
 352.500976562 431.334960938 353.333984375 447.834960938 354.000976562 465.501953125 c 0
 354.66796875 483.168945312 355.16796875 499.8359375 355.500976562 515.502929688 c 0
 355.833984375 531.169921875 356.000976562 542.336914062 356.000976562 549.00390625 c 2
 356.000976562 575.00390625 l 1
 356.000976562 605.00390625 l 2
 356.000976562 619.670898438 355.66796875 633.50390625 355.000976562 646.50390625 c 0
 354.333984375 659.50390625 352.333984375 677.00390625 349.000976562 699.00390625 c 1
 343.000976562 699.00390625 l 2
 338.333984375 699.00390625 329.666992188 698.50390625 317 697.50390625 c 0
 304.333007812 696.50390625 291.5 694.50390625 278.5 691.50390625 c 0
 265.5 688.50390625 253.833007812 684.50390625 243.5 679.50390625 c 0
 233.166992188 674.50390625 228 668.00390625 228 660.00390625 c 2
 228 649.00390625 l 2
 228 645.00390625 228.833007812 638.336914062 230.5 629.00390625 c 0
 232.166992188 619.670898438 233.666992188 613.00390625 235 609.00390625 c 0
 239.666992188 585.00390625 243.833984375 562.170898438 247.500976562 540.50390625 c 0
 251.16796875 518.836914062 253.000976562 497.336914062 253.000976562 476.00390625 c 0
 253.000976562 449.336914062 252.000976562 423.669921875 250.000976562 399.002929688 c 1
 131.000976562 399.002929688 l 1
 102.000976562 719.002929688 l 1
 96.0009765625 719.002929688 l 1
 93.0009765625 712.002929688 l 2
 91.0009765625 707.3359375 89.0009765625 701.8359375 87.0009765625 695.502929688 c 0
 85.0009765625 689.169921875 82.833984375 682.669921875 80.5009765625 676.002929688 c 0
 78.16796875 669.3359375 76.66796875 663.668945312 76.0009765625 659.001953125 c 0
 70.66796875 639.001953125 66.5009765625 616.168945312 63.5009765625 590.501953125 c 0
 60.5009765625 564.834960938 57.66796875 539.001953125 55.0009765625 513.001953125 c 0
 52.333984375 487.001953125 49.5009765625 462.168945312 46.5009765625 438.501953125 c 0
 43.5009765625 414.834960938 39.333984375 395.001953125 34.0009765625 379.001953125 c 0
 33.333984375 377.668945312 31.6669921875 375.001953125 29 371.001953125 c 0
 26.3330078125 367.001953125 23.3330078125 362.668945312 20 358.001953125 c 0
 16.6669921875 353.334960938 13.6669921875 349.16796875 11 345.500976562 c 0
 8.3330078125 341.833984375 6.666015625 339.666992188 5.9990234375 339 c 2
 5.4990234375 337.5 l 2
 5.166015625 336.5 4.9990234375 335.666992188 4.9990234375 335 c 0
 4.9990234375 333.666992188 5.166015625 332.5 5.4990234375 331.5 c 2
 5.9990234375 330 l 2
 6.666015625 328.666992188 7.8330078125 326.5 9.5 323.5 c 0
 11.1669921875 320.5 13.1669921875 317.333007812 15.5 314 c 0
 17.8330078125 310.666992188 20 307.5 22 304.5 c 0
 24 301.5 25.6669921875 299.666992188 27 299 c 0
EndSplineSet
EndChar

StartChar: I
Encoding: 73 73 43
Width: 158
GlyphClass: 2
Flags: W
LayerCount: 2
Fore
SplineSet
16 211 m 2
 16 139 l 2
 16 127.666992188 17 116 19 104 c 2
 27 56 l 1
 28 47 l 2
 28.6669921875 41 29.6669921875 34.5 31 27.5 c 0
 32.3330078125 20.5 34 14.1669921875 36 8.5 c 0
 38 2.8330078125 40.3330078125 0 43 0 c 2
 47 0 l 1
 144 37 l 1
 145 56 l 2
 143 74 140.166992188 97.5 136.5 126.5 c 0
 132.833007812 155.5 129.333007812 185.833007812 126 217.5 c 0
 122.666992188 249.166992188 119.5 279.833984375 116.5 309.500976562 c 0
 113.5 339.16796875 111.666992188 364.000976562 111 384.000976562 c 2
 110 391.000976562 l 1
 110 433.000976562 l 2
 110 471.000976562 110.833007812 507.833984375 112.5 543.500976562 c 0
 114.166992188 579.16796875 116 615.000976562 118 651.000976562 c 1
 117 661.000976562 l 1
 117 702.000976562 l 1
 95 678.000976562 77.3330078125 645.66796875 64 605.000976562 c 0
 50.6669921875 564.333984375 40.5 521.000976562 33.5 475.000976562 c 0
 26.5 429.000976562 21.8330078125 382.66796875 19.5 336.000976562 c 0
 17.1669921875 289.333984375 16 247.666992188 16 211 c 2
EndSplineSet
EndChar

StartChar: J
Encoding: 74 74 44
Width: 366
GlyphClass: 2
Flags: W
LayerCount: 2
Fore
SplineSet
9 80 m 0
 9 78 10.3388671875 74.001953125 13.005859375 68.001953125 c 2
 13.005859375 65.001953125 l 2
 13.005859375 58.3349609375 17.3388671875 52.001953125 26.005859375 46.001953125 c 0
 34.6728515625 40.001953125 46.005859375 34.3349609375 60.005859375 29.001953125 c 1
 63.005859375 26.001953125 l 2
 64.3388671875 24.6689453125 67.171875 23.001953125 71.5048828125 21.001953125 c 0
 75.837890625 19.001953125 79.6708984375 18.001953125 83.00390625 18.001953125 c 0
 84.3369140625 16.001953125 86.169921875 14.6689453125 88.5029296875 14.001953125 c 0
 90.8359375 13.3349609375 93.3359375 12.3349609375 96.0029296875 11.001953125 c 0
 103.3359375 9.001953125 107.668945312 7.6689453125 109.001953125 7.001953125 c 0
 110.334960938 6.3349609375 112.66796875 5.66796875 116.000976562 5.0009765625 c 0
 138.66796875 3.66796875 154.834960938 2.5009765625 164.501953125 1.5009765625 c 0
 174.168945312 0.5009765625 181.3359375 0.0009765625 186.002929688 0.0009765625 c 2
 209.002929688 -0.9990234375 l 2
 214.3359375 -0.9990234375 225.002929688 0.0009765625 241.002929688 2.0009765625 c 0
 257.002929688 4.0009765625 273.502929688 7.16796875 290.502929688 11.5009765625 c 0
 307.502929688 15.833984375 322.669921875 21.5009765625 336.002929688 28.5009765625 c 0
 349.3359375 35.5009765625 356.002929688 44.0009765625 356.002929688 54.0009765625 c 2
 356.002929688 61.0009765625 l 1
 354.669921875 61.0009765625 353.169921875 61.16796875 351.502929688 61.5009765625 c 2
 349.002929688 62.0009765625 l 1
 305.002929688 80.0009765625 l 1
 305.002929688 89.0009765625 l 1
 312.002929688 116.000976562 l 2
 314.669921875 126.66796875 317.669921875 140.834960938 321.002929688 158.501953125 c 0
 324.3359375 176.168945312 327.502929688 193.501953125 330.502929688 210.501953125 c 0
 333.502929688 227.501953125 336.002929688 242.168945312 338.002929688 254.501953125 c 0
 340.002929688 266.834960938 341.002929688 273.66796875 341.002929688 275.000976562 c 2
 341.002929688 572.000976562 l 2
 341.002929688 574.66796875 340.502929688 579.66796875 339.502929688 587.000976562 c 0
 338.502929688 594.333984375 337.169921875 602.000976562 335.502929688 610.000976562 c 0
 333.8359375 618.000976562 331.668945312 625.16796875 329.001953125 631.500976562 c 0
 326.334960938 637.833984375 323.66796875 641.666992188 321.000976562 643 c 0
 298.333984375 651.666992188 275.500976562 661.166992188 252.500976562 671.5 c 0
 229.500976562 681.833007812 206.66796875 693 184.000976562 705 c 1
 184.000976562 697 l 1
 191.000976562 666 l 2
 204.333984375 604.666992188 216.166992188 545.166992188 226.5 487.5 c 0
 236.833007812 429.833007812 242 368 242 302 c 0
 242 294 241.833007812 279.5 241.5 258.5 c 0
 241.166992188 237.5 240.5 215.666992188 239.5 193 c 0
 238.5 170.333007812 236.5 150.333007812 233.5 133 c 0
 230.5 115.666992188 226.666992188 107 222 107 c 2
 202 107 l 2
 198 107 196 107.333007812 196 108 c 0
 178.666992188 120 161.5 134 144.5 150 c 0
 127.5 166 113.666992188 182.666992188 103 200 c 0
 97 210 90.6669921875 222.5 84 237.5 c 0
 77.3330078125 252.5 70.3330078125 263.666992188 63 271 c 1
 60 271 l 1
 54 262.333007812 48 250.166015625 42 234.499023438 c 0
 36 218.83203125 30.5 201.83203125 25.5 183.499023438 c 0
 20.5 165.166015625 16.5 146.833007812 13.5 128.5 c 0
 10.5 110.166992188 9 94 9 80 c 0
EndSplineSet
EndChar

StartChar: K
Encoding: 75 75 45
Width: 388
GlyphClass: 2
Flags: W
LayerCount: 2
Fore
SplineSet
40 296 m 2
 39.9970703125 117 l 2
 43.330078125 77 46.4970703125 48.6669921875 49.4970703125 32 c 0
 52.4970703125 15.3330078125 53.9970703125 7.3330078125 53.9970703125 8 c 1
 62.9970703125 5 l 1
 182.997070312 44 l 1
 190.997070312 51 l 1
 188.330078125 58.3330078125 184.830078125 68.666015625 180.497070312 81.9990234375 c 0
 176.1640625 95.33203125 171.997070312 109.499023438 167.997070312 124.499023438 c 0
 163.997070312 139.499023438 160.497070312 154.33203125 157.497070312 168.999023438 c 0
 154.497070312 183.666015625 152.997070312 195.999023438 152.997070312 205.999023438 c 2
 152.997070312 209.999023438 l 2
 152.997070312 217.33203125 154.330078125 220.999023438 156.997070312 220.999023438 c 0
 160.330078125 220.999023438 163.330078125 216.666015625 165.997070312 207.999023438 c 2
 178.997070312 184.999023438 l 2
 187.6640625 170.33203125 196.497070312 155.33203125 205.497070312 139.999023438 c 0
 214.497070312 124.666015625 223.997070312 109.833007812 233.997070312 95.5 c 0
 243.997070312 81.1669921875 254.330078125 67.6669921875 264.997070312 55 c 0
 275.6640625 42.3330078125 286.997070312 31.666015625 298.997070312 22.9990234375 c 1
 306.997070312 27.666015625 315.330078125 34.9990234375 323.997070312 44.9990234375 c 0
 332.6640625 54.9990234375 340.831054688 66.166015625 348.498046875 78.4990234375 c 0
 356.165039062 90.83203125 362.665039062 103.33203125 367.998046875 115.999023438 c 0
 373.331054688 128.666015625 376.998046875 139.999023438 378.998046875 149.999023438 c 2
 379.998046875 155.999023438 l 2
 379.998046875 159.33203125 379.665039062 161.999023438 378.998046875 163.999023438 c 0
 378.331054688 165.999023438 376.331054688 168.666015625 372.998046875 171.999023438 c 0
 340.998046875 188.666015625 311.665039062 206.999023438 284.998046875 226.999023438 c 0
 258.331054688 246.999023438 229.998046875 268.999023438 199.998046875 292.999023438 c 1
 198.998046875 294.999023438 l 2
 194.998046875 298.999023438 189.831054688 303.83203125 183.498046875 309.499023438 c 0
 177.165039062 315.166015625 171.165039062 320.666015625 165.498046875 325.999023438 c 0
 159.831054688 331.33203125 154.998046875 335.83203125 150.998046875 339.499023438 c 0
 146.998046875 343.166015625 144.998046875 345.333007812 144.998046875 346 c 2
 146.998046875 356 l 2
 150.998046875 358 157.498046875 362.333007812 166.498046875 369 c 0
 175.498046875 375.666992188 184.831054688 383 194.498046875 391 c 0
 204.165039062 399 213.33203125 406.666992188 221.999023438 414 c 0
 230.666015625 421.333007812 236.666015625 426.666015625 239.999023438 429.999023438 c 0
 247.999023438 435.33203125 257.166015625 443.499023438 267.499023438 454.499023438 c 0
 277.83203125 465.499023438 287.665039062 477.499023438 296.998046875 490.499023438 c 0
 306.331054688 503.499023438 314.831054688 516.83203125 322.498046875 530.499023438 c 0
 330.165039062 544.166015625 335.33203125 556.333007812 337.999023438 567 c 2
 339.999023438 581 l 1
 335.999023438 589.666992188 330.666015625 600.333984375 323.999023438 613.000976562 c 0
 317.33203125 625.66796875 309.999023438 638.16796875 301.999023438 650.500976562 c 0
 293.999023438 662.833984375 285.666015625 673.666992188 276.999023438 683 c 0
 268.33203125 692.333007812 259.665039062 698 250.998046875 700 c 2
 246.998046875 700 l 2
 245.665039062 700 243.998046875 699.166992188 241.998046875 697.5 c 0
 239.998046875 695.833007812 238.331054688 694.333007812 236.998046875 693 c 0
 234.331054688 676.333007812 230.331054688 655.666015625 224.998046875 630.999023438 c 0
 219.665039062 606.33203125 212.998046875 581.83203125 204.998046875 557.499023438 c 0
 196.998046875 533.166015625 187.165039062 510.999023438 175.498046875 490.999023438 c 0
 163.831054688 470.999023438 150.331054688 457.33203125 134.998046875 449.999023438 c 1
 127.998046875 461.999023438 l 1
 126.498046875 469.999023438 l 2
 125.498046875 475.33203125 124.165039062 481.665039062 122.498046875 488.998046875 c 0
 120.831054688 496.331054688 119.331054688 504.331054688 117.998046875 512.998046875 c 0
 116.665039062 521.665039062 115.998046875 529.33203125 115.998046875 535.999023438 c 2
 116.998046875 553.999023438 l 2
 117.665039062 561.999023438 119.498046875 574.33203125 122.498046875 590.999023438 c 0
 125.498046875 607.666015625 128.831054688 625.166015625 132.498046875 643.499023438 c 0
 136.165039062 661.83203125 139.498046875 679.165039062 142.498046875 695.498046875 c 0
 145.498046875 711.831054688 147.331054688 723.331054688 147.998046875 729.998046875 c 1
 127.998046875 717.998046875 l 2
 126.665039062 716.665039062 123.33203125 709.998046875 117.999023438 697.998046875 c 0
 112.666015625 685.998046875 106.666015625 672.165039062 99.9990234375 656.498046875 c 0
 93.33203125 640.831054688 87.33203125 624.998046875 81.9990234375 608.998046875 c 0
 76.666015625 592.998046875 73.3330078125 580.331054688 72 570.998046875 c 0
 70.6669921875 567.665039062 69 562.33203125 67 554.999023438 c 0
 65 547.666015625 63 538.999023438 61 528.999023438 c 0
 59 518.999023438 57 508.33203125 55 496.999023438 c 0
 53 485.666015625 51.3330078125 474.666015625 50 463.999023438 c 0
 48.6669921875 456.666015625 47.833984375 449.999023438 47.5009765625 443.999023438 c 0
 47.16796875 437.999023438 46.66796875 432.33203125 46.0009765625 426.999023438 c 2
 46.0009765625 421.999023438 l 2
 46.0009765625 413.33203125 46.16796875 406.33203125 46.5009765625 400.999023438 c 0
 46.833984375 395.666015625 47.0009765625 390.666015625 47.0009765625 385.999023438 c 2
 47.0009765625 381.999023438 l 1
 28.333984375 351.999023438 5.333984375 328.33203125 -21.9990234375 310.999023438 c 1
 0.0009765625 304.999023438 l 1
 34.0009765625 304.999023438 l 2
 35.333984375 304.999023438 36.6669921875 303.83203125 38 301.499023438 c 0
 39.3330078125 299.166015625 40 297.333007812 40 296 c 2
EndSplineSet
EndChar

StartChar: L
Encoding: 76 76 46
Width: 351
GlyphClass: 2
Flags: W
LayerCount: 2
Fore
SplineSet
124 19 m 1
 147.000976562 -30.0068359375 l 1
 147.000976562 29.9931640625 l 2
 147.000976562 31.326171875 147.66796875 31.9931640625 149.000976562 31.9931640625 c 2
 152.000976562 31.9931640625 l 1
 176.000976562 27.326171875 198.500976562 21.9931640625 219.500976562 15.9931640625 c 0
 240.500976562 9.9931640625 262.333984375 1.326171875 285.000976562 -10.0068359375 c 1
 286.000976562 -10.0068359375 l 2
 286.66796875 -10.0068359375 287.500976562 -7.83984375 288.500976562 -3.5068359375 c 0
 289.500976562 0.826171875 290.500976562 5.9931640625 291.500976562 11.9931640625 c 0
 292.500976562 17.9931640625 293.66796875 23.9931640625 295.000976562 29.9931640625 c 0
 296.333984375 35.9931640625 297.666992188 40.66015625 299 43.9931640625 c 0
 304.333007812 63.326171875 310.333007812 81.9931640625 317 99.9931640625 c 0
 323.666992188 117.993164062 331.333984375 135.66015625 340.000976562 152.993164062 c 1
 340.000976562 154.993164062 l 1
 280.000976562 160.993164062 l 2
 268.66796875 160.993164062 256.834960938 160.326171875 244.501953125 158.993164062 c 0
 232.168945312 157.66015625 219.668945312 154.327148438 207.001953125 148.994140625 c 2
 195.001953125 144.994140625 l 2
 189.001953125 142.994140625 182.834960938 140.827148438 176.501953125 138.494140625 c 0
 170.168945312 136.161132812 164.168945312 133.994140625 158.501953125 131.994140625 c 0
 152.834960938 129.994140625 149.001953125 128.661132812 147.001953125 127.994140625 c 0
 143.668945312 127.994140625 142.001953125 128.994140625 142.001953125 130.994140625 c 0
 142.001953125 132.994140625 141.334960938 135.994140625 140.001953125 139.994140625 c 0
 140.001953125 141.994140625 139.834960938 145.327148438 139.501953125 149.994140625 c 0
 139.168945312 154.661132812 138.668945312 159.494140625 138.001953125 164.494140625 c 0
 137.334960938 169.494140625 136.834960938 173.827148438 136.501953125 177.494140625 c 0
 136.168945312 181.161132812 136.001953125 183.661132812 136.001953125 184.994140625 c 2
 136.001953125 224.994140625 l 2
 136.001953125 297.661132812 141.668945312 366.161132812 153.001953125 430.494140625 c 0
 164.334960938 494.827148438 182.66796875 559.327148438 208.000976562 623.994140625 c 1
 207.000976562 625.994140625 l 2
 204.333984375 627.327148438 199.833984375 629.327148438 193.500976562 631.994140625 c 0
 187.16796875 634.661132812 180.66796875 637.661132812 174.000976562 640.994140625 c 2
 155.000976562 650.494140625 l 2
 149.000976562 653.494140625 145.000976562 655.661132812 143.000976562 656.994140625 c 0
 137.66796875 658.994140625 130.66796875 662.327148438 122.000976562 666.994140625 c 0
 113.333984375 671.661132812 104.333984375 676.494140625 95.0009765625 681.494140625 c 0
 85.66796875 686.494140625 76.66796875 690.827148438 68.0009765625 694.494140625 c 0
 59.333984375 698.161132812 52.6669921875 699.994140625 48 699.994140625 c 0
 45.3330078125 699.994140625 43.3330078125 697.494140625 42 692.494140625 c 0
 40.6669921875 687.494140625 40 683.327148438 40 679.994140625 c 0
 38.6669921875 676.661132812 37.5 671.828125 36.5 665.495117188 c 2
 33.5 646.495117188 l 2
 32.5 640.162109375 31.5 634.495117188 30.5 629.495117188 c 0
 29.5 624.495117188 28.6669921875 621.662109375 28 620.995117188 c 2
 24 558.995117188 l 1
 24 505.995117188 l 2
 24 375.995117188 45.3330078125 248.995117188 88 124.995117188 c 1
 89 120.995117188 l 2
 89 115.662109375 86 111.829101562 80 109.49609375 c 0
 74 107.163085938 69.3330078125 104.330078125 66 100.997070312 c 0
 52.6669921875 90.330078125 40 78.330078125 28 64.9970703125 c 0
 16 51.6640625 5.3330078125 36.3310546875 -4 18.998046875 c 1
 -4 15.998046875 l 1
 14.6669921875 25.998046875 33.6669921875 32.1650390625 53 34.498046875 c 0
 72.3330078125 36.8310546875 92 37.998046875 112 37.998046875 c 2
 116 37.998046875 l 2
 117.333007812 36.6650390625 118.5 33.83203125 119.5 29.4990234375 c 0
 120.5 25.166015625 121.333007812 22.666015625 122 21.9990234375 c 0
 122 20.666015625 122.333007812 19.8330078125 123 19.5 c 2
 124 19 l 1
EndSplineSet
EndChar

StartChar: M
Encoding: 77 77 47
Width: 443
GlyphClass: 2
Flags: W
LayerCount: 2
Fore
SplineSet
414 139 m 1
 413.997070312 155.998046875 l 2
 413.997070312 215.331054688 410.997070312 272.831054688 404.997070312 328.498046875 c 0
 398.997070312 384.165039062 395.997070312 441.665039062 395.997070312 500.998046875 c 0
 395.997070312 511.665039062 397.830078125 521.33203125 401.497070312 529.999023438 c 0
 405.1640625 538.666015625 409.1640625 547.166015625 413.497070312 555.499023438 c 0
 417.830078125 563.83203125 421.830078125 571.999023438 425.497070312 579.999023438 c 0
 429.1640625 587.999023438 430.997070312 596.666015625 430.997070312 605.999023438 c 0
 430.997070312 607.33203125 426.997070312 611.83203125 418.997070312 619.499023438 c 0
 410.997070312 627.166015625 401.997070312 635.666015625 391.997070312 644.999023438 c 0
 381.997070312 654.33203125 372.1640625 663.33203125 362.497070312 671.999023438 c 0
 352.830078125 680.666015625 346.330078125 686.999023438 342.997070312 690.999023438 c 0
 341.6640625 692.33203125 339.1640625 694.165039062 335.497070312 696.498046875 c 0
 331.830078125 698.831054688 329.663085938 699.998046875 328.99609375 699.998046875 c 0
 324.99609375 698.665039062 319.829101562 690.33203125 313.49609375 674.999023438 c 0
 307.163085938 659.666015625 300.330078125 640.666015625 292.997070312 617.999023438 c 0
 285.6640625 595.33203125 278.1640625 570.33203125 270.497070312 542.999023438 c 0
 262.830078125 515.666015625 255.663085938 488.999023438 248.99609375 462.999023438 c 0
 242.329101562 436.999023438 236.49609375 413.33203125 231.49609375 391.999023438 c 0
 226.49609375 370.666015625 222.99609375 354.999023438 220.99609375 344.999023438 c 1
 219.99609375 344.999023438 l 1
 217.99609375 354.999023438 214.49609375 370.499023438 209.49609375 391.499023438 c 0
 204.49609375 412.499023438 198.49609375 435.999023438 191.49609375 461.999023438 c 0
 184.49609375 487.999023438 177.163085938 514.666015625 169.49609375 541.999023438 c 0
 161.829101562 569.33203125 154.329101562 594.499023438 146.99609375 617.499023438 c 0
 139.663085938 640.499023438 132.830078125 659.666015625 126.497070312 674.999023438 c 0
 120.1640625 690.33203125 115.331054688 698.665039062 111.998046875 699.998046875 c 0
 111.331054688 699.998046875 109.1640625 698.831054688 105.497070312 696.498046875 c 0
 101.830078125 694.165039062 99.330078125 692.33203125 97.9970703125 690.999023438 c 0
 93.9970703125 686.999023438 87.1640625 680.666015625 77.4970703125 671.999023438 c 0
 67.830078125 663.33203125 57.830078125 654.33203125 47.4970703125 644.999023438 c 0
 37.1640625 635.666015625 28.1640625 627.166015625 20.4970703125 619.499023438 c 0
 12.830078125 611.83203125 8.9970703125 607.33203125 8.9970703125 605.999023438 c 0
 8.9970703125 596.666015625 10.830078125 587.999023438 14.4970703125 579.999023438 c 0
 18.1640625 571.999023438 22.1640625 563.83203125 26.4970703125 555.499023438 c 0
 30.830078125 547.166015625 34.830078125 538.666015625 38.4970703125 529.999023438 c 0
 42.1640625 521.33203125 43.9970703125 511.665039062 43.9970703125 500.998046875 c 0
 43.9970703125 442.331054688 41.330078125 384.831054688 35.9970703125 328.498046875 c 0
 30.6640625 272.165039062 27.9970703125 214.665039062 27.9970703125 155.998046875 c 2
 29.9970703125 92.998046875 l 2
 29.9970703125 87.6650390625 30.330078125 80.33203125 30.9970703125 70.9990234375 c 0
 31.6640625 61.666015625 32.3310546875 52.4990234375 32.998046875 43.4990234375 c 0
 33.6650390625 34.4990234375 34.33203125 26.666015625 34.9990234375 19.9990234375 c 0
 35.666015625 13.33203125 35.9990234375 9.6650390625 35.9990234375 8.998046875 c 2
 43.9990234375 -0.001953125 l 1
 57.9990234375 7.3310546875 71.9990234375 13.6640625 85.9990234375 18.9970703125 c 0
 99.9990234375 24.330078125 114.666015625 29.6630859375 129.999023438 34.99609375 c 2
 136.999023438 36.99609375 l 1
 137.999023438 55.99609375 l 2
 137.999023438 94.6630859375 134.33203125 133.49609375 126.999023438 172.49609375 c 0
 119.666015625 211.49609375 115.999023438 250.329101562 115.999023438 288.99609375 c 2
 117.999023438 351.99609375 l 1
 125.999023438 345.329101562 133.666015625 332.49609375 140.999023438 313.49609375 c 0
 148.33203125 294.49609375 155.33203125 272.329101562 161.999023438 246.99609375 c 0
 168.666015625 221.663085938 175.166015625 194.99609375 181.499023438 166.99609375 c 0
 187.83203125 138.99609375 193.999023438 112.99609375 199.999023438 88.99609375 c 0
 205.999023438 64.99609375 211.666015625 44.8291015625 216.999023438 28.49609375 c 0
 222.33203125 12.1630859375 227.665039062 2.6630859375 232.998046875 -0.00390625 c 1
 236.331054688 34.6630859375 240.331054688 67.1630859375 244.998046875 97.49609375 c 0
 249.665039062 127.829101562 254.998046875 157.99609375 260.998046875 187.99609375 c 2
 263.998046875 206.99609375 l 2
 268.665039062 219.663085938 273.165039062 233.830078125 277.498046875 249.497070312 c 0
 281.831054688 265.1640625 286.331054688 280.1640625 290.998046875 294.497070312 c 0
 295.665039062 308.830078125 300.665039062 321.830078125 305.998046875 333.497070312 c 0
 311.331054688 345.1640625 316.998046875 353.331054688 322.998046875 357.998046875 c 1
 323.998046875 304.998046875 l 2
 323.998046875 285.665039062 322.831054688 265.498046875 320.498046875 244.498046875 c 0
 318.165039062 223.498046875 315.83203125 202.165039062 313.499023438 180.498046875 c 0
 311.166015625 158.831054688 308.833007812 137.498046875 306.5 116.498046875 c 0
 304.166992188 95.498046875 303 75.3310546875 303 55.998046875 c 2
 304 36.998046875 l 1
 311 34.998046875 l 2
 325.666992188 29.6650390625 340 24.33203125 354 18.9990234375 c 0
 368 13.666015625 382.333007812 7.3330078125 397 0 c 1
 404 9 l 2
 404 9.6669921875 404.333007812 13.333984375 405 20.0009765625 c 0
 405.666992188 26.66796875 406.5 34.5009765625 407.5 43.5009765625 c 0
 408.5 52.5009765625 409.333007812 61.66796875 410 71.0009765625 c 0
 410.666992188 80.333984375 411 87.6669921875 411 93 c 2
 414 139 l 1
EndSplineSet
EndChar

StartChar: N
Encoding: 78 78 48
Width: 354
GlyphClass: 2
Flags: W
LayerCount: 2
Fore
SplineSet
44 503 m 2
 20.001953125 155.999023438 l 1
 20.001953125 100.999023438 l 1
 20.001953125 92.9990234375 l 2
 20.001953125 87.666015625 20.3349609375 80.3330078125 21.001953125 71 c 0
 21.6689453125 61.6669921875 22.501953125 52.5 23.501953125 43.5 c 0
 24.501953125 34.5 25.3349609375 26.6669921875 26.001953125 20 c 0
 26.6689453125 13.3330078125 27.001953125 9.666015625 27.001953125 8.9990234375 c 2
 34.001953125 -0.0009765625 l 1
 49.3349609375 7.9990234375 64.8349609375 14.83203125 80.501953125 20.4990234375 c 0
 96.1689453125 26.166015625 112.001953125 31.666015625 128.001953125 36.9990234375 c 1
 129.001953125 55.9990234375 l 1
 108.001953125 290.999023438 l 1
 118.001953125 379.999023438 l 1
 126.001953125 373.33203125 134.168945312 359.665039062 142.501953125 338.998046875 c 0
 150.834960938 318.331054688 158.834960938 294.331054688 166.501953125 266.998046875 c 0
 174.168945312 239.665039062 181.8359375 210.83203125 189.502929688 180.499023438 c 0
 197.169921875 150.166015625 204.502929688 121.999023438 211.502929688 95.9990234375 c 0
 218.502929688 69.9990234375 225.002929688 48.166015625 231.002929688 30.4990234375 c 0
 237.002929688 12.83203125 242.669921875 2.6650390625 248.002929688 -0.001953125 c 1
 283.3359375 87.998046875 306.8359375 180.831054688 318.502929688 278.498046875 c 0
 330.169921875 376.165039062 336.002929688 475.33203125 336.002929688 575.999023438 c 2
 336.002929688 672.999023438 l 2
 336.002929688 674.33203125 335.002929688 677.33203125 333.002929688 681.999023438 c 0
 331.002929688 686.666015625 329.3359375 689.666015625 328.002929688 690.999023438 c 2
 326.002929688 690.999023438 l 2
 318.669921875 690.999023438 310.502929688 689.83203125 301.502929688 687.499023438 c 0
 292.502929688 685.166015625 283.502929688 682.499023438 274.502929688 679.499023438 c 2
 247.502929688 670.499023438 l 2
 238.502929688 667.499023438 230.669921875 665.33203125 224.002929688 663.999023438 c 1
 228.002929688 633.33203125 232.169921875 600.999023438 236.502929688 566.999023438 c 0
 240.8359375 532.999023438 243.002929688 499.666015625 243.002929688 466.999023438 c 2
 243.002929688 443.999023438 l 1
 243.002929688 432.999023438 l 2
 243.002929688 426.33203125 242.669921875 422.665039062 242.002929688 421.998046875 c 0
 242.002929688 416.665039062 241.669921875 408.83203125 241.002929688 398.499023438 c 0
 240.3359375 388.166015625 239.502929688 377.499023438 238.502929688 366.499023438 c 0
 237.502929688 355.499023438 236.502929688 345.499023438 235.502929688 336.499023438 c 0
 234.502929688 327.499023438 233.669921875 321.666015625 233.002929688 318.999023438 c 1
 231.002929688 328.33203125 227.169921875 344.33203125 221.502929688 366.999023438 c 0
 215.8359375 389.666015625 209.168945312 414.999023438 201.501953125 442.999023438 c 0
 193.834960938 470.999023438 185.66796875 500.166015625 177.000976562 530.499023438 c 0
 168.333984375 560.83203125 159.833984375 588.499023438 151.500976562 613.499023438 c 0
 143.16796875 638.499023438 135.500976562 659.33203125 128.500976562 675.999023438 c 0
 121.500976562 692.666015625 116.000976562 701.333007812 112.000976562 702 c 0
 111.333984375 702 109.166992188 700.833007812 105.5 698.5 c 0
 101.833007812 696.166992188 99.3330078125 694.333984375 98 693.000976562 c 0
 94 689.000976562 87.1669921875 682.66796875 77.5 674.000976562 c 0
 67.8330078125 665.333984375 57.8330078125 656.333984375 47.5 647.000976562 c 0
 37.1669921875 637.66796875 28.1669921875 629.16796875 20.5 621.500976562 c 0
 12.8330078125 613.833984375 9 609.333984375 9 608.000976562 c 0
 9 598.66796875 10.8330078125 590.000976562 14.5 582.000976562 c 0
 18.1669921875 574.000976562 22.1669921875 565.833984375 26.5 557.500976562 c 0
 30.8330078125 549.16796875 34.8330078125 540.66796875 38.5 532.000976562 c 0
 42.1669921875 523.333984375 44 513.666992188 44 503 c 2
EndSplineSet
EndChar

StartChar: O
Encoding: 79 79 49
Width: 338
GlyphClass: 2
Flags: W
LayerCount: 2
Fore
SplineSet
14 413 m 0
 14 337 24.8349609375 266.166015625 46.501953125 200.499023438 c 0
 68.1689453125 134.83203125 96.001953125 71.33203125 130.001953125 9.9990234375 c 1
 144.001953125 -7.0009765625 l 1
 144.501953125 -7.5009765625 l 2
 144.834960938 -7.833984375 145.66796875 -8.0009765625 147.000976562 -8.0009765625 c 0
 147.66796875 -8.0009765625 148.334960938 -7.833984375 149.001953125 -7.5009765625 c 2
 150.001953125 -7.0009765625 l 2
 156.001953125 -5.0009765625 164.834960938 -0.5009765625 176.501953125 6.4990234375 c 0
 188.168945312 13.4990234375 199.668945312 21.4990234375 211.001953125 30.4990234375 c 0
 222.334960938 39.4990234375 232.16796875 48.666015625 240.500976562 57.9990234375 c 0
 248.833984375 67.33203125 253.000976562 74.9990234375 253.000976562 80.9990234375 c 0
 253.000976562 87.666015625 250.500976562 92.4990234375 245.500976562 95.4990234375 c 0
 240.500976562 98.4990234375 238.000976562 103.666015625 238.000976562 110.999023438 c 0
 238.000976562 112.33203125 238.16796875 113.999023438 238.500976562 115.999023438 c 0
 238.833984375 117.999023438 239.000976562 119.33203125 239.000976562 119.999023438 c 0
 263.66796875 169.999023438 283.66796875 220.666015625 299.000976562 271.999023438 c 0
 314.333984375 323.33203125 322.000976562 378.33203125 322.000976562 436.999023438 c 0
 322.000976562 496.999023438 314.000976562 549.33203125 298.000976562 593.999023438 c 0
 282.000976562 638.666015625 253.333984375 676.333007812 212.000976562 707 c 2
 198.000976562 716 l 1
 103.000976562 623 l 2
 102.333984375 622.333007812 101.333984375 623.166015625 100.000976562 625.499023438 c 0
 98.66796875 627.83203125 97.3349609375 629.999023438 96.001953125 631.999023438 c 0
 92.6689453125 637.999023438 90.501953125 643.499023438 89.501953125 648.499023438 c 0
 88.501953125 653.499023438 88.001953125 658.999023438 88.001953125 664.999023438 c 2
 88.001953125 675.999023438 l 1
 88.001953125 681.999023438 l 2
 88.001953125 684.666015625 88.3349609375 687.333007812 89.001953125 690 c 1
 74.3349609375 675.333007812 62.16796875 656.5 52.5009765625 633.5 c 0
 42.833984375 610.5 35.1669921875 586.166992188 29.5 560.5 c 0
 23.8330078125 534.833007812 19.8330078125 509 17.5 483 c 0
 15.1669921875 457 14 433.666992188 14 413 c 0
94.001953125 505.999023438 m 2
 94.00390625 548.999023438 l 1
 95.00390625 559.999023438 l 2
 97.6708984375 568.666015625 100.50390625 575.333007812 103.50390625 580 c 0
 106.50390625 584.666992188 111.670898438 587 119.00390625 587 c 0
 135.670898438 587 150.170898438 581.5 162.50390625 570.5 c 0
 174.836914062 559.5 185.336914062 545 194.00390625 527 c 0
 202.670898438 509 209.670898438 488.833007812 215.00390625 466.5 c 0
 220.336914062 444.166992188 224.336914062 421.5 227.00390625 398.5 c 0
 229.670898438 375.5 231.50390625 353.333007812 232.50390625 332 c 0
 233.50390625 310.666992188 234.00390625 292.333984375 234.00390625 277.000976562 c 0
 234.00390625 273.000976562 234.170898438 267.66796875 234.50390625 261.000976562 c 0
 234.836914062 254.333984375 235.00390625 246.333984375 235.00390625 237.000976562 c 0
 235.00390625 228.333984375 234.670898438 219.666992188 234.00390625 211 c 0
 233.336914062 202.333007812 232.169921875 194.5 230.502929688 187.5 c 0
 228.8359375 180.5 226.3359375 174.666992188 223.002929688 170 c 0
 219.669921875 165.333007812 215.002929688 163 209.002929688 163 c 0
 196.3359375 163 184.668945312 169.5 174.001953125 182.5 c 0
 163.334960938 195.5 153.66796875 212.5 145.000976562 233.5 c 0
 136.333984375 254.5 128.833984375 277.833007812 122.500976562 303.5 c 0
 116.16796875 329.166992188 110.834960938 354.666992188 106.501953125 380 c 0
 102.168945312 405.333007812 99.001953125 429.166015625 97.001953125 451.499023438 c 0
 95.001953125 473.83203125 94.001953125 491.999023438 94.001953125 505.999023438 c 2
EndSplineSet
EndChar

StartChar: P
Encoding: 80 80 50
Width: 378
GlyphClass: 2
Flags: W
LayerCount: 2
Fore
SplineSet
70 23 m 1
 76.001953125 21.9931640625 l 2
 83.3349609375 20.66015625 92.16796875 19.16015625 102.500976562 17.4931640625 c 0
 112.833984375 15.826171875 123.833984375 13.9931640625 135.500976562 11.9931640625 c 0
 147.16796875 9.9931640625 158.500976562 7.826171875 169.500976562 5.4931640625 c 0
 180.500976562 3.16015625 190.333984375 0.66015625 199.000976562 -2.0068359375 c 1
 199.000976562 -1.33984375 199.16796875 -0.1728515625 199.500976562 1.494140625 c 0
 199.833984375 3.1611328125 200.000976562 4.6611328125 200.000976562 5.994140625 c 0
 200.000976562 20.6611328125 197.000976562 38.828125 191.000976562 60.4951171875 c 0
 185.000976562 82.162109375 178.16796875 104.995117188 170.500976562 128.995117188 c 0
 162.833984375 152.995117188 156.000976562 177.328125 150.000976562 201.995117188 c 0
 144.000976562 226.662109375 141.000976562 249.662109375 141.000976562 270.995117188 c 2
 142.000976562 288.995117188 l 1
 151.000976562 289.995117188 l 2
 176.333984375 293.995117188 199.333984375 299.162109375 220.000976562 305.495117188 c 0
 240.66796875 311.828125 260.000976562 323.328125 278.000976562 339.995117188 c 0
 300.000976562 364.662109375 320.16796875 393.329101562 338.500976562 425.99609375 c 0
 356.833984375 458.663085938 366.000976562 494.330078125 366.000976562 532.997070312 c 0
 366.000976562 563.6640625 360.500976562 588.331054688 349.500976562 606.998046875 c 0
 338.500976562 625.665039062 324.500976562 639.998046875 307.500976562 649.998046875 c 0
 290.500976562 659.998046875 271.333984375 666.665039062 250.000976562 669.998046875 c 0
 228.66796875 673.331054688 208.000976562 674.998046875 188.000976562 674.998046875 c 0
 178.66796875 674.998046875 171.000976562 674.831054688 165.000976562 674.498046875 c 0
 159.000976562 674.165039062 152.000976562 673.665039062 144.000976562 672.998046875 c 1
 117.000976562 698.998046875 l 1
 114.333984375 694.998046875 108.000976562 686.331054688 98.0009765625 672.998046875 c 0
 88.0009765625 659.665039062 77.333984375 645.83203125 66.0009765625 631.499023438 c 0
 54.66796875 617.166015625 44.5009765625 604.333007812 35.5009765625 593 c 2
 22.0009765625 576 l 1
 22.0009765625 568 22.66796875 562.666992188 24.0009765625 560 c 0
 25.333984375 557.333007812 27.6669921875 556 31 556 c 0
 34.3330078125 556 38 556.833007812 42 558.5 c 0
 46 560.166992188 50.6669921875 561 56 561 c 1
 56 543.666992188 55.1669921875 524.666992188 53.5 504 c 0
 51.8330078125 483.333007812 49.8330078125 462.5 47.5 441.5 c 0
 45.1669921875 420.5 42.833984375 400.333007812 40.5009765625 381 c 0
 38.16796875 361.666992188 36.66796875 345 36.0009765625 331 c 1
 -4.9990234375 314 l 1
 -4.9990234375 306 l 1
 29.0009765625 280 l 2
 30.333984375 280 31.833984375 279 33.5009765625 277 c 0
 35.16796875 275 36.0009765625 273.333007812 36.0009765625 272 c 0
 38.66796875 230 42.16796875 188 46.5009765625 146 c 0
 50.833984375 104 58.6669921875 63 70 23 c 1
130.001953125 508.993164062 m 0
 130.001953125 512.326171875 130.16796875 517.158203125 130.500976562 523.491210938 c 0
 130.833984375 529.82421875 131.000976562 535.657226562 131.000976562 540.990234375 c 2
 131.000976562 562.990234375 l 1
 144.000976562 579.990234375 l 1
 151.500976562 580.990234375 l 2
 156.500976562 581.657226562 160.66796875 581.990234375 164.000976562 581.990234375 c 2
 172.000976562 581.990234375 l 2
 181.333984375 581.990234375 190.333984375 581.323242188 199.000976562 579.990234375 c 0
 207.66796875 578.657226562 215.334960938 575.490234375 222.001953125 570.490234375 c 0
 228.668945312 565.490234375 234.001953125 558.323242188 238.001953125 548.990234375 c 0
 242.001953125 539.657226562 244.001953125 527.32421875 244.001953125 511.991210938 c 0
 244.001953125 493.991210938 240.834960938 477.32421875 234.501953125 461.991210938 c 0
 228.168945312 446.658203125 220.168945312 432.825195312 210.501953125 420.4921875 c 0
 200.834960938 408.159179688 190.001953125 397.326171875 178.001953125 387.993164062 c 0
 166.001953125 378.66015625 154.668945312 370.993164062 144.001953125 364.993164062 c 1
 138.001953125 375.66015625 134.001953125 389.493164062 132.001953125 406.493164062 c 0
 130.001953125 423.493164062 129.001953125 440.326171875 129.001953125 456.993164062 c 0
 129.001953125 466.993164062 129.168945312 476.493164062 129.501953125 485.493164062 c 0
 129.834960938 494.493164062 130.001953125 502.326171875 130.001953125 508.993164062 c 0
EndSplineSet
EndChar

StartChar: Q
Encoding: 81 81 51
Width: 340
GlyphClass: 2
Flags: W
LayerCount: 2
Fore
SplineSet
24 126 m 1
 83.998046875 103.999023438 l 1
 91.998046875 87.33203125 99.998046875 71.33203125 107.998046875 55.9990234375 c 2
 131.998046875 9.9990234375 l 2
 131.998046875 8.666015625 135.831054688 2.9990234375 143.498046875 -7.0009765625 c 0
 151.165039062 -17.0009765625 159.498046875 -28.0009765625 168.498046875 -40.0009765625 c 0
 177.498046875 -52.0009765625 185.831054688 -63.0009765625 193.498046875 -73.0009765625 c 0
 201.165039062 -83.0009765625 205.33203125 -88.333984375 205.999023438 -89.0009765625 c 2
 211.999023438 -89.0009765625 l 2
 217.999023438 -86.333984375 226.83203125 -81.5009765625 238.499023438 -74.5009765625 c 0
 250.166015625 -67.5009765625 261.833007812 -59.66796875 273.5 -51.0009765625 c 0
 285.166992188 -42.333984375 295.166992188 -33.5009765625 303.5 -24.5009765625 c 0
 311.833007812 -15.5009765625 316 -7.333984375 316 -0.0009765625 c 0
 316 3.33203125 312 10.33203125 304 20.9990234375 c 0
 296 31.666015625 287.333007812 42.9990234375 278 54.9990234375 c 0
 268.666992188 66.9990234375 260 78.33203125 252 88.9990234375 c 0
 244 99.666015625 240 106.999023438 240 110.999023438 c 0
 240 112.33203125 240.166992188 113.999023438 240.5 115.999023438 c 0
 240.833007812 117.999023438 241 119.33203125 241 119.999023438 c 0
 265.666992188 169.999023438 285.666992188 220.83203125 301 272.499023438 c 0
 316.333007812 324.166015625 324 379.333007812 324 438 c 0
 324 498.666992188 316 551.833984375 300 597.500976562 c 0
 284 643.16796875 255.333007812 680.000976562 214 708.000976562 c 2
 200 717.000976562 l 1
 105 624.000976562 l 2
 104.333007812 623.333984375 103.333007812 624.166992188 102 626.5 c 0
 100.666992188 628.833007812 99.333984375 631 98.0009765625 633 c 0
 92.66796875 645 90.0009765625 656 90.0009765625 666 c 0
 90.0009765625 669.333007812 90.16796875 673 90.5009765625 677 c 0
 90.833984375 681 91.333984375 685.666992188 92.0009765625 691 c 1
 77.333984375 676.333007812 65.1669921875 657.5 55.5 634.5 c 0
 45.8330078125 611.5 38 587.166992188 32 561.5 c 0
 26 535.833007812 21.8330078125 510 19.5 484 c 0
 17.1669921875 458 16 434.666992188 16 414 c 0
 16 374 18.6669921875 337.166992188 24 303.5 c 0
 29.3330078125 269.833007812 37.3330078125 236 48 202 c 1
 48 201 l 2
 45.3330078125 194.333007812 42.8330078125 186.5 40.5 177.5 c 0
 38.1669921875 168.5 34.6669921875 159 30 149 c 2
 24 126 l 1
83.998046875 526.999023438 m 2
 84.001953125 581.999023438 l 2
 87.3349609375 590.666015625 90.3349609375 597.166015625 93.001953125 601.499023438 c 0
 95.6689453125 605.83203125 100.668945312 607.999023438 108.001953125 607.999023438 c 0
 125.334960938 607.999023438 140.66796875 601.499023438 154.000976562 588.499023438 c 0
 167.333984375 575.499023438 179.000976562 558.666015625 189.000976562 537.999023438 c 0
 199.000976562 517.33203125 207.333984375 494.165039062 214.000976562 468.498046875 c 0
 220.66796875 442.831054688 226.16796875 416.998046875 230.500976562 390.998046875 c 0
 234.833984375 364.998046875 237.833984375 340.498046875 239.500976562 317.498046875 c 0
 241.16796875 294.498046875 242.000976562 275.331054688 242.000976562 259.998046875 c 0
 242.000976562 255.998046875 242.16796875 250.498046875 242.500976562 243.498046875 c 0
 242.833984375 236.498046875 243.000976562 228.331054688 243.000976562 218.998046875 c 0
 243.000976562 210.331054688 242.66796875 201.6640625 242.000976562 192.997070312 c 0
 241.333984375 184.330078125 240.166992188 176.497070312 238.5 169.497070312 c 0
 236.833007812 162.497070312 234.333007812 156.6640625 231 151.997070312 c 0
 227.666992188 147.330078125 223 144.997070312 217 144.997070312 c 0
 208.333007812 144.997070312 201 145.6640625 195 146.997070312 c 0
 189 148.330078125 183.5 151.830078125 178.5 157.497070312 c 0
 173.5 163.1640625 168.666992188 171.331054688 164 181.998046875 c 0
 159.333007812 192.665039062 154 207.33203125 148 225.999023438 c 1
 148 239.999023438 l 2
 148 273.999023438 153.5 308.33203125 164.5 342.999023438 c 0
 175.5 377.666015625 186.666992188 410.999023438 198 442.999023438 c 2
 202 452.999023438 l 1
 186.666992188 438.33203125 172 420.999023438 158 400.999023438 c 0
 144 380.999023438 129.333007812 358.999023438 114 334.999023438 c 1
 109.333007812 354.33203125 105.166015625 373.499023438 101.499023438 392.499023438 c 0
 97.83203125 411.499023438 94.6650390625 429.499023438 91.998046875 446.499023438 c 0
 89.3310546875 463.499023438 87.3310546875 478.999023438 85.998046875 492.999023438 c 0
 84.6650390625 506.999023438 83.998046875 518.33203125 83.998046875 526.999023438 c 2
EndSplineSet
EndChar

